<svg width="80" height="87" viewBox="0 0 80 87" fill="none" xmlns="http://www.w3.org/2000/svg">
<ellipse cx="40" cy="47.3382" rx="40" ry="39.6618" fill="#F9DAFB"/>
<path d="M71.7903 7.2063H7.77419L7.19354 7.35042L6.75806 7.49455L6.46774 7.63867L5.88709 7.92692L5.59677 8.21516L5.30645 8.79166L5.16129 9.36815V20.1774H74.8387V9.80052L74.5484 9.07991L74.2581 8.35929L73.8226 7.78279L73.0968 7.2063H71.7903Z" fill="#F22C57"/>
<path d="M26.7904 11.7368V2.09661C26.7904 1.94998 26.7561 1.80539 26.6901 1.67444C26.6603 1.61522 26.6243 1.55933 26.5827 1.5077L26.0646 0.864742L25.9088 0.658393C25.7259 0.416281 25.48 0.229022 25.198 0.117028C25.0033 0.0397104 24.7958 0 24.5863 0H24.1775H23.8231C23.6729 0 23.5232 0.0183021 23.3773 0.0545021C23.139 0.113658 22.9148 0.219653 22.7179 0.366312L22.4356 0.576494L22.2643 0.678524C21.9022 0.894266 21.6091 1.20886 21.4195 1.58536C21.2288 1.96407 21.1324 2.38327 21.1386 2.80726L21.2711 11.8834C21.2732 12.0312 21.2983 12.1777 21.3453 12.3178C21.3944 12.4641 21.4669 12.6016 21.56 12.7247L21.7226 12.94C21.8107 13.0567 21.907 13.1669 22.0108 13.2699L22.2277 13.4854C22.5518 13.8071 22.968 14.02 23.4185 14.0946C23.5372 14.1142 23.6574 14.1241 23.7777 14.1241H23.9426C24.3835 14.1241 24.8186 14.0221 25.2136 13.826C25.3934 13.7367 25.5632 13.6288 25.7204 13.504L25.992 13.2882C26.1366 13.1734 26.2661 13.0407 26.3775 12.8933L26.4229 12.8332C26.5697 12.6389 26.6759 12.4171 26.7354 12.1809C26.772 12.0357 26.7904 11.8865 26.7904 11.7368Z" fill="#1C54F5"/>
<path d="M58.7255 11.7368V2.09661C58.7255 1.94998 58.6911 1.80539 58.6252 1.67444C58.5953 1.61522 58.5593 1.55933 58.5177 1.5077L57.9997 0.864742L57.8438 0.658393C57.6609 0.416281 57.415 0.229022 57.133 0.117028C56.9384 0.0397104 56.7308 0 56.5213 0H56.1126H55.7582C55.6079 0 55.4582 0.0183021 55.3123 0.0545021C55.074 0.113658 54.8498 0.219654 54.6529 0.366313L54.3706 0.576494L54.1994 0.678523C53.8372 0.894266 53.5441 1.20886 53.3545 1.58536C53.1638 1.96407 53.0674 2.38327 53.0736 2.80726L53.2061 11.8834C53.2082 12.0312 53.2333 12.1777 53.2803 12.3178C53.3294 12.4641 53.4019 12.6016 53.495 12.7247L53.6576 12.94C53.7458 13.0567 53.8421 13.1669 53.9458 13.2699L54.1628 13.4854C54.4868 13.8071 54.903 14.02 55.3536 14.0946C55.4723 14.1142 55.5924 14.1241 55.7127 14.1241H55.8776C56.3186 14.1241 56.7536 14.0221 57.1486 13.826C57.3284 13.7367 57.4983 13.6288 57.6554 13.504L57.927 13.2882C58.0716 13.1734 58.2011 13.0407 58.3125 12.8933L58.3579 12.8332C58.5047 12.6389 58.6109 12.4171 58.6704 12.1809C58.707 12.0357 58.7255 11.8865 58.7255 11.7368Z" fill="#1C54F5"/>
<path d="M74.6935 71.9939V20.8217C74.6935 20.3066 74.276 19.889 73.7609 19.889H6.09393C5.57884 19.889 5.16129 20.3066 5.16129 20.8217V70.5961C5.16129 70.799 5.22745 70.9964 5.34975 71.1583L5.59677 71.4853L6.1124 72.1252C6.15561 72.1788 6.20463 72.2275 6.25856 72.2704L6.70489 72.6249C6.83476 72.728 6.98978 72.7947 7.15399 72.818L7.91935 72.9265H73.7609C74.276 72.9265 74.6935 72.509 74.6935 71.9939Z" fill="#1C54F5"/>
<path d="M23.0154 28.3921H14.8864H14.596L14.1606 28.6803L13.8702 29.1127V37.616L14.0154 37.7601L14.3057 38.1925L14.7412 38.3366H23.1606L23.4509 38.1925L23.8864 37.7601L24.0315 37.616V29.401L23.7412 28.9686L23.4509 28.6803L23.0154 28.3921Z" fill="#F4F4F4"/>
<path d="M38.6931 28.3921H30.564H30.2737L29.8382 28.6803L29.5479 29.1127V37.616L29.6931 37.7601L29.9834 38.1925L30.4189 38.3366H38.8382L39.1286 38.1925L39.564 37.7601L39.7092 37.616V29.401L39.4189 28.9686L39.1286 28.6803L38.6931 28.3921Z" fill="#F4F4F4"/>
<path d="M54.9511 28.3921H46.8221H46.5317L46.0963 28.6803L45.8059 29.1127V37.616L45.9511 37.7601L46.2414 38.1925L46.6769 38.3366H55.0963L55.3866 38.1925L55.8221 37.7601L55.9672 37.616V29.401L55.6769 28.9686L55.3866 28.6803L54.9511 28.3921Z" fill="#F4F4F4"/>
<path d="M70.6281 28.3921H62.499H62.2087L61.7732 28.6803L61.4829 29.1127V37.616L61.6281 37.7601L61.9184 38.1925L62.3539 38.3366H70.7732L71.0635 38.1925L71.499 37.7601L71.6442 37.616V29.401L71.3539 28.9686L71.0635 28.6803L70.6281 28.3921Z" fill="#F4F4F4"/>
<path d="M70.6281 43.6693H62.499H62.2087L61.7732 43.9576L61.4829 44.3899V52.8932L61.6281 53.0373L61.9184 53.4697L62.3539 53.6138H70.7732L71.0635 53.4697L71.499 53.0373L71.6442 52.8932V44.6782L71.3539 44.2458L71.0635 43.9576L70.6281 43.6693Z" fill="#F4F4F4"/>
<path d="M54.9511 43.6693H46.8221H46.5317L46.0963 43.9576L45.8059 44.3899V52.8932L45.9511 53.0373L46.2414 53.4697L46.6769 53.6138H55.0963L55.3866 53.4697L55.8221 53.0373L55.9672 52.8932V44.6782L55.6769 44.2458L55.3866 43.9576L54.9511 43.6693Z" fill="#F4F4F4"/>
<path d="M38.6931 43.6693H30.564H30.2737L29.8382 43.9576L29.5479 44.3899V52.8932L29.6931 53.0373L29.9834 53.4697L30.4189 53.6138H38.8382L39.1286 53.4697L39.564 53.0373L39.7092 52.8932V44.6782L39.4189 44.2458L39.1286 43.9576L38.6931 43.6693Z" fill="#F4F4F4"/>
<path d="M23.0154 43.6693H14.8863H14.596L14.1605 43.9576L13.8702 44.3899V52.8932L14.0154 53.0373L14.3057 53.4697L14.7412 53.6138H23.1605L23.4509 53.4697L23.8863 53.0373L24.0315 52.8932V44.6782L23.7412 44.2458L23.4509 43.9576L23.0154 43.6693Z" fill="#F4F4F4"/>
<path d="M23.0154 59.5227H14.8863H14.596L14.1605 59.811L13.8702 60.2433V68.7466L14.0154 68.8907L14.3057 69.3231L14.7412 69.4672H23.1605L23.4509 69.3231L23.8863 68.8907L24.0315 68.7466V60.5316L23.7412 60.0992L23.4509 59.811L23.0154 59.5227Z" fill="#F4F4F4"/>
<path d="M38.6931 59.5227H30.564H30.2737L29.8382 59.811L29.5479 60.2433V68.7466L29.6931 68.8907L29.9834 69.3231L30.4189 69.4672H38.8382L39.1286 69.3231L39.564 68.8907L39.7092 68.7466V60.5316L39.4189 60.0992L39.1286 59.811L38.6931 59.5227Z" fill="#F4F4F4"/>
<path d="M54.5646 59.1947H46.4355H46.1452L45.7097 59.4829L45.4194 59.9153V68.4186L45.5646 68.5627L45.8549 68.9951L46.2904 69.1392H54.7097L55 68.9951L55.4355 68.5627L55.5807 68.4186V60.2036L55.2904 59.7712L55 59.4829L54.5646 59.1947Z" fill="#F4F4F4"/>
<path d="M70.2423 59.1947H62.1132H61.8229L61.3874 59.4829L61.0971 59.9153V68.4186L61.2423 68.5627L61.5326 68.9951L61.9681 69.1392H70.3874L70.6778 68.9951L71.1132 68.5627L71.2584 68.4186V60.2036L70.9681 59.7712L70.6778 59.4829L70.2423 59.1947Z" fill="#F4F4F4"/>
<path d="M51.6613 57.177H43.5322H43.2419L42.8064 57.4652L42.5161 57.8976V66.4009L42.6613 66.545L42.9516 66.9774L43.3871 67.1215H51.8064L52.0968 66.9774L52.5322 66.545L52.6774 66.4009V58.1859L52.3871 57.7535L52.0968 57.4652L51.6613 57.177Z" fill="#240046"/>
<path d="M67.2258 57.177H59.0968H58.8064L58.3709 57.4652L58.0806 57.8976V66.4009L58.2258 66.545L58.5161 66.9774L58.9516 67.1215H67.3709L67.6613 66.9774L68.0968 66.545L68.2419 66.4009V58.1859L67.9516 57.7535L67.6613 57.4652L67.2258 57.177Z" fill="#240046"/>
<path d="M20.1133 25.7986H11.9843H11.6939L11.2585 26.0868L10.9681 26.5192V35.0225L11.1133 35.1666L11.4036 35.599L11.8391 35.7431H20.2585L20.5488 35.599L20.9843 35.1666L21.1294 35.0225V26.8074L20.8391 26.3751L20.5488 26.0868L20.1133 25.7986Z" fill="#240046"/>
<path d="M36.3701 25.798H28.2411H27.9508L27.5153 26.0862L27.225 26.5186V35.0219L27.3701 35.166L27.6605 35.5984L28.0959 35.7425H36.5153L36.8056 35.5984L37.2411 35.166L37.3863 35.0219V26.8068L37.0959 26.3745L36.8056 26.0862L36.3701 25.798Z" fill="#240046"/>
<path d="M52.338 25.798H44.2089H43.9186L43.4831 26.0862L43.1928 26.5186V35.0219L43.338 35.166L43.6283 35.5984L44.0638 35.7425H52.4831L52.7735 35.5984L53.2089 35.166L53.3541 35.0219V26.8068L53.0638 26.3745L52.7735 26.0862L52.338 25.798Z" fill="#240046"/>
<path d="M68.015 25.798H59.8859H59.5956L59.1601 26.0862L58.8698 26.5186V35.0219L59.015 35.166L59.3053 35.5984L59.7408 35.7425H68.1601L68.4505 35.5984L68.8859 35.166L69.0311 35.0219V26.8068L68.7408 26.3745L68.4505 26.0862L68.015 25.798Z" fill="#240046"/>
<path d="M68.015 41.6516H59.8859H59.5956L59.1601 41.9399L58.8698 42.3722V50.8755L59.015 51.0196L59.3053 51.452L59.7408 51.5961H68.1601L68.4505 51.452L68.8859 51.0196L69.0311 50.8755V42.6605L68.7408 42.2281L68.4505 41.9399L68.015 41.6516Z" fill="#240046"/>
<path d="M52.0478 41.6516H43.9188H43.6285L43.193 41.9399L42.9027 42.3722V50.8755L43.0478 51.0196L43.3382 51.452L43.7736 51.5961H52.193L52.4833 51.452L52.9188 51.0196L53.064 50.8755V42.6605L52.7736 42.2281L52.4833 41.9399L52.0478 41.6516Z" fill="#240046"/>
<path d="M36.08 41.6516H27.9509H27.6606L27.2251 41.9399L26.9348 42.3722V50.8755L27.08 51.0196L27.3703 51.452L27.8058 51.5961H36.2251L36.5155 51.452L36.9509 51.0196L37.0961 50.8755V42.6605L36.8058 42.2281L36.5155 41.9399L36.08 41.6516Z" fill="#240046"/>
<path d="M20.1121 41.6516H11.983H11.6927L11.2572 41.9399L10.9669 42.3722V50.8755L11.1121 51.0196L11.4024 51.452L11.8379 51.5961H20.2572L20.5476 51.452L20.983 51.0196L21.1282 50.8755V42.6605L20.8379 42.2281L20.5476 41.9399L20.1121 41.6516Z" fill="#240046"/>
<path d="M20.1121 57.505H11.983H11.6927L11.2572 57.7933L10.9669 58.2256V66.7289L11.1121 66.873L11.4024 67.3054L11.8379 67.4495H20.2572L20.5476 67.3054L20.983 66.873L21.1282 66.7289V58.5139L20.8379 58.0815L20.5476 57.7933L20.1121 57.505Z" fill="#240046"/>
<path d="M36.3701 57.505H28.2411H27.9508L27.5153 57.7933L27.225 58.2256V66.7289L27.3701 66.873L27.6605 67.3054L28.0959 67.4495H36.5153L36.8056 67.3054L37.2411 66.873L37.3863 66.7289V58.5139L37.0959 58.0815L36.8056 57.7933L36.3701 57.505Z" fill="#240046"/>
</svg>
