<svg width="100" height="100" viewBox="0 0 100 100" fill="none" xmlns="http://www.w3.org/2000/svg">
<path d="M73.1805 32.2298H26.8198C26.2675 32.2298 25.8198 31.7821 25.8198 31.2298V18.1142C25.8198 17.8618 25.9153 17.6187 26.087 17.4338L27.06 16.3858C27.2492 16.182 27.5147 16.0662 27.7928 16.0662H72.1241C72.391 16.0662 72.6468 16.1729 72.8346 16.3626L73.891 17.4292C74.0765 17.6165 74.1805 17.8694 74.1805 18.1329V31.2298C74.1805 31.7821 73.7328 32.2298 73.1805 32.2298Z" stroke="black" stroke-linecap="round"/>
<ellipse cx="50" cy="52.2882" rx="50" ry="47.7118" fill="#F9DAFB"/>
<path d="M85.1529 75.3652C86.4486 76.9927 86.2223 79.349 86.2938 82.451C86.3306 84.0452 85.7395 85.6209 84.5275 86.6571C74.2235 95.4661 66.384 98.5211 50.7646 99.8053C34.875 98.9916 26.7152 96.4158 15.614 86.8709C14.5375 85.9453 13.9346 84.5834 13.9346 83.1637V78.7684C13.9346 78.5123 13.9527 78.2573 14.0137 78.0086C14.2015 77.2433 14.7682 75.5052 16.1729 74.6836C18.0042 73.6125 31.4646 69.0361 31.4646 69.0361L39.9214 65.9128C40.4319 65.7243 40.9698 65.6203 41.5138 65.6051L57.1049 65.1688C57.7553 65.1506 58.4031 65.2595 59.0118 65.4895L68.3997 69.0361C68.3997 69.0361 83.5251 73.3204 85.1529 75.3652Z" fill="#240046"/>
<path d="M31.5 69L41 65.5H60L68 69L50 86L31.5 69Z" fill="white"/>
<path d="M47.4631 79.1934L44.1662 75.0159C43.7861 74.5343 43.9254 73.827 44.4598 73.5255L49.4968 70.6833C49.8083 70.5075 50.1899 70.5115 50.4977 70.6937L55.3128 73.5443C55.817 73.8429 55.9577 74.509 55.6172 74.9859L52.58 79.2396C52.4363 79.4408 52.3723 79.688 52.4002 79.9337L53.4597 89.2473C53.5272 89.8405 53.0632 90.3603 52.4661 90.3603H47.3252C46.7297 90.3603 46.2661 89.843 46.3312 89.251L46.9265 83.8364L47.6603 80.0009C47.7148 79.7159 47.6429 79.4212 47.4631 79.1934Z" fill="#F22C57"/>
<path d="M60.3975 60.8569H39.5C38.3954 60.8569 37.5 61.7523 37.5 62.8569V75.3497C37.5 76.8802 39.149 77.8435 40.4822 77.0919L48.6357 72.4953C49.2303 72.16 49.9549 72.1512 50.5575 72.4719L59.4579 77.2087C60.7901 77.9177 62.3975 76.9522 62.3975 75.4432V62.8569C62.3975 61.7523 61.5021 60.8569 60.3975 60.8569Z" fill="#E6F3FF"/>
<path d="M50.0001 70.4703L42.623 63.3622L57.2747 63.8491L50.0001 70.4703Z" fill="#FFC987"/>
<path d="M26.2295 42.888V28.777C26.2295 27.6724 27.1249 26.777 28.2295 26.777H72.1803C73.2849 26.777 74.1803 27.6724 74.1803 28.777V42.888C74.1803 43.9926 73.2849 44.888 72.1803 44.888H28.2295C27.1249 44.888 26.2295 43.9926 26.2295 42.888Z" fill="#A5683F"/>
<path d="M26.339 41.0399C26.7791 40.5809 27.2822 40.3234 27.9713 40.3116C29.8953 40.3116 31.4549 41.8712 31.4549 43.7952V48.716C31.4549 50.4738 30.03 51.8987 28.2722 51.8987C28.072 51.8987 27.8717 51.8824 27.6771 51.836C26.4017 51.5319 25.6472 50.8856 25.1751 48.9503C25.0385 48.3906 25 47.8116 25 47.2354V45.6291C25 43.9917 25.2057 42.2218 26.339 41.0399Z" fill="#FFC987"/>
<path d="M73.8426 41.1073C73.4079 40.6671 72.9105 40.4204 72.2335 40.4089C70.3096 40.4089 68.7499 41.9686 68.7499 43.8925L68.7499 48.7137C68.7499 50.4727 70.1759 51.8987 71.935 51.8987C72.1336 51.8987 72.3324 51.8826 72.5257 51.837C73.7993 51.5363 74.5537 50.8982 75.0264 48.9888C75.166 48.4249 75.2048 47.841 75.2048 47.2601V45.7213C75.2048 44.0721 75.0013 42.281 73.8426 41.1073Z" fill="#FFC987"/>
<path d="M29.8155 48.296C29.8154 40.5605 29.8154 32.8777 29.8155 29.3556C29.8155 28.2511 30.7109 27.3613 31.8155 27.3613H68.1844C69.2889 27.3613 70.1844 28.2511 70.1844 29.3557V48.296C70.1844 58.8121 60.1182 66.691 49.0778 66.2123C38.563 65.7563 29.8157 58.8121 29.8155 48.296Z" fill="#FFE2B8"/>
<path d="M36.0659 35.3457H43.238" stroke="#A5683F" stroke-width="3" stroke-linecap="round"/>
<path d="M56.9675 35.3457H64.1397" stroke="#A5683F" stroke-width="3" stroke-linecap="round"/>
<path d="M39.8569 40.6038V44.3039" stroke="#00881F" stroke-width="4" stroke-linecap="round"/>
<path d="M60.3486 40.6038V44.3039" stroke="#00881F" stroke-width="4" stroke-linecap="round"/>
<path d="M48.9758 42.4538V44.9329C48.9758 46.0374 49.8713 46.9329 50.9758 46.9329H51.3324" stroke="#FF9F60" stroke-width="3" stroke-linecap="round"/>
<path d="M44.1602 51.704C44.1602 60.2727 55.1233 59.8832 55.738 51.704" stroke="#FF9F60" stroke-width="3" stroke-linecap="round"/>
<path d="M27.0247 32.2298H72.873C73.4253 32.2298 73.873 31.7877 73.873 31.2354V17.9163C73.873 17.1373 73.5656 15.8715 72.0288 15.8715H27.7665C26.9468 15.8715 26.0247 16.8452 26.0247 17.9163V31.2358C26.0247 31.7881 26.4724 32.2298 27.0247 32.2298Z" fill="#240046"/>
<path d="M19.3649 39.2561V19.3057C19.3649 18.7534 18.9172 18.3057 18.3649 18.3057H16.8813C16.329 18.3057 15.8813 18.7534 15.8813 19.3057V39.2561C15.8813 39.3746 15.8602 39.4921 15.8191 39.6033L13.9968 44.5252C13.9556 44.6364 13.9346 44.7539 13.9346 44.8724V58.8831C13.9346 59.4354 14.3823 59.8831 14.9346 59.8831H20.3116C20.8639 59.8831 21.3116 59.4354 21.3116 58.8831V44.8724C21.3116 44.7539 21.2906 44.6364 21.2494 44.5252L19.4271 39.6033C19.386 39.4921 19.3649 39.3746 19.3649 39.2561Z" fill="#FBC324"/>
<path d="M43.5005 29.2118L12.4914 17.1725C11.6476 16.8449 11.6385 15.6542 12.4772 15.3137L49.8245 0.154454C50.0683 0.0554945 50.3413 0.0566127 50.5843 0.157564L87.1274 15.3399C87.9484 15.681 87.9495 16.8435 87.1291 17.1861L66.6086 25.7563C66.5338 25.7875 66.4555 25.8095 66.3755 25.8219L44.0147 29.2679C43.8414 29.2946 43.664 29.2752 43.5005 29.2118Z" fill="#240046"/>
<ellipse cx="17.623" cy="34.7615" rx="4.09836" ry="3.89484" fill="#00D591"/>
</svg>
