<svg width="24" height="47" viewBox="0 0 24 47" fill="none" xmlns="http://www.w3.org/2000/svg">
<path d="M2.98937 7.38005C2.49937 7.87005 2.49937 8.66005 2.98937 9.15005L11.2994 17.4601C11.6894 17.8501 12.3194 17.8501 12.7094 17.4601L21.0194 9.15005C21.5094 8.66005 21.5094 7.87005 21.0194 7.38005C20.5294 6.89005 19.7394 6.89005 19.2494 7.38005L11.9994 14.6201L4.74937 7.37005C4.26937 6.89005 3.46937 6.89005 2.98937 7.38005Z" fill="#969696"/>
<path d="M2.98937 19.3801C2.49937 19.8701 2.49937 20.6601 2.98937 21.1501L11.2994 29.4601C11.6894 29.8501 12.3194 29.8501 12.7094 29.4601L21.0194 21.1501C21.5094 20.6601 21.5094 19.8701 21.0194 19.3801C20.5294 18.8901 19.7394 18.8901 19.2494 19.3801L11.9994 26.6201L4.74937 19.3701C4.26937 18.8901 3.46937 18.8901 2.98937 19.3801Z" fill="#646464"/>
<path d="M2.98937 30.3801C2.49937 30.8701 2.49937 31.6601 2.98937 32.1501L11.2994 40.4601C11.6894 40.8501 12.3194 40.8501 12.7094 40.4601L21.0194 32.1501C21.5094 31.6601 21.5094 30.8701 21.0194 30.3801C20.5294 29.8901 19.7394 29.8901 19.2494 30.3801L11.9994 37.6201L4.74937 30.3701C4.26937 29.8901 3.46937 29.8901 2.98937 30.3801Z" fill="#240046"/>
</svg>
