<svg width="85" height="83" viewBox="0 0 85 83" fill="none" xmlns="http://www.w3.org/2000/svg">
<circle cx="40" cy="43" r="40" fill="#F9DAFB"/>
<ellipse cx="71.5206" cy="12.1301" rx="12.6027" ry="12.1301" fill="#240046"/>
<path d="M7.87677 5.98633H71.9932C75.3864 5.98633 78.137 8.73702 78.137 12.1302C78.137 15.5233 75.3864 18.274 71.9932 18.274H7.87677V5.98633Z" fill="#D8D8D8"/>
<path d="M3.78088 21.2671C3.78088 19.6141 5.12096 18.274 6.77403 18.274H71.5206V24.2603H6.77403C5.12096 24.2603 3.78088 22.9202 3.78088 21.2671Z" fill="#240046"/>
<path d="M63.6439 3.1507H67.1096V13.7055C67.1096 14.6625 66.3338 15.4384 65.3768 15.4384C64.4197 15.4384 63.6439 14.6625 63.6439 13.7055V3.1507Z" fill="#C60E08"/>
<path d="M3.78082 2.99315C3.78082 1.34008 5.1209 0 6.77397 0H71.5205V5.9863H6.77397C5.1209 5.9863 3.78082 4.64622 3.78082 2.99315Z" fill="#240046"/>
<path d="M11.0274 24.2603H78.6096C80.2627 24.2603 81.6027 25.6003 81.6027 27.2534C81.6027 28.9065 80.2627 30.2466 78.6096 30.2466H11.0274V24.2603Z" fill="#9710A1"/>
<path d="M11.0274 42.5343H78.6096C80.2627 42.5343 81.6027 43.8744 81.6027 45.5275C81.6027 47.1805 80.2627 48.5206 78.6096 48.5206H11.0274V42.5343Z" fill="#9710A1"/>
<ellipse cx="12.2877" cy="36.3904" rx="12.2877" ry="12.1301" fill="#9710A1"/>
<path d="M6.30136 36.3904C6.30136 32.9973 9.05205 30.2466 12.4452 30.2466H76.2466V42.5343H12.4452C9.05204 42.5343 6.30136 39.7836 6.30136 36.3904Z" fill="#F7ECFD"/>
<path d="M17.6438 30.2466H21.1096V37.9658C21.1096 38.9228 20.3337 39.6986 19.3767 39.6986C18.4197 39.6986 17.6438 38.9228 17.6438 37.9658V30.2466Z" fill="#01EAA0"/>
<path d="M17.386 48.5205H71.6863C73.0817 48.5205 74.2129 49.6517 74.2129 51.0472C74.2129 52.4426 73.0817 53.5739 71.6863 53.5739H17.386V48.5205Z" fill="#1C54F5"/>
<path d="M17.386 63.9467H71.6863C73.0817 63.9467 74.2129 65.0779 74.2129 66.4733C74.2129 67.8688 73.0817 69 71.6863 69H17.386V63.9467Z" fill="#1C54F5"/>
<ellipse cx="18.4008" cy="58.7602" rx="9.89397" ry="10.2397" fill="#1C54F5"/>
<path d="M13.5807 58.7602C13.5807 55.8959 15.9027 53.5739 18.767 53.5739H69.9002V63.9466H18.767C15.9027 63.9466 13.5807 61.6246 13.5807 58.7602Z" fill="#F7ECFD"/>
<path d="M22.7136 53.5739H25.5042V60.1576C25.5042 60.9282 24.8795 61.5529 24.1089 61.5529C23.3383 61.5529 22.7136 60.9282 22.7136 60.1576V53.5739Z" fill="#0D2775"/>
</svg>
