<svg width="112" height="20" viewBox="0 0 112 20" fill="none" xmlns="http://www.w3.org/2000/svg">
<path d="M7.49 15.3C6.05 15.3 4.81667 14.9867 3.79 14.36C2.76333 13.7267 1.97333 12.8467 1.42 11.72C0.873333 10.5933 0.6 9.28667 0.6 7.8C0.6 6.31333 0.873333 5.00667 1.42 3.88C1.97333 2.75333 2.76333 1.87667 3.79 1.25C4.81667 0.616666 6.05 0.3 7.49 0.3C9.15 0.3 10.5333 0.716666 11.64 1.55C12.7467 2.37667 13.5233 3.49333 13.97 4.9L11.54 5.57C11.26 4.63 10.7833 3.89667 10.11 3.37C9.43667 2.83667 8.56333 2.57 7.49 2.57C6.52333 2.57 5.71667 2.78667 5.07 3.22C4.43 3.65333 3.94667 4.26333 3.62 5.05C3.3 5.83 3.13667 6.74667 3.13 7.8C3.13 8.85333 3.29 9.77333 3.61 10.56C3.93667 11.34 4.42333 11.9467 5.07 12.38C5.71667 12.8133 6.52333 13.03 7.49 13.03C8.56333 13.03 9.43667 12.7633 10.11 12.23C10.7833 11.6967 11.26 10.9633 11.54 10.03L13.97 10.7C13.5233 12.1067 12.7467 13.2267 11.64 14.06C10.5333 14.8867 9.15 15.3 7.49 15.3ZM20.9356 15.3C19.8556 15.3 18.9123 15.0567 18.1056 14.57C17.299 14.0833 16.6723 13.4133 16.2256 12.56C15.7856 11.7 15.5656 10.7133 15.5656 9.6C15.5656 8.46667 15.7923 7.47333 16.2456 6.62C16.699 5.76667 17.329 5.1 18.1356 4.62C18.9423 4.14 19.8756 3.9 20.9356 3.9C22.0223 3.9 22.969 4.14333 23.7756 4.63C24.5823 5.11667 25.209 5.79 25.6556 6.65C26.1023 7.50333 26.3256 8.48667 26.3256 9.6C26.3256 10.72 26.099 11.71 25.6456 12.57C25.199 13.4233 24.5723 14.0933 23.7656 14.58C22.959 15.06 22.0156 15.3 20.9356 15.3ZM20.9356 13.04C21.8956 13.04 22.609 12.72 23.0756 12.08C23.5423 11.44 23.7756 10.6133 23.7756 9.6C23.7756 8.55333 23.539 7.72 23.0656 7.1C22.5923 6.47333 21.8823 6.16 20.9356 6.16C20.289 6.16 19.7556 6.30667 19.3356 6.6C18.9223 6.88667 18.6156 7.29 18.4156 7.81C18.2156 8.32333 18.1156 8.92 18.1156 9.6C18.1156 10.6467 18.3523 11.4833 18.8256 12.11C19.3056 12.73 20.009 13.04 20.9356 13.04ZM35.9989 15V9.8C35.9989 9.46 35.9756 9.08333 35.9289 8.67C35.8822 8.25667 35.7722 7.86 35.5989 7.48C35.4322 7.09333 35.1789 6.77667 34.8389 6.53C34.5056 6.28333 34.0522 6.16 33.4789 6.16C33.1722 6.16 32.8689 6.21 32.5689 6.31C32.2689 6.41 31.9956 6.58333 31.7489 6.83C31.5089 7.07 31.3156 7.40333 31.1689 7.83C31.0222 8.25 30.9489 8.79 30.9489 9.45L29.5189 8.84C29.5189 7.92 29.6956 7.08667 30.0489 6.34C30.4089 5.59333 30.9356 5 31.6289 4.56C32.3222 4.11333 33.1756 3.89 34.1889 3.89C34.9889 3.89 35.6489 4.02333 36.1689 4.29C36.6889 4.55667 37.1022 4.89667 37.4089 5.31C37.7156 5.72333 37.9422 6.16333 38.0889 6.63C38.2356 7.09667 38.3289 7.54 38.3689 7.96C38.4156 8.37333 38.4389 8.71 38.4389 8.97V15H35.9989ZM28.5089 15V4.2H30.6589V7.55H30.9489V15H28.5089ZM45.3784 15.3C44.3851 15.3 43.5184 15.05 42.7784 14.55C42.0384 14.05 41.4651 13.37 41.0584 12.51C40.6518 11.65 40.4484 10.68 40.4484 9.6C40.4484 8.50667 40.6518 7.53333 41.0584 6.68C41.4718 5.82 42.0551 5.14333 42.8084 4.65C43.5618 4.15 44.4484 3.9 45.4684 3.9C46.4951 3.9 47.3551 4.15 48.0484 4.65C48.7484 5.14333 49.2784 5.82 49.6384 6.68C49.9984 7.54 50.1784 8.51333 50.1784 9.6C50.1784 10.6733 49.9984 11.6433 49.6384 12.51C49.2784 13.37 48.7418 14.05 48.0284 14.55C47.3151 15.05 46.4318 15.3 45.3784 15.3ZM45.7484 13.14C46.3951 13.14 46.9151 12.9933 47.3084 12.7C47.7084 12.4 47.9984 11.9833 48.1784 11.45C48.3651 10.9167 48.4584 10.3 48.4584 9.6C48.4584 8.89333 48.3651 8.27667 48.1784 7.75C47.9984 7.21667 47.7151 6.80333 47.3284 6.51C46.9418 6.21 46.4418 6.06 45.8284 6.06C45.1818 6.06 44.6484 6.22 44.2284 6.54C43.8084 6.85333 43.4984 7.28 43.2984 7.82C43.0984 8.35333 42.9984 8.94667 42.9984 9.6C42.9984 10.26 43.0951 10.86 43.2884 11.4C43.4884 11.9333 43.7918 12.3567 44.1984 12.67C44.6051 12.9833 45.1218 13.14 45.7484 13.14ZM48.1584 19.8V11.78H48.4584V4.2H50.5884V19.8H48.1584ZM57.4422 15.31C56.6422 15.31 55.9822 15.1767 55.4622 14.91C54.9422 14.6433 54.5289 14.3033 54.2222 13.89C53.9155 13.4767 53.6889 13.0367 53.5422 12.57C53.3955 12.1033 53.2989 11.6633 53.2522 11.25C53.2122 10.83 53.1922 10.49 53.1922 10.23V4.2H55.6322V9.4C55.6322 9.73333 55.6555 10.11 55.7022 10.53C55.7489 10.9433 55.8555 11.3433 56.0222 11.73C56.1955 12.11 56.4489 12.4233 56.7822 12.67C57.1222 12.9167 57.5789 13.04 58.1522 13.04C58.4589 13.04 58.7622 12.99 59.0622 12.89C59.3622 12.79 59.6322 12.62 59.8722 12.38C60.1189 12.1333 60.3155 11.7967 60.4622 11.37C60.6089 10.9433 60.6822 10.4033 60.6822 9.75L62.1122 10.36C62.1122 11.28 61.9322 12.1133 61.5722 12.86C61.2189 13.6067 60.6955 14.2033 60.0022 14.65C59.3089 15.09 58.4555 15.31 57.4422 15.31ZM60.9722 15V11.65H60.6822V4.2H63.1022V15H60.9722ZM66.1117 2.56V0.35H68.5217V2.56H66.1117ZM66.1117 15V4.2H68.5217V15H66.1117ZM75.6872 15.3C74.3539 15.3 73.2705 15 72.4372 14.4C71.6039 13.8 71.0972 12.9567 70.9172 11.87L73.3772 11.49C73.5039 12.0233 73.7839 12.4433 74.2172 12.75C74.6505 13.0567 75.1972 13.21 75.8572 13.21C76.4372 13.21 76.8839 13.0967 77.1972 12.87C77.5172 12.6367 77.6772 12.32 77.6772 11.92C77.6772 11.6733 77.6172 11.4767 77.4972 11.33C77.3839 11.1767 77.1305 11.03 76.7372 10.89C76.3439 10.75 75.7405 10.5733 74.9272 10.36C74.0205 10.12 73.3005 9.86333 72.7672 9.59C72.2339 9.31 71.8505 8.98 71.6172 8.6C71.3839 8.22 71.2672 7.76 71.2672 7.22C71.2672 6.54667 71.4439 5.96 71.7972 5.46C72.1505 4.96 72.6439 4.57667 73.2772 4.31C73.9105 4.03667 74.6572 3.9 75.5172 3.9C76.3572 3.9 77.1005 4.03 77.7472 4.29C78.4005 4.55 78.9272 4.92 79.3272 5.4C79.7272 5.88 79.9739 6.44333 80.0672 7.09L77.6072 7.53C77.5472 7.07 77.3372 6.70667 76.9772 6.44C76.6239 6.17333 76.1505 6.02333 75.5572 5.99C74.9905 5.95667 74.5339 6.04333 74.1872 6.25C73.8405 6.45 73.6672 6.73333 73.6672 7.1C73.6672 7.30667 73.7372 7.48333 73.8772 7.63C74.0172 7.77667 74.2972 7.92333 74.7172 8.07C75.1439 8.21667 75.7772 8.39667 76.6172 8.61C77.4772 8.83 78.1639 9.08333 78.6772 9.37C79.1972 9.65 79.5705 9.98667 79.7972 10.38C80.0305 10.7733 80.1472 11.25 80.1472 11.81C80.1472 12.8967 79.7505 13.75 78.9572 14.37C78.1705 14.99 77.0805 15.3 75.6872 15.3ZM88.6675 15C87.9542 15.1333 87.2542 15.19 86.5675 15.17C85.8875 15.1567 85.2775 15.0333 84.7375 14.8C84.1975 14.56 83.7875 14.1833 83.5075 13.67C83.2608 13.2033 83.1308 12.7267 83.1175 12.24C83.1042 11.7533 83.0975 11.2033 83.0975 10.59V1.2H85.4975V10.45C85.4975 10.8833 85.5008 11.2633 85.5075 11.59C85.5208 11.9167 85.5908 12.1833 85.7175 12.39C85.9575 12.79 86.3408 13.0133 86.8675 13.06C87.3942 13.1067 87.9942 13.08 88.6675 12.98V15ZM81.1375 6.09V4.2H88.6675V6.09H81.1375ZM94.0098 15.3C93.2298 15.3 92.5698 15.1533 92.0298 14.86C91.4898 14.56 91.0798 14.1633 90.7998 13.67C90.5265 13.1767 90.3898 12.6333 90.3898 12.04C90.3898 11.52 90.4765 11.0533 90.6498 10.64C90.8232 10.22 91.0898 9.86 91.4498 9.56C91.8098 9.25333 92.2765 9.00333 92.8498 8.81C93.2832 8.67 93.7898 8.54333 94.3698 8.43C94.9565 8.31667 95.5898 8.21333 96.2698 8.12C96.9565 8.02 97.6732 7.91333 98.4198 7.8L97.5598 8.29C97.5665 7.54333 97.3998 6.99333 97.0598 6.64C96.7198 6.28667 96.1465 6.11 95.3398 6.11C94.8532 6.11 94.3832 6.22333 93.9298 6.45C93.4765 6.67667 93.1598 7.06667 92.9798 7.62L90.7798 6.93C91.0465 6.01667 91.5532 5.28333 92.2998 4.73C93.0532 4.17667 94.0665 3.9 95.3398 3.9C96.2998 3.9 97.1432 4.05667 97.8698 4.37C98.6032 4.68333 99.1465 5.19667 99.4998 5.91C99.6932 6.29 99.8098 6.68 99.8498 7.08C99.8898 7.47333 99.9098 7.90333 99.9098 8.37V15H97.7998V12.66L98.1498 13.04C97.6632 13.82 97.0932 14.3933 96.4398 14.76C95.7932 15.12 94.9832 15.3 94.0098 15.3ZM94.4898 13.38C95.0365 13.38 95.5032 13.2833 95.8898 13.09C96.2765 12.8967 96.5832 12.66 96.8098 12.38C97.0432 12.1 97.1998 11.8367 97.2798 11.59C97.4065 11.2833 97.4765 10.9333 97.4898 10.54C97.5098 10.14 97.5198 9.81667 97.5198 9.57L98.2598 9.79C97.5332 9.90333 96.9098 10.0033 96.3898 10.09C95.8698 10.1767 95.4232 10.26 95.0498 10.34C94.6765 10.4133 94.3465 10.4967 94.0598 10.59C93.7798 10.69 93.5432 10.8067 93.3498 10.94C93.1565 11.0733 93.0065 11.2267 92.8998 11.4C92.7998 11.5733 92.7498 11.7767 92.7498 12.01C92.7498 12.2767 92.8165 12.5133 92.9498 12.72C93.0832 12.92 93.2765 13.08 93.5298 13.2C93.7898 13.32 94.1098 13.38 94.4898 13.38ZM106.683 15.3C105.35 15.3 104.267 15 103.433 14.4C102.6 13.8 102.093 12.9567 101.913 11.87L104.373 11.49C104.5 12.0233 104.78 12.4433 105.213 12.75C105.647 13.0567 106.193 13.21 106.853 13.21C107.433 13.21 107.88 13.0967 108.193 12.87C108.513 12.6367 108.673 12.32 108.673 11.92C108.673 11.6733 108.613 11.4767 108.493 11.33C108.38 11.1767 108.127 11.03 107.733 10.89C107.34 10.75 106.737 10.5733 105.923 10.36C105.017 10.12 104.297 9.86333 103.763 9.59C103.23 9.31 102.847 8.98 102.613 8.6C102.38 8.22 102.263 7.76 102.263 7.22C102.263 6.54667 102.44 5.96 102.793 5.46C103.147 4.96 103.64 4.57667 104.273 4.31C104.907 4.03667 105.653 3.9 106.513 3.9C107.353 3.9 108.097 4.03 108.743 4.29C109.397 4.55 109.923 4.92 110.323 5.4C110.723 5.88 110.97 6.44333 111.063 7.09L108.603 7.53C108.543 7.07 108.333 6.70667 107.973 6.44C107.62 6.17333 107.147 6.02333 106.553 5.99C105.987 5.95667 105.53 6.04333 105.183 6.25C104.837 6.45 104.663 6.73333 104.663 7.1C104.663 7.30667 104.733 7.48333 104.873 7.63C105.013 7.77667 105.293 7.92333 105.713 8.07C106.14 8.21667 106.773 8.39667 107.613 8.61C108.473 8.83 109.16 9.08333 109.673 9.37C110.193 9.65 110.567 9.98667 110.793 10.38C111.027 10.7733 111.143 11.25 111.143 11.81C111.143 12.8967 110.747 13.75 109.953 14.37C109.167 14.99 108.077 15.3 106.683 15.3Z" fill="black"/>
</svg>
