<svg width="123" height="36" viewBox="0 0 123 36" fill="none" xmlns="http://www.w3.org/2000/svg">
<path d="M0.36 35V0.439999H6.888V14.648H22.344V0.439999H28.872V35H22.344V20.744H6.888V35H0.36ZM47.658 35.72C45.002 35.72 42.658 35.152 40.626 34.016C38.61 32.864 37.026 31.288 35.874 29.288C34.738 27.272 34.17 24.968 34.17 22.376C34.17 19.544 34.73 17.08 35.85 14.984C36.97 12.888 38.514 11.264 40.482 10.112C42.45 8.944 44.714 8.36 47.274 8.36C49.994 8.36 52.306 9 54.21 10.28C56.114 11.56 57.522 13.36 58.434 15.68C59.346 18 59.666 20.728 59.394 23.864H52.938V21.464C52.938 18.824 52.514 16.928 51.666 15.776C50.834 14.608 49.466 14.024 47.562 14.024C45.338 14.024 43.698 14.704 42.642 16.064C41.602 17.408 41.082 19.4 41.082 22.04C41.082 24.456 41.602 26.328 42.642 27.656C43.698 28.968 45.242 29.624 47.274 29.624C48.554 29.624 49.65 29.344 50.562 28.784C51.474 28.224 52.17 27.416 52.65 26.36L59.178 28.232C58.202 30.6 56.658 32.44 54.546 33.752C52.45 35.064 50.154 35.72 47.658 35.72ZM39.066 23.864V19.016H56.25V23.864H39.066ZM64.8131 35V9.08H70.5731V15.416L69.9491 14.6C70.2851 13.704 70.7331 12.888 71.2931 12.152C71.8531 11.416 72.5411 10.808 73.3571 10.328C73.9811 9.944 74.6611 9.648 75.3971 9.44C76.1331 9.216 76.8931 9.08 77.6771 9.032C78.4611 8.968 79.2451 8.984 80.0291 9.08V15.176C79.3091 14.952 78.4691 14.88 77.5091 14.96C76.5651 15.024 75.7091 15.24 74.9411 15.608C74.1731 15.96 73.5251 16.432 72.9971 17.024C72.4691 17.6 72.0691 18.288 71.7971 19.088C71.5251 19.872 71.3891 20.76 71.3891 21.752V35H64.8131ZM96.1736 35.72C93.5176 35.72 91.1736 35.152 89.1416 34.016C87.1256 32.864 85.5416 31.288 84.3896 29.288C83.2536 27.272 82.6856 24.968 82.6856 22.376C82.6856 19.544 83.2456 17.08 84.3656 14.984C85.4856 12.888 87.0296 11.264 88.9976 10.112C90.9656 8.944 93.2296 8.36 95.7896 8.36C98.5096 8.36 100.822 9 102.726 10.28C104.63 11.56 106.038 13.36 106.95 15.68C107.862 18 108.182 20.728 107.91 23.864H101.454V21.464C101.454 18.824 101.03 16.928 100.182 15.776C99.3496 14.608 97.9816 14.024 96.0776 14.024C93.8536 14.024 92.2136 14.704 91.1576 16.064C90.1176 17.408 89.5976 19.4 89.5976 22.04C89.5976 24.456 90.1176 26.328 91.1576 27.656C92.2136 28.968 93.7576 29.624 95.7896 29.624C97.0696 29.624 98.1656 29.344 99.0776 28.784C99.9896 28.224 100.686 27.416 101.166 26.36L107.694 28.232C106.718 30.6 105.174 32.44 103.062 33.752C100.966 35.064 98.6696 35.72 96.1736 35.72ZM87.5816 23.864V19.016H104.766V23.864H87.5816ZM115.729 35V29.24H122.257V35H115.729ZM115.729 26.36V0.439999H122.257V26.36H115.729Z" fill="#6E10A1"/>
</svg>
