<svg width="115" height="68" viewBox="0 0 115 68" fill="none" xmlns="http://www.w3.org/2000/svg">
<path d="M0 34C0 15.2223 15.5433 0 34.717 0H80.283C99.4568 0 115 15.2223 115 34V68H34.717C15.5433 68 0 52.7778 0 34Z" fill="#6E10A1"/>
<path d="M80.2823 12.75H34.7163C22.7328 12.75 13.0182 22.2639 13.0182 34C13.0182 45.736 22.7328 55.25 34.7163 55.25H80.2823C92.2659 55.25 101.98 45.736 101.98 34C101.98 22.2639 92.2659 12.75 80.2823 12.75Z" fill="white"/>
<path d="M34.7172 44.625C40.709 44.625 45.5663 39.868 45.5663 34C45.5663 28.132 40.709 23.375 34.7172 23.375C28.7255 23.375 23.8682 28.132 23.8682 34C23.8682 39.868 28.7255 44.625 34.7172 44.625Z" fill="black"/>
<path d="M30.3774 31.875C31.5757 31.875 32.5472 30.9236 32.5472 29.75C32.5472 28.5764 31.5757 27.625 30.3774 27.625C29.179 27.625 28.2076 28.5764 28.2076 29.75C28.2076 30.9236 29.179 31.875 30.3774 31.875Z" fill="white"/>
<path d="M82.4535 44.625C88.4453 44.625 93.3026 39.868 93.3026 34C93.3026 28.132 88.4453 23.375 82.4535 23.375C76.4618 23.375 71.6045 28.132 71.6045 34C71.6045 39.868 76.4618 44.625 82.4535 44.625Z" fill="black"/>
<path d="M78.1137 31.875C79.3121 31.875 80.2835 30.9236 80.2835 29.75C80.2835 28.5764 79.3121 27.625 78.1137 27.625C76.9154 27.625 75.9439 28.5764 75.9439 29.75C75.9439 30.9236 76.9154 31.875 78.1137 31.875Z" fill="white"/>
</svg>
