<svg width="167" height="73" viewBox="0 0 167 73" fill="none" xmlns="http://www.w3.org/2000/svg">
<path d="M1.4 16V1.6H3.84L10.52 11.75V1.6H12.96V16H10.52L3.84 5.85V16H1.4ZM20.5255 16.3C19.4455 16.3 18.5021 16.0567 17.6955 15.57C16.8888 15.0833 16.2621 14.4133 15.8155 13.56C15.3755 12.7 15.1555 11.7133 15.1555 10.6C15.1555 9.46667 15.3821 8.47333 15.8355 7.62C16.2888 6.76667 16.9188 6.1 17.7255 5.62C18.5321 5.14 19.4655 4.9 20.5255 4.9C21.6121 4.9 22.5588 5.14333 23.3655 5.63C24.1721 6.11667 24.7988 6.79 25.2455 7.65C25.6921 8.50333 25.9155 9.48667 25.9155 10.6C25.9155 11.72 25.6888 12.71 25.2355 13.57C24.7888 14.4233 24.1621 15.0933 23.3555 15.58C22.5488 16.06 21.6055 16.3 20.5255 16.3ZM20.5255 14.04C21.4855 14.04 22.1988 13.72 22.6655 13.08C23.1321 12.44 23.3655 11.6133 23.3655 10.6C23.3655 9.55333 23.1288 8.72 22.6555 8.1C22.1821 7.47333 21.4721 7.16 20.5255 7.16C19.8788 7.16 19.3455 7.30667 18.9255 7.6C18.5121 7.88667 18.2055 8.29 18.0055 8.81C17.8055 9.32333 17.7055 9.92 17.7055 10.6C17.7055 11.6467 17.9421 12.4833 18.4155 13.11C18.8955 13.73 19.5988 14.04 20.5255 14.04ZM41.0888 16V9.44C41.0888 8.7 40.9054 8.12333 40.5388 7.71C40.1721 7.29 39.6754 7.08 39.0488 7.08C38.6621 7.08 38.3154 7.17 38.0088 7.35C37.7021 7.52333 37.4588 7.78333 37.2787 8.13C37.0988 8.47 37.0088 8.87667 37.0088 9.35L35.9388 8.72C35.9321 7.97333 36.0988 7.31667 36.4388 6.75C36.7854 6.17667 37.2521 5.73 37.8388 5.41C38.4254 5.09 39.0788 4.93 39.7988 4.93C40.9921 4.93 41.9054 5.29 42.5388 6.01C43.1788 6.72333 43.4988 7.66333 43.4988 8.83V16H41.0888ZM28.0988 16V5.2H30.2288V8.55H30.5288V16H28.0988ZM34.6088 16V9.47C34.6088 8.71667 34.4254 8.13 34.0588 7.71C33.6921 7.29 33.1921 7.08 32.5588 7.08C31.9454 7.08 31.4521 7.29 31.0788 7.71C30.7121 8.13 30.5288 8.67667 30.5288 9.35L29.4488 8.63C29.4488 7.93 29.6221 7.3 29.9688 6.74C30.3154 6.18 30.7821 5.74 31.3688 5.42C31.9621 5.09333 32.6254 4.93 33.3588 4.93C34.1654 4.93 34.8388 5.10333 35.3788 5.45C35.9254 5.79 36.3321 6.25667 36.5988 6.85C36.8721 7.43667 37.0088 8.1 37.0088 8.84V16H34.6088ZM50.8413 16.3C49.7479 16.3 48.7879 16.0633 47.9613 15.59C47.1346 15.1167 46.4879 14.46 46.0213 13.62C45.5613 12.78 45.3313 11.8133 45.3313 10.72C45.3313 9.54 45.5579 8.51667 46.0113 7.65C46.4646 6.77667 47.0946 6.1 47.9013 5.62C48.7079 5.14 49.6413 4.9 50.7013 4.9C51.8213 4.9 52.7713 5.16333 53.5513 5.69C54.3379 6.21 54.9213 6.94667 55.3013 7.9C55.6813 8.85333 55.8246 9.97667 55.7313 11.27H53.3413V10.39C53.3346 9.21667 53.1279 8.36 52.7213 7.82C52.3146 7.28 51.6746 7.01 50.8013 7.01C49.8146 7.01 49.0813 7.31667 48.6013 7.93C48.1213 8.53667 47.8813 9.42667 47.8813 10.6C47.8813 11.6933 48.1213 12.54 48.6013 13.14C49.0813 13.74 49.7813 14.04 50.7013 14.04C51.2946 14.04 51.8046 13.91 52.2313 13.65C52.6646 13.3833 52.9979 13 53.2313 12.5L55.6113 13.22C55.1979 14.1933 54.5579 14.95 53.6913 15.49C52.8313 16.03 51.8813 16.3 50.8413 16.3ZM47.1213 11.27V9.45H54.5513V11.27H47.1213ZM58.7625 14.7V12.23H61.2325V14.7H58.7625ZM58.7825 8.97V6.5H61.2525V8.97H58.7825ZM7.49 44.3C6.05 44.3 4.81667 43.9867 3.79 43.36C2.76333 42.7267 1.97333 41.8467 1.42 40.72C0.873333 39.5933 0.6 38.2867 0.6 36.8C0.6 35.3133 0.873333 34.0067 1.42 32.88C1.97333 31.7533 2.76333 30.8767 3.79 30.25C4.81667 29.6167 6.05 29.3 7.49 29.3C8.93 29.3 10.1633 29.6167 11.19 30.25C12.2233 30.8767 13.0133 31.7533 13.56 32.88C14.1133 34.0067 14.39 35.3133 14.39 36.8C14.39 38.2867 14.1133 39.5933 13.56 40.72C13.0133 41.8467 12.2233 42.7267 11.19 43.36C10.1633 43.9867 8.93 44.3 7.49 44.3ZM7.49 42.03C8.45667 42.0367 9.26 41.8233 9.9 41.39C10.5467 40.9567 11.03 40.3467 11.35 39.56C11.6767 38.7733 11.84 37.8533 11.84 36.8C11.84 35.7467 11.6767 34.8333 11.35 34.06C11.03 33.28 10.5467 32.6733 9.9 32.24C9.26 31.8067 8.45667 31.5833 7.49 31.57C6.52333 31.5633 5.72 31.7767 5.08 32.21C4.44 32.6433 3.95667 33.2533 3.63 34.04C3.31 34.8267 3.15 35.7467 3.15 36.8C3.15 37.8533 3.31 38.77 3.63 39.55C3.95 40.3233 4.43 40.9267 5.07 41.36C5.71667 41.7933 6.52333 42.0167 7.49 42.03ZM21.0705 44.3C19.9571 44.3 19.0071 44.0533 18.2205 43.56C17.4338 43.06 16.8305 42.38 16.4105 41.52C15.9971 40.66 15.7871 39.6867 15.7805 38.6C15.7871 37.4933 16.0038 36.5133 16.4305 35.66C16.8638 34.8 17.4771 34.1267 18.2705 33.64C19.0638 33.1467 20.0071 32.9 21.1005 32.9C22.3271 32.9 23.3638 33.21 24.2105 33.83C25.0638 34.4433 25.6205 35.2833 25.8805 36.35L23.4805 37C23.2938 36.42 22.9838 35.97 22.5505 35.65C22.1171 35.3233 21.6238 35.16 21.0705 35.16C20.4438 35.16 19.9271 35.31 19.5205 35.61C19.1138 35.9033 18.8138 36.31 18.6205 36.83C18.4271 37.35 18.3305 37.94 18.3305 38.6C18.3305 39.6267 18.5605 40.4567 19.0205 41.09C19.4805 41.7233 20.1638 42.04 21.0705 42.04C21.7105 42.04 22.2138 41.8933 22.5805 41.6C22.9538 41.3067 23.2338 40.8833 23.4205 40.33L25.8805 40.88C25.5471 41.98 24.9638 42.8267 24.1305 43.42C23.2971 44.0067 22.2771 44.3 21.0705 44.3ZM31.9344 44.31C31.1344 44.31 30.4744 44.1767 29.9544 43.91C29.4344 43.6433 29.021 43.3033 28.7144 42.89C28.4077 42.4767 28.181 42.0367 28.0344 41.57C27.8877 41.1033 27.791 40.6633 27.7444 40.25C27.7044 39.83 27.6844 39.49 27.6844 39.23V33.2H30.1244V38.4C30.1244 38.7333 30.1477 39.11 30.1944 39.53C30.241 39.9433 30.3477 40.3433 30.5144 40.73C30.6877 41.11 30.941 41.4233 31.2744 41.67C31.6144 41.9167 32.071 42.04 32.6444 42.04C32.951 42.04 33.2544 41.99 33.5544 41.89C33.8544 41.79 34.1244 41.62 34.3644 41.38C34.611 41.1333 34.8077 40.7967 34.9544 40.37C35.101 39.9433 35.1744 39.4033 35.1744 38.75L36.6044 39.36C36.6044 40.28 36.4244 41.1133 36.0644 41.86C35.711 42.6067 35.1877 43.2033 34.4944 43.65C33.801 44.09 32.9477 44.31 31.9344 44.31ZM35.4644 44V40.65H35.1744V33.2H37.5944V44H35.4644ZM45.5939 44.3C44.5406 44.3 43.6572 44.05 42.9439 43.55C42.2306 43.05 41.6939 42.37 41.3339 41.51C40.9739 40.6433 40.7939 39.6733 40.7939 38.6C40.7939 37.5133 40.9739 36.54 41.3339 35.68C41.6939 34.82 42.2206 34.1433 42.9139 33.65C43.6139 33.15 44.4772 32.9 45.5039 32.9C46.5239 32.9 47.4072 33.15 48.1539 33.65C48.9072 34.1433 49.4906 34.82 49.9039 35.68C50.3172 36.5333 50.5239 37.5067 50.5239 38.6C50.5239 39.68 50.3206 40.65 49.9139 41.51C49.5072 42.37 48.9339 43.05 48.1939 43.55C47.4539 44.05 46.5872 44.3 45.5939 44.3ZM40.3839 48.8V33.2H42.5139V40.78H42.8139V48.8H40.3839ZM45.2239 42.14C45.8506 42.14 46.3672 41.9833 46.7739 41.67C47.1806 41.3567 47.4806 40.9333 47.6739 40.4C47.8739 39.86 47.9739 39.26 47.9739 38.6C47.9739 37.9467 47.8739 37.3533 47.6739 36.82C47.4739 36.28 47.1639 35.8533 46.7439 35.54C46.3239 35.22 45.7906 35.06 45.1439 35.06C44.5306 35.06 44.0306 35.21 43.6439 35.51C43.2572 35.8033 42.9706 36.2167 42.7839 36.75C42.6039 37.2767 42.5139 37.8933 42.5139 38.6C42.5139 39.3 42.6039 39.9167 42.7839 40.45C42.9706 40.9833 43.2606 41.4 43.6539 41.7C44.0539 41.9933 44.5772 42.14 45.2239 42.14ZM55.7481 44.3C54.9681 44.3 54.3081 44.1533 53.7681 43.86C53.2281 43.56 52.8181 43.1633 52.5381 42.67C52.2648 42.1767 52.1281 41.6333 52.1281 41.04C52.1281 40.52 52.2148 40.0533 52.3881 39.64C52.5615 39.22 52.8281 38.86 53.1881 38.56C53.5481 38.2533 54.0148 38.0033 54.5881 37.81C55.0215 37.67 55.5281 37.5433 56.1081 37.43C56.6948 37.3167 57.3281 37.2133 58.0081 37.12C58.6948 37.02 59.4115 36.9133 60.1581 36.8L59.2981 37.29C59.3048 36.5433 59.1381 35.9933 58.7981 35.64C58.4581 35.2867 57.8848 35.11 57.0781 35.11C56.5915 35.11 56.1215 35.2233 55.6681 35.45C55.2148 35.6767 54.8981 36.0667 54.7181 36.62L52.5181 35.93C52.7848 35.0167 53.2915 34.2833 54.0381 33.73C54.7915 33.1767 55.8048 32.9 57.0781 32.9C58.0381 32.9 58.8815 33.0567 59.6081 33.37C60.3415 33.6833 60.8848 34.1967 61.2381 34.91C61.4315 35.29 61.5481 35.68 61.5881 36.08C61.6281 36.4733 61.6481 36.9033 61.6481 37.37V44H59.5381V41.66L59.8881 42.04C59.4015 42.82 58.8315 43.3933 58.1781 43.76C57.5315 44.12 56.7215 44.3 55.7481 44.3ZM56.2281 42.38C56.7748 42.38 57.2415 42.2833 57.6281 42.09C58.0148 41.8967 58.3215 41.66 58.5481 41.38C58.7815 41.1 58.9381 40.8367 59.0181 40.59C59.1448 40.2833 59.2148 39.9333 59.2281 39.54C59.2481 39.14 59.2581 38.8167 59.2581 38.57L59.9981 38.79C59.2715 38.9033 58.6481 39.0033 58.1281 39.09C57.6081 39.1767 57.1615 39.26 56.7881 39.34C56.4148 39.4133 56.0848 39.4967 55.7981 39.59C55.5181 39.69 55.2815 39.8067 55.0881 39.94C54.8948 40.0733 54.7448 40.2267 54.6381 40.4C54.5381 40.5733 54.4881 40.7767 54.4881 41.01C54.4881 41.2767 54.5548 41.5133 54.6881 41.72C54.8215 41.92 55.0148 42.08 55.2681 42.2C55.5281 42.32 55.8481 42.38 56.2281 42.38ZM68.5916 48.83C68.3249 48.83 68.0749 48.7933 67.8416 48.72C67.6149 48.6533 67.4049 48.57 67.2116 48.47L67.7416 47.04C68.0149 47.1333 68.2282 47.18 68.3816 47.18C68.5816 47.18 68.7349 47.12 68.8416 47C68.9549 46.8867 69.0116 46.7667 69.0116 46.64C69.0116 46.38 68.8782 46.19 68.6116 46.07C68.3516 45.95 68.0482 45.84 67.7016 45.74L68.4116 43.69L69.8716 43.68L69.4716 44.84C69.8582 45.0267 70.1582 45.2733 70.3716 45.58C70.5849 45.8867 70.6916 46.2567 70.6916 46.69C70.6916 47.3233 70.4816 47.8367 70.0616 48.23C69.6482 48.63 69.1582 48.83 68.5916 48.83ZM68.9416 44.3C67.8282 44.3 66.8782 44.0533 66.0916 43.56C65.3049 43.06 64.7016 42.38 64.2816 41.52C63.8682 40.66 63.6582 39.6867 63.6516 38.6C63.6582 37.4933 63.8749 36.5133 64.3016 35.66C64.7349 34.8 65.3482 34.1267 66.1416 33.64C66.9349 33.1467 67.8782 32.9 68.9716 32.9C70.1982 32.9 71.2349 33.21 72.0816 33.83C72.9349 34.4433 73.4916 35.2833 73.7516 36.35L71.3516 37C71.1649 36.42 70.8549 35.97 70.4216 35.65C69.9882 35.3233 69.4949 35.16 68.9416 35.16C68.3149 35.16 67.7982 35.31 67.3916 35.61C66.9849 35.9033 66.6849 36.31 66.4916 36.83C66.2982 37.35 66.2016 37.94 66.2016 38.6C66.2016 39.6267 66.4316 40.4567 66.8916 41.09C67.3516 41.7233 68.0349 42.04 68.9416 42.04C69.5816 42.04 70.0849 41.8933 70.4516 41.6C70.8249 41.3067 71.1049 40.8833 71.2916 40.33L73.7516 40.88C73.4182 41.98 72.8349 42.8267 72.0016 43.42C71.1682 44.0067 70.1482 44.3 68.9416 44.3ZM81.9297 31.6C81.6164 31.6 81.313 31.53 81.0197 31.39C80.733 31.25 80.4564 31.09 80.1897 30.91C79.9297 30.7233 79.683 30.56 79.4497 30.42C79.2164 30.28 79.003 30.21 78.8097 30.21C78.5964 30.21 78.4497 30.32 78.3697 30.54C78.2964 30.7533 78.303 31.0167 78.3897 31.33H76.8697C76.6764 30.53 76.723 29.8533 77.0097 29.3C77.2964 28.74 77.8264 28.46 78.5997 28.46C78.913 28.46 79.213 28.53 79.4997 28.67C79.793 28.81 80.073 28.9733 80.3397 29.16C80.6064 29.34 80.853 29.5 81.0797 29.64C81.313 29.78 81.5264 29.85 81.7197 29.85C81.933 29.85 82.0797 29.7433 82.1597 29.53C82.2397 29.31 82.2364 29.04 82.1497 28.72H83.6697C83.863 29.5133 83.8164 30.1933 83.5297 30.76C83.243 31.32 82.7097 31.6 81.9297 31.6ZM78.5997 44.3C77.8197 44.3 77.1597 44.1533 76.6197 43.86C76.0797 43.56 75.6697 43.1633 75.3897 42.67C75.1164 42.1767 74.9797 41.6333 74.9797 41.04C74.9797 40.52 75.0664 40.0533 75.2397 39.64C75.413 39.22 75.6797 38.86 76.0397 38.56C76.3997 38.2533 76.8664 38.0033 77.4397 37.81C77.873 37.67 78.3797 37.5433 78.9597 37.43C79.5464 37.3167 80.1797 37.2133 80.8597 37.12C81.5464 37.02 82.263 36.9133 83.0097 36.8L82.1497 37.29C82.1564 36.5433 81.9897 35.9933 81.6497 35.64C81.3097 35.2867 80.7364 35.11 79.9297 35.11C79.443 35.11 78.973 35.2233 78.5197 35.45C78.0664 35.6767 77.7497 36.0667 77.5697 36.62L75.3697 35.93C75.6364 35.0167 76.143 34.2833 76.8897 33.73C77.643 33.1767 78.6564 32.9 79.9297 32.9C80.8897 32.9 81.733 33.0567 82.4597 33.37C83.193 33.6833 83.7364 34.1967 84.0897 34.91C84.283 35.29 84.3997 35.68 84.4397 36.08C84.4797 36.4733 84.4997 36.9033 84.4997 37.37V44H82.3897V41.66L82.7397 42.04C82.253 42.82 81.683 43.3933 81.0297 43.76C80.383 44.12 79.573 44.3 78.5997 44.3ZM79.0797 42.38C79.6264 42.38 80.093 42.2833 80.4797 42.09C80.8664 41.8967 81.173 41.66 81.3997 41.38C81.633 41.1 81.7897 40.8367 81.8697 40.59C81.9964 40.2833 82.0664 39.9333 82.0797 39.54C82.0997 39.14 82.1097 38.8167 82.1097 38.57L82.8497 38.79C82.123 38.9033 81.4997 39.0033 80.9797 39.09C80.4597 39.1767 80.013 39.26 79.6397 39.34C79.2664 39.4133 78.9364 39.4967 78.6497 39.59C78.3697 39.69 78.133 39.8067 77.9397 39.94C77.7464 40.0733 77.5964 40.2267 77.4897 40.4C77.3897 40.5733 77.3397 40.7767 77.3397 41.01C77.3397 41.2767 77.4064 41.5133 77.5397 41.72C77.673 41.92 77.8664 42.08 78.1197 42.2C78.3797 42.32 78.6997 42.38 79.0797 42.38ZM91.8731 44.3C90.7931 44.3 89.8498 44.0567 89.0431 43.57C88.2365 43.0833 87.6098 42.4133 87.1631 41.56C86.7231 40.7 86.5031 39.7133 86.5031 38.6C86.5031 37.4667 86.7298 36.4733 87.1831 35.62C87.6365 34.7667 88.2665 34.1 89.0731 33.62C89.8798 33.14 90.8131 32.9 91.8731 32.9C92.9598 32.9 93.9065 33.1433 94.7131 33.63C95.5198 34.1167 96.1465 34.79 96.5931 35.65C97.0398 36.5033 97.2631 37.4867 97.2631 38.6C97.2631 39.72 97.0365 40.71 96.5831 41.57C96.1365 42.4233 95.5098 43.0933 94.7031 43.58C93.8965 44.06 92.9531 44.3 91.8731 44.3ZM91.8731 42.04C92.8331 42.04 93.5465 41.72 94.0131 41.08C94.4798 40.44 94.7131 39.6133 94.7131 38.6C94.7131 37.5533 94.4765 36.72 94.0031 36.1C93.5298 35.4733 92.8198 35.16 91.8731 35.16C91.2265 35.16 90.6931 35.3067 90.2731 35.6C89.8598 35.8867 89.5531 36.29 89.3531 36.81C89.1531 37.3233 89.0531 37.92 89.0531 38.6C89.0531 39.6467 89.2898 40.4833 89.7631 41.11C90.2431 41.73 90.9465 42.04 91.8731 42.04ZM100.266 42.7V40.23H102.736V42.7H100.266ZM100.286 36.97V34.5H102.756V36.97H100.286Z" fill="#10002B"/>
<path d="M71.7019 16.3C70.6019 16.3 69.6852 16.0133 68.9519 15.44C68.2252 14.8667 67.7152 14.0933 67.4219 13.12L69.8019 12.55C69.8752 12.9567 70.0885 13.3067 70.4419 13.6C70.7952 13.8933 71.1852 14.04 71.6119 14.04C71.8919 14.04 72.1885 13.9667 72.5019 13.82C72.8152 13.6667 73.0485 13.4233 73.2019 13.09C73.2952 12.8767 73.3485 12.6233 73.3619 12.33C73.3819 12.03 73.3919 11.6833 73.3919 11.29V1.6H75.8319V11.29C75.8319 11.7367 75.8285 12.13 75.8219 12.47C75.8219 12.8033 75.7885 13.12 75.7219 13.42C75.6619 13.7133 75.5385 14.0167 75.3519 14.33C74.9585 15.01 74.4452 15.51 73.8119 15.83C73.1785 16.1433 72.4752 16.3 71.7019 16.3ZM83.6114 16.3C82.5314 16.3 81.5881 16.0567 80.7814 15.57C79.9747 15.0833 79.3481 14.4133 78.9014 13.56C78.4614 12.7 78.2414 11.7133 78.2414 10.6C78.2414 9.46667 78.4681 8.47333 78.9214 7.62C79.3747 6.76667 80.0047 6.1 80.8114 5.62C81.6181 5.14 82.5514 4.9 83.6114 4.9C84.6981 4.9 85.6447 5.14333 86.4514 5.63C87.2581 6.11667 87.8847 6.79 88.3314 7.65C88.7781 8.50333 89.0014 9.48667 89.0014 10.6C89.0014 11.72 88.7747 12.71 88.3214 13.57C87.8747 14.4233 87.2481 15.0933 86.4414 15.58C85.6347 16.06 84.6914 16.3 83.6114 16.3ZM83.6114 14.04C84.5714 14.04 85.2847 13.72 85.7514 13.08C86.2181 12.44 86.4514 11.6133 86.4514 10.6C86.4514 9.55333 86.2147 8.72 85.7414 8.1C85.2681 7.47333 84.5581 7.16 83.6114 7.16C82.9647 7.16 82.4314 7.30667 82.0114 7.6C81.5981 7.88667 81.2914 8.29 81.0914 8.81C80.8914 9.32333 80.7914 9.92 80.7914 10.6C80.7914 11.6467 81.0281 12.4833 81.5014 13.11C81.9814 13.73 82.6847 14.04 83.6114 14.04ZM97.5547 3.6C97.2414 3.6 96.938 3.53 96.6447 3.39C96.358 3.25 96.0814 3.09 95.8147 2.91C95.5547 2.72333 95.308 2.56 95.0747 2.42C94.8414 2.28 94.628 2.21 94.4347 2.21C94.2214 2.21 94.0747 2.32 93.9947 2.54C93.9214 2.75333 93.928 3.01667 94.0147 3.33H92.4947C92.3014 2.53 92.348 1.85333 92.6347 1.3C92.9214 0.74 93.4514 0.46 94.2247 0.46C94.538 0.46 94.838 0.529999 95.1247 0.669999C95.418 0.809999 95.698 0.973332 95.9647 1.16C96.2314 1.34 96.478 1.5 96.7047 1.64C96.938 1.78 97.1514 1.85 97.3447 1.85C97.558 1.85 97.7047 1.74333 97.7847 1.53C97.8647 1.31 97.8614 1.04 97.7747 0.719999H99.2947C99.488 1.51333 99.4414 2.19333 99.1547 2.76C98.868 3.32 98.3347 3.6 97.5547 3.6ZM94.2247 16.3C93.4447 16.3 92.7847 16.1533 92.2447 15.86C91.7047 15.56 91.2947 15.1633 91.0147 14.67C90.7414 14.1767 90.6047 13.6333 90.6047 13.04C90.6047 12.52 90.6914 12.0533 90.8647 11.64C91.038 11.22 91.3047 10.86 91.6647 10.56C92.0247 10.2533 92.4914 10.0033 93.0647 9.81C93.498 9.67 94.0047 9.54333 94.5847 9.43C95.1714 9.31667 95.8047 9.21333 96.4847 9.12C97.1714 9.02 97.888 8.91333 98.6347 8.8L97.7747 9.29C97.7814 8.54333 97.6147 7.99333 97.2747 7.64C96.9347 7.28667 96.3614 7.11 95.5547 7.11C95.068 7.11 94.598 7.22333 94.1447 7.45C93.6914 7.67667 93.3747 8.06667 93.1947 8.62L90.9947 7.93C91.2614 7.01667 91.768 6.28333 92.5147 5.73C93.268 5.17667 94.2814 4.9 95.5547 4.9C96.5147 4.9 97.358 5.05667 98.0847 5.37C98.818 5.68333 99.3614 6.19667 99.7147 6.91C99.908 7.29 100.025 7.68 100.065 8.08C100.105 8.47333 100.125 8.90333 100.125 9.37V16H98.0147V13.66L98.3647 14.04C97.878 14.82 97.308 15.3933 96.6547 15.76C96.008 16.12 95.198 16.3 94.2247 16.3ZM94.7047 14.38C95.2514 14.38 95.718 14.2833 96.1047 14.09C96.4914 13.8967 96.798 13.66 97.0247 13.38C97.258 13.1 97.4147 12.8367 97.4947 12.59C97.6214 12.2833 97.6914 11.9333 97.7047 11.54C97.7247 11.14 97.7347 10.8167 97.7347 10.57L98.4747 10.79C97.748 10.9033 97.1247 11.0033 96.6047 11.09C96.0847 11.1767 95.638 11.26 95.2647 11.34C94.8914 11.4133 94.5614 11.4967 94.2747 11.59C93.9947 11.69 93.758 11.8067 93.5647 11.94C93.3714 12.0733 93.2214 12.2267 93.1147 12.4C93.0147 12.5733 92.9647 12.7767 92.9647 13.01C92.9647 13.2767 93.0314 13.5133 93.1647 13.72C93.298 13.92 93.4914 14.08 93.7447 14.2C94.0047 14.32 94.3247 14.38 94.7047 14.38ZM107.498 16.3C106.418 16.3 105.475 16.0567 104.668 15.57C103.861 15.0833 103.235 14.4133 102.788 13.56C102.348 12.7 102.128 11.7133 102.128 10.6C102.128 9.46667 102.355 8.47333 102.808 7.62C103.261 6.76667 103.891 6.1 104.698 5.62C105.505 5.14 106.438 4.9 107.498 4.9C108.585 4.9 109.531 5.14333 110.338 5.63C111.145 6.11667 111.771 6.79 112.218 7.65C112.665 8.50333 112.888 9.48667 112.888 10.6C112.888 11.72 112.661 12.71 112.208 13.57C111.761 14.4233 111.135 15.0933 110.328 15.58C109.521 16.06 108.578 16.3 107.498 16.3ZM107.498 14.04C108.458 14.04 109.171 13.72 109.638 13.08C110.105 12.44 110.338 11.6133 110.338 10.6C110.338 9.55333 110.101 8.72 109.628 8.1C109.155 7.47333 108.445 7.16 107.498 7.16C106.851 7.16 106.318 7.30667 105.898 7.6C105.485 7.88667 105.178 8.29 104.978 8.81C104.778 9.32333 104.678 9.92 104.678 10.6C104.678 11.6467 104.915 12.4833 105.388 13.11C105.868 13.73 106.571 14.04 107.498 14.04ZM113.701 16V15.67L119.421 7.31H114.281V5.2H123.171V5.54L117.471 13.89H122.931V16H113.701ZM125.565 3.56V1.35H127.975V3.56H125.565ZM125.565 16V5.2H127.975V16H125.565ZM138.44 16V10.8C138.44 10.46 138.417 10.0833 138.37 9.67C138.324 9.25667 138.214 8.86 138.04 8.48C137.874 8.09333 137.62 7.77667 137.28 7.53C136.947 7.28333 136.494 7.16 135.92 7.16C135.614 7.16 135.31 7.21 135.01 7.31C134.71 7.41 134.437 7.58333 134.19 7.83C133.95 8.07 133.757 8.40333 133.61 8.83C133.464 9.25 133.39 9.79 133.39 10.45L131.96 9.84C131.96 8.92 132.137 8.08667 132.49 7.34C132.85 6.59333 133.377 6 134.07 5.56C134.764 5.11333 135.617 4.89 136.63 4.89C137.43 4.89 138.09 5.02333 138.61 5.29C139.13 5.55667 139.544 5.89667 139.85 6.31C140.157 6.72333 140.384 7.16333 140.53 7.63C140.677 8.09667 140.77 8.54 140.81 8.96C140.857 9.37333 140.88 9.71 140.88 9.97V16H138.44ZM130.95 16V5.2H133.1V8.55H133.39V16H130.95ZM150.96 16V10.8C150.96 10.46 150.937 10.0833 150.89 9.67C150.843 9.25667 150.733 8.86 150.56 8.48C150.393 8.09333 150.14 7.77667 149.8 7.53C149.467 7.28333 149.013 7.16 148.44 7.16C148.133 7.16 147.83 7.21 147.53 7.31C147.23 7.41 146.957 7.58333 146.71 7.83C146.47 8.07 146.277 8.40333 146.13 8.83C145.983 9.25 145.91 9.79 145.91 10.45L144.48 9.84C144.48 8.92 144.657 8.08667 145.01 7.34C145.37 6.59333 145.897 6 146.59 5.56C147.283 5.11333 148.137 4.89 149.15 4.89C149.95 4.89 150.61 5.02333 151.13 5.29C151.65 5.55667 152.063 5.89667 152.37 6.31C152.677 6.72333 152.903 7.16333 153.05 7.63C153.197 8.09667 153.29 8.54 153.33 8.96C153.377 9.37333 153.4 9.71 153.4 9.97V16H150.96ZM143.47 16V1.6H145.62V9.18H145.91V16H143.47ZM160.779 16.3C159.699 16.3 158.756 16.0567 157.949 15.57C157.143 15.0833 156.516 14.4133 156.069 13.56C155.629 12.7 155.409 11.7133 155.409 10.6C155.409 9.46667 155.636 8.47333 156.089 7.62C156.543 6.76667 157.173 6.1 157.979 5.62C158.786 5.14 159.719 4.9 160.779 4.9C161.866 4.9 162.813 5.14333 163.619 5.63C164.426 6.11667 165.053 6.79 165.499 7.65C165.946 8.50333 166.169 9.48667 166.169 10.6C166.169 11.72 165.943 12.71 165.489 13.57C165.043 14.4233 164.416 15.0933 163.609 15.58C162.803 16.06 161.859 16.3 160.779 16.3ZM160.779 14.04C161.739 14.04 162.453 13.72 162.919 13.08C163.386 12.44 163.619 11.6133 163.619 10.6C163.619 9.55333 163.383 8.72 162.909 8.1C162.436 7.47333 161.726 7.16 160.779 7.16C160.133 7.16 159.599 7.30667 159.179 7.6C158.766 7.88667 158.459 8.29 158.259 8.81C158.059 9.32333 157.959 9.92 157.959 10.6C157.959 11.6467 158.196 12.4833 158.669 13.11C159.149 13.73 159.853 14.04 160.779 14.04ZM109.326 44L113.866 29.6H117.396L121.936 44H119.456L115.336 31.08H115.876L111.806 44H109.326ZM111.856 40.88V38.63H119.416V40.88H111.856ZM123.944 44V29.3H126.354V44H123.944ZM133.399 44.31C132.599 44.31 131.939 44.1767 131.419 43.91C130.899 43.6433 130.486 43.3033 130.179 42.89C129.873 42.4767 129.646 42.0367 129.499 41.57C129.353 41.1033 129.256 40.6633 129.209 40.25C129.169 39.83 129.149 39.49 129.149 39.23V33.2H131.589V38.4C131.589 38.7333 131.613 39.11 131.659 39.53C131.706 39.9433 131.813 40.3433 131.979 40.73C132.153 41.11 132.406 41.4233 132.739 41.67C133.079 41.9167 133.536 42.04 134.109 42.04C134.416 42.04 134.719 41.99 135.019 41.89C135.319 41.79 135.589 41.62 135.829 41.38C136.076 41.1333 136.273 40.7967 136.419 40.37C136.566 39.9433 136.639 39.4033 136.639 38.75L138.069 39.36C138.069 40.28 137.889 41.1133 137.529 41.86C137.176 42.6067 136.653 43.2033 135.959 43.65C135.266 44.09 134.413 44.31 133.399 44.31ZM136.929 44V40.65H136.639V33.2H139.059V44H136.929ZM149.339 44V38.8C149.339 38.46 149.315 38.0833 149.269 37.67C149.222 37.2567 149.112 36.86 148.939 36.48C148.772 36.0933 148.519 35.7767 148.179 35.53C147.845 35.2833 147.392 35.16 146.819 35.16C146.512 35.16 146.209 35.21 145.909 35.31C145.609 35.41 145.335 35.5833 145.089 35.83C144.849 36.07 144.655 36.4033 144.509 36.83C144.362 37.25 144.289 37.79 144.289 38.45L142.859 37.84C142.859 36.92 143.035 36.0867 143.389 35.34C143.749 34.5933 144.275 34 144.969 33.56C145.662 33.1133 146.515 32.89 147.529 32.89C148.329 32.89 148.989 33.0233 149.509 33.29C150.029 33.5567 150.442 33.8967 150.749 34.31C151.055 34.7233 151.282 35.1633 151.429 35.63C151.575 36.0967 151.669 36.54 151.709 36.96C151.755 37.3733 151.779 37.71 151.779 37.97V44H149.339ZM141.849 44V33.2H143.999V36.55H144.289V44H141.849ZM158.983 44.3C157.903 44.3 156.959 44.0567 156.153 43.57C155.346 43.0833 154.719 42.4133 154.273 41.56C153.833 40.7 153.613 39.7133 153.613 38.6C153.613 37.4667 153.839 36.4733 154.293 35.62C154.746 34.7667 155.376 34.1 156.183 33.62C156.989 33.14 157.923 32.9 158.983 32.9C160.069 32.9 161.016 33.1433 161.823 33.63C162.629 34.1167 163.256 34.79 163.703 35.65C164.149 36.5033 164.373 37.4867 164.373 38.6C164.373 39.72 164.146 40.71 163.693 41.57C163.246 42.4233 162.619 43.0933 161.813 43.58C161.006 44.06 160.063 44.3 158.983 44.3ZM158.983 42.04C159.943 42.04 160.656 41.72 161.123 41.08C161.589 40.44 161.823 39.6133 161.823 38.6C161.823 37.5533 161.586 36.72 161.113 36.1C160.639 35.4733 159.929 35.16 158.983 35.16C158.336 35.16 157.803 35.3067 157.383 35.6C156.969 35.8867 156.663 36.29 156.463 36.81C156.263 37.3233 156.163 37.92 156.163 38.6C156.163 39.6467 156.399 40.4833 156.873 41.11C157.353 41.73 158.056 42.04 158.983 42.04ZM106.537 72V57.6H111.127C111.247 57.6 111.483 57.6033 111.837 57.61C112.197 57.6167 112.543 57.64 112.877 57.68C114.017 57.8267 114.98 58.2333 115.767 58.9C116.56 59.56 117.16 60.4033 117.567 61.43C117.973 62.4567 118.177 63.58 118.177 64.8C118.177 66.02 117.973 67.1433 117.567 68.17C117.16 69.1967 116.56 70.0433 115.767 70.71C114.98 71.37 114.017 71.7733 112.877 71.92C112.55 71.96 112.207 71.9833 111.847 71.99C111.487 71.9967 111.247 72 111.127 72H106.537ZM108.987 69.73H111.127C111.327 69.73 111.58 69.7233 111.887 69.71C112.2 69.6967 112.477 69.6667 112.717 69.62C113.397 69.4933 113.95 69.19 114.377 68.71C114.803 68.23 115.117 67.6467 115.317 66.96C115.523 66.2733 115.627 65.5533 115.627 64.8C115.627 64.02 115.523 63.2867 115.317 62.6C115.11 61.9133 114.79 61.3367 114.357 60.87C113.93 60.4033 113.383 60.1067 112.717 59.98C112.477 59.9267 112.2 59.8967 111.887 59.89C111.58 59.8767 111.327 59.87 111.127 59.87H108.987V69.73ZM125.871 72.3C124.817 72.3 123.867 72.1167 123.021 71.75C122.181 71.3833 121.487 70.86 120.941 70.18C120.401 69.4933 120.057 68.68 119.911 67.74L122.411 67.36C122.624 68.2133 123.061 68.8733 123.721 69.34C124.387 69.8067 125.154 70.04 126.021 70.04C126.534 70.04 127.017 69.96 127.471 69.8C127.924 69.64 128.291 69.4067 128.571 69.1C128.857 68.7933 129.001 68.4167 129.001 67.97C129.001 67.77 128.967 67.5867 128.901 67.42C128.834 67.2467 128.734 67.0933 128.601 66.96C128.474 66.8267 128.307 66.7067 128.101 66.6C127.901 66.4867 127.667 66.39 127.401 66.31L123.681 65.21C123.361 65.1167 123.014 64.9933 122.641 64.84C122.274 64.68 121.924 64.4633 121.591 64.19C121.264 63.91 120.994 63.5567 120.781 63.13C120.574 62.6967 120.471 62.1633 120.471 61.53C120.471 60.6033 120.704 59.8267 121.171 59.2C121.644 58.5667 122.277 58.0933 123.071 57.78C123.871 57.4667 124.757 57.3133 125.731 57.32C126.717 57.3267 127.597 57.4967 128.371 57.83C129.144 58.1567 129.791 58.6333 130.311 59.26C130.831 59.8867 131.197 60.6433 131.411 61.53L128.821 61.98C128.714 61.4733 128.507 61.0433 128.201 60.69C127.901 60.33 127.531 60.0567 127.091 59.87C126.657 59.6833 126.194 59.5833 125.701 59.57C125.221 59.5633 124.774 59.6367 124.361 59.79C123.954 59.9367 123.624 60.15 123.371 60.43C123.124 60.71 123.001 61.0367 123.001 61.41C123.001 61.7633 123.107 62.0533 123.321 62.28C123.534 62.5 123.797 62.6767 124.111 62.81C124.431 62.9367 124.754 63.0433 125.081 63.13L127.661 63.85C128.014 63.9433 128.411 64.07 128.851 64.23C129.291 64.39 129.714 64.6133 130.121 64.9C130.527 65.1867 130.861 65.5633 131.121 66.03C131.387 66.4967 131.521 67.09 131.521 67.81C131.521 68.5567 131.364 69.2133 131.051 69.78C130.744 70.34 130.327 70.8067 129.801 71.18C129.274 71.5533 128.671 71.8333 127.991 72.02C127.317 72.2067 126.611 72.3 125.871 72.3ZM137.889 72V57.6H140.299V72H137.889ZM143.495 72V57.6H145.905V72H143.495ZM149.1 72V57.6H151.51V72H149.1Z" fill="#646464"/>
<path d="M7.49 72.3C6.05 72.3 4.81667 71.9867 3.79 71.36C2.76333 70.7267 1.97333 69.8467 1.42 68.72C0.873333 67.5933 0.6 66.2867 0.6 64.8C0.6 63.3133 0.873333 62.0067 1.42 60.88C1.97333 59.7533 2.76333 58.8767 3.79 58.25C4.81667 57.6167 6.05 57.3 7.49 57.3C9.15 57.3 10.5333 57.7167 11.64 58.55C12.7467 59.3767 13.5233 60.4933 13.97 61.9L11.54 62.57C11.26 61.63 10.7833 60.8967 10.11 60.37C9.43667 59.8367 8.56333 59.57 7.49 59.57C6.52333 59.57 5.71667 59.7867 5.07 60.22C4.43 60.6533 3.94667 61.2633 3.62 62.05C3.3 62.83 3.13667 63.7467 3.13 64.8C3.13 65.8533 3.29 66.7733 3.61 67.56C3.93667 68.34 4.42333 68.9467 5.07 69.38C5.71667 69.8133 6.52333 70.03 7.49 70.03C8.56333 70.03 9.43667 69.7633 10.11 69.23C10.7833 68.6967 11.26 67.9633 11.54 67.03L13.97 67.7C13.5233 69.1067 12.7467 70.2267 11.64 71.06C10.5333 71.8867 9.15 72.3 7.49 72.3ZM20.2156 72.31C19.4156 72.31 18.7556 72.1767 18.2356 71.91C17.7156 71.6433 17.3023 71.3033 16.9956 70.89C16.689 70.4767 16.4623 70.0367 16.3156 69.57C16.169 69.1033 16.0723 68.6633 16.0256 68.25C15.9856 67.83 15.9656 67.49 15.9656 67.23V61.2H18.4056V66.4C18.4056 66.7333 18.429 67.11 18.4756 67.53C18.5223 67.9433 18.629 68.3433 18.7956 68.73C18.969 69.11 19.2223 69.4233 19.5556 69.67C19.8956 69.9167 20.3523 70.04 20.9256 70.04C21.2323 70.04 21.5356 69.99 21.8356 69.89C22.1356 69.79 22.4056 69.62 22.6456 69.38C22.8923 69.1333 23.089 68.7967 23.2356 68.37C23.3823 67.9433 23.4556 67.4033 23.4556 66.75L24.8856 67.36C24.8856 68.28 24.7056 69.1133 24.3456 69.86C23.9923 70.6067 23.469 71.2033 22.7756 71.65C22.0823 72.09 21.229 72.31 20.2156 72.31ZM23.7456 72V68.65H23.4556V61.2H25.8756V72H23.7456ZM28.6852 72V61.2H30.8152V63.83L30.5552 63.49C30.6885 63.13 30.8652 62.8033 31.0852 62.51C31.3118 62.21 31.5818 61.9633 31.8952 61.77C32.1618 61.59 32.4552 61.45 32.7752 61.35C33.1018 61.2433 33.4352 61.18 33.7752 61.16C34.1152 61.1333 34.4452 61.1467 34.7652 61.2V63.45C34.4452 63.3567 34.0752 63.3267 33.6552 63.36C33.2418 63.3933 32.8685 63.51 32.5352 63.71C32.2018 63.89 31.9285 64.12 31.7152 64.4C31.5085 64.68 31.3552 65 31.2552 65.36C31.1552 65.7133 31.1052 66.0967 31.1052 66.51V72H28.6852ZM40.4528 72.3C39.1195 72.3 38.0361 72 37.2028 71.4C36.3695 70.8 35.8628 69.9567 35.6828 68.87L38.1428 68.49C38.2695 69.0233 38.5495 69.4433 38.9828 69.75C39.4161 70.0567 39.9628 70.21 40.6228 70.21C41.2028 70.21 41.6495 70.0967 41.9628 69.87C42.2828 69.6367 42.4428 69.32 42.4428 68.92C42.4428 68.6733 42.3828 68.4767 42.2628 68.33C42.1495 68.1767 41.8961 68.03 41.5028 67.89C41.1095 67.75 40.5061 67.5733 39.6928 67.36C38.7861 67.12 38.0661 66.8633 37.5328 66.59C36.9995 66.31 36.6161 65.98 36.3828 65.6C36.1495 65.22 36.0328 64.76 36.0328 64.22C36.0328 63.5467 36.2095 62.96 36.5628 62.46C36.9161 61.96 37.4095 61.5767 38.0428 61.31C38.6761 61.0367 39.4228 60.9 40.2828 60.9C41.1228 60.9 41.8661 61.03 42.5128 61.29C43.1661 61.55 43.6928 61.92 44.0928 62.4C44.4928 62.88 44.7395 63.4433 44.8328 64.09L42.3728 64.53C42.3128 64.07 42.1028 63.7067 41.7428 63.44C41.3895 63.1733 40.9161 63.0233 40.3228 62.99C39.7561 62.9567 39.2995 63.0433 38.9528 63.25C38.6061 63.45 38.4328 63.7333 38.4328 64.1C38.4328 64.3067 38.5028 64.4833 38.6428 64.63C38.7828 64.7767 39.0628 64.9233 39.4828 65.07C39.9095 65.2167 40.5428 65.3967 41.3828 65.61C42.2428 65.83 42.9295 66.0833 43.4428 66.37C43.9628 66.65 44.3361 66.9867 44.5628 67.38C44.7961 67.7733 44.9128 68.25 44.9128 68.81C44.9128 69.8967 44.5161 70.75 43.7228 71.37C42.9361 71.99 41.8461 72.3 40.4528 72.3ZM50.1231 72.3C49.3431 72.3 48.6831 72.1533 48.1431 71.86C47.6031 71.56 47.1931 71.1633 46.9131 70.67C46.6398 70.1767 46.5031 69.6333 46.5031 69.04C46.5031 68.52 46.5898 68.0533 46.7631 67.64C46.9365 67.22 47.2031 66.86 47.5631 66.56C47.9231 66.2533 48.3898 66.0033 48.9631 65.81C49.3965 65.67 49.9031 65.5433 50.4831 65.43C51.0698 65.3167 51.7031 65.2133 52.3831 65.12C53.0698 65.02 53.7865 64.9133 54.5331 64.8L53.6731 65.29C53.6798 64.5433 53.5131 63.9933 53.1731 63.64C52.8331 63.2867 52.2598 63.11 51.4531 63.11C50.9665 63.11 50.4965 63.2233 50.0431 63.45C49.5898 63.6767 49.2731 64.0667 49.0931 64.62L46.8931 63.93C47.1598 63.0167 47.6665 62.2833 48.4131 61.73C49.1665 61.1767 50.1798 60.9 51.4531 60.9C52.4131 60.9 53.2565 61.0567 53.9831 61.37C54.7165 61.6833 55.2598 62.1967 55.6131 62.91C55.8065 63.29 55.9231 63.68 55.9631 64.08C56.0031 64.4733 56.0231 64.9033 56.0231 65.37V72H53.9131V69.66L54.2631 70.04C53.7765 70.82 53.2065 71.3933 52.5531 71.76C51.9065 72.12 51.0965 72.3 50.1231 72.3ZM50.6031 70.38C51.1498 70.38 51.6165 70.2833 52.0031 70.09C52.3898 69.8967 52.6965 69.66 52.9231 69.38C53.1565 69.1 53.3131 68.8367 53.3931 68.59C53.5198 68.2833 53.5898 67.9333 53.6031 67.54C53.6231 67.14 53.6331 66.8167 53.6331 66.57L54.3731 66.79C53.6465 66.9033 53.0231 67.0033 52.5031 67.09C51.9831 67.1767 51.5365 67.26 51.1631 67.34C50.7898 67.4133 50.4598 67.4967 50.1731 67.59C49.8931 67.69 49.6565 67.8067 49.4631 67.94C49.2698 68.0733 49.1198 68.2267 49.0131 68.4C48.9131 68.5733 48.8631 68.7767 48.8631 69.01C48.8631 69.2767 48.9298 69.5133 49.0631 69.72C49.1965 69.92 49.3898 70.08 49.6431 70.2C49.9031 70.32 50.2231 70.38 50.6031 70.38ZM66.0966 72V66.8C66.0966 66.46 66.0732 66.0833 66.0266 65.67C65.9799 65.2567 65.8699 64.86 65.6966 64.48C65.5299 64.0933 65.2766 63.7767 64.9366 63.53C64.6032 63.2833 64.1499 63.16 63.5766 63.16C63.2699 63.16 62.9666 63.21 62.6666 63.31C62.3666 63.41 62.0932 63.5833 61.8466 63.83C61.6066 64.07 61.4132 64.4033 61.2666 64.83C61.1199 65.25 61.0466 65.79 61.0466 66.45L59.6166 65.84C59.6166 64.92 59.7932 64.0867 60.1466 63.34C60.5066 62.5933 61.0332 62 61.7266 61.56C62.4199 61.1133 63.2732 60.89 64.2866 60.89C65.0866 60.89 65.7466 61.0233 66.2666 61.29C66.7866 61.5567 67.1999 61.8967 67.5066 62.31C67.8132 62.7233 68.0399 63.1633 68.1866 63.63C68.3332 64.0967 68.4266 64.54 68.4666 64.96C68.5132 65.3733 68.5366 65.71 68.5366 65.97V72H66.0966ZM58.6066 72V61.2H60.7566V64.55H61.0466V72H58.6066ZM75.3003 72.3C74.307 72.3 73.4403 72.05 72.7003 71.55C71.9603 71.05 71.387 70.37 70.9803 69.51C70.5736 68.65 70.3703 67.68 70.3703 66.6C70.3703 65.5067 70.5736 64.5333 70.9803 63.68C71.3936 62.82 71.977 62.1433 72.7303 61.65C73.4836 61.15 74.3703 60.9 75.3903 60.9C76.417 60.9 77.277 61.15 77.9703 61.65C78.6703 62.1433 79.2003 62.82 79.5603 63.68C79.9203 64.54 80.1003 65.5133 80.1003 66.6C80.1003 67.6733 79.9203 68.6433 79.5603 69.51C79.2003 70.37 78.6636 71.05 77.9503 71.55C77.237 72.05 76.3536 72.3 75.3003 72.3ZM75.6703 70.14C76.317 70.14 76.837 69.9933 77.2303 69.7C77.6303 69.4 77.9203 68.9833 78.1003 68.45C78.287 67.9167 78.3803 67.3 78.3803 66.6C78.3803 65.8933 78.287 65.2767 78.1003 64.75C77.9203 64.2167 77.637 63.8033 77.2503 63.51C76.8636 63.21 76.3636 63.06 75.7503 63.06C75.1036 63.06 74.5703 63.22 74.1503 63.54C73.7303 63.8533 73.4203 64.28 73.2203 64.82C73.0203 65.3533 72.9203 65.9467 72.9203 66.6C72.9203 67.26 73.017 67.86 73.2103 68.4C73.4103 68.9333 73.7136 69.3567 74.1203 69.67C74.527 69.9833 75.0436 70.14 75.6703 70.14ZM78.3803 72V64.42H78.0803V57.6H80.5103V72H78.3803ZM88.0841 72.3C87.0041 72.3 86.0607 72.0567 85.2541 71.57C84.4474 71.0833 83.8207 70.4133 83.3741 69.56C82.9341 68.7 82.7141 67.7133 82.7141 66.6C82.7141 65.4667 82.9407 64.4733 83.3941 63.62C83.8474 62.7667 84.4774 62.1 85.2841 61.62C86.0907 61.14 87.0241 60.9 88.0841 60.9C89.1707 60.9 90.1174 61.1433 90.9241 61.63C91.7307 62.1167 92.3574 62.79 92.8041 63.65C93.2507 64.5033 93.4741 65.4867 93.4741 66.6C93.4741 67.72 93.2474 68.71 92.7941 69.57C92.3474 70.4233 91.7207 71.0933 90.9141 71.58C90.1074 72.06 89.1641 72.3 88.0841 72.3ZM88.0841 70.04C89.0441 70.04 89.7574 69.72 90.2241 69.08C90.6907 68.44 90.9241 67.6133 90.9241 66.6C90.9241 65.5533 90.6874 64.72 90.2141 64.1C89.7407 63.4733 89.0307 63.16 88.0841 63.16C87.4374 63.16 86.9041 63.3067 86.4841 63.6C86.0707 63.8867 85.7641 64.29 85.5641 64.81C85.3641 65.3233 85.2641 65.92 85.2641 66.6C85.2641 67.6467 85.5007 68.4833 85.9741 69.11C86.4541 69.73 87.1574 70.04 88.0841 70.04ZM96.4773 70.7V68.23H98.9473V70.7H96.4773ZM96.4973 64.97V62.5H98.9673V64.97H96.4973Z" fill="#240046"/>
</svg>
