<svg width="100" height="100" viewBox="0 0 100 100" fill="none" xmlns="http://www.w3.org/2000/svg">
<ellipse cx="50" cy="52.0508" rx="50" ry="47.9492" fill="#F9DAFB"/>
<path d="M96.3408 45.7734C96.3408 44.1166 94.9977 42.7734 93.3408 42.7734H69.4628C67.8059 42.7734 66.4628 44.1166 66.4628 45.7734V90.3594C66.4628 92.0162 67.8059 93.3594 69.4628 93.3594H74.5872C75.0586 93.3594 75.5227 93.2492 75.94 93.0299C76.7184 92.6209 78.0461 91.9044 78.9628 91.3086C80.8712 90.0681 83.4445 87.7605 83.7996 87.4397C83.8281 87.414 83.8545 87.3889 83.8819 87.3619L88.1093 83.2052C88.1769 83.1387 88.2399 83.0708 88.3005 82.998C88.8185 82.3755 91.4524 79.18 92.8855 76.8555C94.1286 74.8392 95.5365 71.7456 96.0944 70.4854C96.2587 70.1142 96.3408 69.7126 96.3408 69.3066V45.7734Z" fill="#B376D4"/>
<rect width="4.87805" height="8.20312" rx="1" transform="matrix(-1 0 0 1 93.2915 46.6797)" fill="white"/>
<rect width="4.87805" height="8.20312" rx="1" transform="matrix(-1 0 0 1 84.7563 46.6797)" fill="white"/>
<rect width="4.87805" height="8.20312" rx="1" transform="matrix(-1 0 0 1 76.2188 46.6797)" fill="white"/>
<rect width="4.87805" height="8.20312" rx="1" transform="matrix(-1 0 0 1 93.2915 58.3984)" fill="white"/>
<rect width="4.87805" height="8.20312" rx="1" transform="matrix(-1 0 0 1 84.7563 58.3984)" fill="white"/>
<rect width="4.87805" height="8.20312" rx="1" transform="matrix(-1 0 0 1 76.2188 58.3984)" fill="white"/>
<path d="M93.2915 71.1172C93.2915 70.5649 92.8438 70.1172 92.2915 70.1172H89.4135C88.8612 70.1172 88.4135 70.5649 88.4135 71.1172V77.3203C88.4135 77.8726 88.8612 78.3203 89.4135 78.3203H91.3168C91.6032 78.3203 91.8766 78.1983 92.0597 77.9782C92.1994 77.8104 92.3612 77.6089 92.4785 77.4414C92.7463 77.0591 93.0441 76.4802 93.194 76.1774C93.2593 76.0454 93.2915 75.9002 93.2915 75.753V71.1172Z" fill="white"/>
<rect width="4.87805" height="8.20312" rx="1" transform="matrix(-1 0 0 1 84.7563 70.1172)" fill="white"/>
<rect width="4.87805" height="8.20312" rx="1" transform="matrix(-1 0 0 1 76.2188 70.1172)" fill="white"/>
<path d="M71.34 87.0117C71.34 90.086 72.6578 91.6016 75.9132 91.6016C79.1685 91.6016 82.8237 89.1094 82.8237 86.0352C82.8237 82.9609 80.4896 81.4453 77.2343 81.4453C73.979 81.4453 71.34 83.9375 71.34 87.0117Z" fill="#00881F"/>
<path d="M83.4893 87.6953H66.4634V93.3594H75.3049C75.3049 93.3594 77.7736 92.009 79.2683 91.0156C81.0576 89.8264 83.4893 87.6953 83.4893 87.6953Z" fill="#DB722C"/>
<path d="M84.8579 83.6915C85.807 83.5836 87.2969 83.8868 87.2969 83.8868L83.2318 87.6954H79.8782C79.8782 87.6954 80.1338 86.4759 80.5896 85.8399C81.2019 84.9855 81.8475 84.7172 82.8253 84.2774C83.5759 83.9398 84.0349 83.7849 84.8579 83.6915Z" fill="#75C682"/>
<path d="M3.65845 45.7734C3.65845 44.1166 5.00159 42.7734 6.65845 42.7734H30.5365C32.1934 42.7734 33.5365 44.1166 33.5365 45.7734V90.3594C33.5365 92.0162 32.1933 93.3594 30.5365 93.3594H25.4121C24.9407 93.3594 24.4766 93.2492 24.0593 93.0299C23.2808 92.6209 21.9531 91.9044 21.0365 91.3086C19.128 90.0681 16.5548 87.7605 16.1997 87.4397C16.1712 87.414 16.1447 87.3889 16.1174 87.3619L11.8899 83.2052C11.8224 83.1387 11.7594 83.0708 11.6988 82.998C11.1807 82.3755 8.54689 79.18 7.11373 76.8555C5.87062 74.8392 4.46275 71.7456 3.90487 70.4854C3.74055 70.1142 3.65845 69.7126 3.65845 69.3066V45.7734Z" fill="#B376D4"/>
<path d="M28.6573 87.0117C28.6573 90.086 27.3395 91.6016 24.0842 91.6016C20.8288 91.6016 17.1736 89.1094 17.1736 86.0352C17.1736 82.9609 19.5077 81.4453 22.763 81.4453C26.0184 81.4453 28.6573 83.9375 28.6573 87.0117Z" fill="#00881F"/>
<rect x="6.70801" y="46.6797" width="4.87805" height="8.20312" rx="1" fill="white"/>
<rect x="15.2432" y="46.6797" width="4.87805" height="8.20312" rx="1" fill="white"/>
<rect x="23.7808" y="46.6797" width="4.87805" height="8.20312" rx="1" fill="white"/>
<rect x="6.70801" y="58.3984" width="4.87805" height="8.20312" rx="1" fill="white"/>
<rect x="15.2432" y="58.3984" width="4.87805" height="8.20312" rx="1" fill="white"/>
<rect x="23.7808" y="58.3984" width="4.87805" height="8.20312" rx="1" fill="white"/>
<path d="M6.70801 71.1172C6.70801 70.5649 7.15572 70.1172 7.70801 70.1172H10.5861C11.1383 70.1172 11.5861 70.5649 11.5861 71.1172V77.3203C11.5861 77.8726 11.1383 78.3203 10.5861 78.3203H8.65609C8.32719 78.3203 8.01945 78.1586 7.83208 77.8883C7.73041 77.7416 7.61802 77.5799 7.52102 77.4414C7.27804 77.0945 7.01029 76.667 6.85079 76.4071C6.75646 76.2534 6.70801 76.0767 6.70801 75.8964V71.1172Z" fill="white"/>
<rect x="15.2432" y="70.1172" width="4.87805" height="8.20312" rx="1" fill="white"/>
<rect x="23.7808" y="70.1172" width="4.87805" height="8.20312" rx="1" fill="white"/>
<path d="M16.5098 87.6953H33.5356V93.3594H24.6941C24.6941 93.3594 22.1238 92.009 20.6291 91.0156C18.8398 89.8264 16.5098 87.6953 16.5098 87.6953Z" fill="#DB722C"/>
<path d="M14.9385 83.6914C13.9893 83.5836 12.4995 83.7891 12.4995 83.7891L16.4629 87.6953H19.9182C19.9182 87.6953 19.6626 86.4759 19.2068 85.8399C18.5945 84.9854 17.9489 84.7171 16.9711 84.2774C16.2205 83.9398 15.7615 83.7849 14.9385 83.6914Z" fill="#75C682"/>
<rect x="30.8933" y="30.2734" width="37.8049" height="63.0859" fill="#6E10A1"/>
<path d="M49.4914 13.4766L68.4137 31.4941H30.5691L49.4914 13.4766Z" fill="#6E10A1"/>
<rect x="50.8125" y="0.585938" width="11.7886" height="6.83594" rx="1" fill="#F22C57"/>
<path d="M27.0008 35.0036L25.0667 32.7986C24.6959 32.3759 24.7464 31.7306 25.1785 31.3708L49.308 11.2762C49.6793 10.9669 50.2186 10.9675 50.5893 11.2774L74.6208 31.3705C75.0517 31.7307 75.1015 32.375 74.7312 32.7971L72.7972 35.0019C72.437 35.4126 71.8139 35.4582 71.3977 35.1043L50.5955 17.4162C50.2227 17.0992 49.6752 17.0986 49.3016 17.4148L28.3986 35.1074C27.9823 35.4598 27.3604 35.4136 27.0008 35.0036Z" fill="#10002B"/>
<rect x="48.3733" width="3.25203" height="12.6953" rx="1" fill="#10002B"/>
<ellipse cx="49.9997" cy="33.9844" rx="8.13008" ry="7.61719" fill="white"/>
<path d="M49.7969 28.7109V32.9844C49.7969 33.5367 50.2446 33.9844 50.7969 33.9844H54.9798" stroke="#00D591" stroke-width="2" stroke-linecap="round"/>
<rect x="34.7571" y="46.6797" width="4.87805" height="8.20312" rx="1" fill="#E2D7E7"/>
<rect x="43.2922" y="46.6797" width="4.87805" height="8.20312" rx="1" fill="#E2D7E7"/>
<rect x="51.8298" y="46.6797" width="4.87805" height="8.20312" rx="1" fill="#E2D7E7"/>
<rect x="60.3669" y="46.6797" width="4.87805" height="8.20312" rx="1" fill="#E2D7E7"/>
<rect x="34.7571" y="58.3984" width="4.87805" height="8.20312" rx="1" fill="white"/>
<rect x="43.2922" y="58.3984" width="4.87805" height="8.20312" rx="1" fill="white"/>
<rect x="51.8298" y="58.3984" width="4.87805" height="8.20312" rx="1" fill="white"/>
<rect x="60.3669" y="58.3984" width="4.87805" height="8.20312" rx="1" fill="white"/>
<rect x="37.1963" y="72.4609" width="25.6098" height="20.8984" fill="#10002B"/>
<rect x="51.4226" y="73.6328" width="7.11382" height="19.7266" fill="white"/>
<rect x="41.4629" y="73.6328" width="7.11382" height="19.7266" fill="white"/>
<rect x="34.7571" y="70.1172" width="30.0813" height="4.49219" rx="1" fill="#10002B"/>
</svg>
