<svg width="58" height="33" viewBox="0 0 58 33" fill="none" xmlns="http://www.w3.org/2000/svg">
<g clip-path="url(#clip0_468_4862)">
<path d="M1.0679 16.5C1.0679 7.45426 8.71282 0.121231 18.1433 0.121231H40.5548C49.9853 0.121231 57.6302 7.45426 57.6302 16.5V32.8788H18.1433C8.71282 32.8788 1.0679 25.5458 1.0679 16.5Z" fill="#6E10A1"/>
<path d="M40.5548 6.26328H18.1434C12.2493 6.26328 7.47122 10.8464 7.47122 16.5C7.47122 22.1536 12.2493 26.7368 18.1434 26.7368H40.5548C46.4489 26.7368 51.227 22.1536 51.227 16.5C51.227 10.8464 46.4489 6.26328 40.5548 6.26328Z" fill="white"/>
<path d="M18.1433 21.6184C21.0904 21.6184 23.4794 19.3268 23.4794 16.5C23.4794 13.6732 21.0904 11.3816 18.1433 11.3816C15.1963 11.3816 12.8073 13.6732 12.8073 16.5C12.8073 19.3268 15.1963 21.6184 18.1433 21.6184Z" fill="black"/>
<path d="M16.0089 15.4763C16.5983 15.4763 17.0761 15.018 17.0761 14.4527C17.0761 13.8873 16.5983 13.429 16.0089 13.429C15.4195 13.429 14.9417 13.8873 14.9417 14.4527C14.9417 15.018 15.4195 15.4763 16.0089 15.4763Z" fill="white"/>
<path d="M41.622 21.6184C44.5691 21.6184 46.9581 19.3268 46.9581 16.5C46.9581 13.6732 44.5691 11.3816 41.622 11.3816C38.675 11.3816 36.286 13.6732 36.286 16.5C36.286 19.3268 38.675 21.6184 41.622 21.6184Z" fill="black"/>
<path d="M39.4876 15.4763C40.077 15.4763 40.5548 15.018 40.5548 14.4527C40.5548 13.8873 40.077 13.429 39.4876 13.429C38.8982 13.429 38.4204 13.8873 38.4204 14.4527C38.4204 15.018 38.8982 15.4763 39.4876 15.4763Z" fill="white"/>
</g>
<defs>
<clipPath id="clip0_468_4862">
<rect width="57.668" height="32.7576" fill="white" transform="translate(0 0.121239)"/>
</clipPath>
</defs>
</svg>
