<svg width="221" height="66" viewBox="0 0 221 66" fill="none" xmlns="http://www.w3.org/2000/svg">
<path d="M1.46289 33C1.46289 20.2974 11.9358 10 24.8547 10H55.5564C68.4754 10 78.9482 20.2974 78.9482 33V56H24.8547C11.9358 56 1.46289 45.7026 1.46289 33Z" fill="#6E10A1"/>
<path d="M55.5565 18.625H24.8547C16.7804 18.625 10.2349 25.0609 10.2349 33C10.2349 40.9391 16.7804 47.375 24.8547 47.375H55.5565C63.6308 47.375 70.1764 40.9391 70.1764 33C70.1764 25.0609 63.6308 18.625 55.5565 18.625Z" fill="white"/>
<path d="M24.8549 40.1875C28.892 40.1875 32.1648 36.9695 32.1648 33C32.1648 29.0305 28.892 25.8125 24.8549 25.8125C20.8177 25.8125 17.5449 29.0305 17.5449 33C17.5449 36.9695 20.8177 40.1875 24.8549 40.1875Z" fill="black"/>
<path d="M21.9307 31.5625C22.7382 31.5625 23.3927 30.9189 23.3927 30.125C23.3927 29.3311 22.7382 28.6875 21.9307 28.6875C21.1233 28.6875 20.4688 29.3311 20.4688 30.125C20.4688 30.9189 21.1233 31.5625 21.9307 31.5625Z" fill="white"/>
<path d="M57.0184 40.1875C61.0556 40.1875 64.3284 36.9695 64.3284 33C64.3284 29.0305 61.0556 25.8125 57.0184 25.8125C52.9813 25.8125 49.7085 29.0305 49.7085 33C49.7085 36.9695 52.9813 40.1875 57.0184 40.1875Z" fill="black"/>
<path d="M54.0946 31.5625C54.902 31.5625 55.5565 30.9189 55.5565 30.125C55.5565 29.3311 54.902 28.6875 54.0946 28.6875C53.2871 28.6875 52.6326 29.3311 52.6326 30.125C52.6326 30.9189 53.2871 31.5625 54.0946 31.5625Z" fill="white"/>
<path d="M92.36 51V16.44H98.888V30.648H114.344V16.44H120.872V51H114.344V36.744H98.888V51H92.36ZM139.658 51.72C137.002 51.72 134.658 51.152 132.626 50.016C130.61 48.864 129.026 47.288 127.874 45.288C126.738 43.272 126.17 40.968 126.17 38.376C126.17 35.544 126.73 33.08 127.85 30.984C128.97 28.888 130.514 27.264 132.482 26.112C134.45 24.944 136.714 24.36 139.274 24.36C141.994 24.36 144.306 25 146.21 26.28C148.114 27.56 149.522 29.36 150.434 31.68C151.346 34 151.666 36.728 151.394 39.864H144.938V37.464C144.938 34.824 144.514 32.928 143.666 31.776C142.834 30.608 141.466 30.024 139.562 30.024C137.338 30.024 135.698 30.704 134.642 32.064C133.602 33.408 133.082 35.4 133.082 38.04C133.082 40.456 133.602 42.328 134.642 43.656C135.698 44.968 137.242 45.624 139.274 45.624C140.554 45.624 141.65 45.344 142.562 44.784C143.474 44.224 144.17 43.416 144.65 42.36L151.178 44.232C150.202 46.6 148.658 48.44 146.546 49.752C144.45 51.064 142.154 51.72 139.658 51.72ZM131.066 39.864V35.016H148.25V39.864H131.066ZM156.813 51V25.08H162.573V31.416L161.949 30.6C162.285 29.704 162.733 28.888 163.293 28.152C163.853 27.416 164.541 26.808 165.357 26.328C165.981 25.944 166.661 25.648 167.397 25.44C168.133 25.216 168.893 25.08 169.677 25.032C170.461 24.968 171.245 24.984 172.029 25.08V31.176C171.309 30.952 170.469 30.88 169.509 30.96C168.565 31.024 167.709 31.24 166.941 31.608C166.173 31.96 165.525 32.432 164.997 33.024C164.469 33.6 164.069 34.288 163.797 35.088C163.525 35.872 163.389 36.76 163.389 37.752V51H156.813ZM188.174 51.72C185.518 51.72 183.174 51.152 181.142 50.016C179.126 48.864 177.542 47.288 176.39 45.288C175.254 43.272 174.686 40.968 174.686 38.376C174.686 35.544 175.246 33.08 176.366 30.984C177.486 28.888 179.03 27.264 180.998 26.112C182.966 24.944 185.23 24.36 187.79 24.36C190.51 24.36 192.822 25 194.726 26.28C196.63 27.56 198.038 29.36 198.95 31.68C199.862 34 200.182 36.728 199.91 39.864H193.454V37.464C193.454 34.824 193.03 32.928 192.182 31.776C191.35 30.608 189.982 30.024 188.078 30.024C185.854 30.024 184.214 30.704 183.158 32.064C182.118 33.408 181.598 35.4 181.598 38.04C181.598 40.456 182.118 42.328 183.158 43.656C184.214 44.968 185.758 45.624 187.79 45.624C189.07 45.624 190.166 45.344 191.078 44.784C191.99 44.224 192.686 43.416 193.166 42.36L199.694 44.232C198.718 46.6 197.174 48.44 195.062 49.752C192.966 51.064 190.67 51.72 188.174 51.72ZM179.582 39.864V35.016H196.766V39.864H179.582ZM207.729 51V45.24H214.257V51H207.729ZM207.729 42.36V16.44H214.257V42.36H207.729Z" fill="#6E10A1"/>
</svg>
