<svg width="64" height="16" viewBox="0 0 64 16" fill="none" xmlns="http://www.w3.org/2000/svg">
<path d="M0.6 15V0.599999H3.01V12.74H9.37V15H0.6ZM12.7025 15L8.1625 0.599999H10.6425L14.4425 12.66L18.2925 0.599999H20.7725L16.2325 15H12.7025ZM22.475 15V0.599999H24.885V12.74H31.245V15H22.475ZM33.3391 15V12.53H35.8091V15H33.3391ZM47.1372 15.27C46.4172 15.27 45.7372 15.13 45.0972 14.85C44.4572 14.57 43.9005 14.1733 43.4272 13.66C42.9605 13.1467 42.6239 12.54 42.4172 11.84L44.7472 11.21C44.9139 11.7833 45.2172 12.2267 45.6572 12.54C46.1039 12.8467 46.5939 12.9967 47.1272 12.99C47.6005 12.99 48.0239 12.88 48.3972 12.66C48.7705 12.44 49.0639 12.1433 49.2772 11.77C49.4905 11.39 49.5972 10.9667 49.5972 10.5C49.5972 9.78667 49.3672 9.19 48.9072 8.71C48.4472 8.23 47.8539 7.99 47.1272 7.99C46.9072 7.99 46.6905 8.02 46.4772 8.08C46.2705 8.14 46.0705 8.22333 45.8772 8.33L44.7772 6.43L49.6172 2.29L49.8272 2.87H42.9772V0.599999H51.8072V2.88L47.9172 6.62L47.8972 5.91C48.7705 5.97 49.5139 6.21333 50.1272 6.64C50.7472 7.06667 51.2205 7.61667 51.5472 8.29C51.8805 8.96333 52.0472 9.7 52.0472 10.5C52.0472 11.4067 51.8239 12.22 51.3772 12.94C50.9372 13.66 50.3439 14.23 49.5972 14.65C48.8572 15.0633 48.0372 15.27 47.1372 15.27ZM58.7583 15.27C58.0383 15.27 57.3583 15.13 56.7183 14.85C56.0783 14.57 55.5216 14.1733 55.0483 13.66C54.5816 13.1467 54.2449 12.54 54.0383 11.84L56.3683 11.21C56.5349 11.7833 56.8383 12.2267 57.2783 12.54C57.7249 12.8467 58.2149 12.9967 58.7483 12.99C59.2216 12.99 59.6449 12.88 60.0183 12.66C60.3916 12.44 60.6849 12.1433 60.8983 11.77C61.1116 11.39 61.2183 10.9667 61.2183 10.5C61.2183 9.78667 60.9883 9.19 60.5283 8.71C60.0683 8.23 59.4749 7.99 58.7483 7.99C58.5283 7.99 58.3116 8.02 58.0983 8.08C57.8916 8.14 57.6916 8.22333 57.4983 8.33L56.3983 6.43L61.2383 2.29L61.4483 2.87H54.5983V0.599999H63.4283V2.88L59.5383 6.62L59.5183 5.91C60.3916 5.97 61.1349 6.21333 61.7483 6.64C62.3683 7.06667 62.8416 7.61667 63.1683 8.29C63.5016 8.96333 63.6683 9.7 63.6683 10.5C63.6683 11.4067 63.4449 12.22 62.9983 12.94C62.5583 13.66 61.9649 14.23 61.2183 14.65C60.4783 15.0633 59.6583 15.27 58.7583 15.27Z" fill="#10002B"/>
</svg>
