<svg width="141" height="73" viewBox="0 0 141 73" fill="none" xmlns="http://www.w3.org/2000/svg">
<path d="M31.3466 12V0.48H33.2986L38.6426 8.6V0.48H40.5946V12H38.6426L33.2986 3.88V12H31.3466ZM45.2469 12.24C44.6229 12.24 44.0949 12.1227 43.6629 11.888C43.2309 11.648 42.9029 11.3307 42.6789 10.936C42.4603 10.5413 42.3509 10.1067 42.3509 9.632C42.3509 9.216 42.4203 8.84267 42.5589 8.512C42.6976 8.176 42.9109 7.888 43.1989 7.648C43.4869 7.40267 43.8603 7.20267 44.3189 7.048C44.6656 6.936 45.0709 6.83467 45.5349 6.744C46.0043 6.65333 46.5109 6.57067 47.0549 6.496C47.6043 6.416 48.1776 6.33067 48.7749 6.24L48.0869 6.632C48.0923 6.03467 47.9589 5.59467 47.6869 5.312C47.4149 5.02933 46.9563 4.888 46.3109 4.888C45.9216 4.888 45.5456 4.97867 45.1829 5.16C44.8203 5.34133 44.5669 5.65333 44.4229 6.096L42.6629 5.544C42.8763 4.81333 43.2816 4.22667 43.8789 3.784C44.4816 3.34133 45.2923 3.12 46.3109 3.12C47.0789 3.12 47.7536 3.24533 48.3349 3.496C48.9216 3.74667 49.3563 4.15733 49.6389 4.728C49.7936 5.032 49.8869 5.344 49.9189 5.664C49.9509 5.97867 49.9669 6.32267 49.9669 6.696V12H48.2789V10.128L48.5589 10.432C48.1696 11.056 47.7136 11.5147 47.1909 11.808C46.6736 12.096 46.0256 12.24 45.2469 12.24ZM45.6309 10.704C46.0683 10.704 46.4416 10.6267 46.7509 10.472C47.0603 10.3173 47.3056 10.128 47.4869 9.904C47.6736 9.68 47.7989 9.46933 47.8629 9.272C47.9643 9.02667 48.0203 8.74667 48.0309 8.432C48.0469 8.112 48.0549 7.85333 48.0549 7.656L48.6469 7.832C48.0656 7.92267 47.5669 8.00267 47.1509 8.072C46.7349 8.14133 46.3776 8.208 46.0789 8.272C45.7803 8.33067 45.5163 8.39733 45.2869 8.472C45.0629 8.552 44.8736 8.64533 44.7189 8.752C44.5643 8.85867 44.4443 8.98133 44.3589 9.12C44.2789 9.25867 44.2389 9.42133 44.2389 9.608C44.2389 9.82133 44.2923 10.0107 44.3989 10.176C44.5056 10.336 44.6603 10.464 44.8629 10.56C45.0709 10.656 45.3269 10.704 45.6309 10.704ZM65.6288 12V6.752C65.6288 6.16 65.4821 5.69867 65.1888 5.368C64.8955 5.032 64.4981 4.864 63.9968 4.864C63.6875 4.864 63.4101 4.936 63.1648 5.08C62.9195 5.21867 62.7248 5.42667 62.5808 5.704C62.4368 5.976 62.3648 6.30133 62.3648 6.68L61.5088 6.176C61.5035 5.57867 61.6368 5.05333 61.9088 4.6C62.1861 4.14133 62.5595 3.784 63.0288 3.528C63.4981 3.272 64.0208 3.144 64.5968 3.144C65.5515 3.144 66.2821 3.432 66.7888 4.008C67.3008 4.57867 67.5568 5.33067 67.5568 6.264V12H65.6288ZM55.2368 12V3.36H56.9408V6.04H57.1808V12H55.2368ZM60.4448 12V6.776C60.4448 6.17333 60.2981 5.704 60.0048 5.368C59.7115 5.032 59.3115 4.864 58.8048 4.864C58.3141 4.864 57.9195 5.032 57.6208 5.368C57.3275 5.704 57.1808 6.14133 57.1808 6.68L56.3168 6.104C56.3168 5.544 56.4555 5.04 56.7328 4.592C57.0101 4.144 57.3835 3.792 57.8528 3.536C58.3275 3.27467 58.8581 3.144 59.4448 3.144C60.0901 3.144 60.6288 3.28267 61.0608 3.56C61.4981 3.832 61.8235 4.20533 62.0368 4.68C62.2555 5.14933 62.3648 5.68 62.3648 6.272V12H60.4448ZM73.3188 12.24C72.4548 12.24 71.7001 12.0453 71.0548 11.656C70.4095 11.2667 69.9081 10.7307 69.5508 10.048C69.1988 9.36 69.0228 8.57067 69.0228 7.68C69.0228 6.77333 69.2041 5.97867 69.5668 5.296C69.9295 4.61333 70.4335 4.08 71.0788 3.696C71.7241 3.312 72.4708 3.12 73.3188 3.12C74.1881 3.12 74.9455 3.31467 75.5908 3.704C76.2361 4.09333 76.7375 4.632 77.0948 5.32C77.4521 6.00267 77.6308 6.78933 77.6308 7.68C77.6308 8.576 77.4495 9.368 77.0868 10.056C76.7295 10.7387 76.2281 11.2747 75.5828 11.664C74.9375 12.048 74.1828 12.24 73.3188 12.24ZM73.3188 10.432C74.0868 10.432 74.6575 10.176 75.0308 9.664C75.4041 9.152 75.5908 8.49067 75.5908 7.68C75.5908 6.84267 75.4015 6.176 75.0228 5.68C74.6441 5.17867 74.0761 4.928 73.3188 4.928C72.8015 4.928 72.3748 5.04533 72.0388 5.28C71.7081 5.50933 71.4628 5.832 71.3028 6.248C71.1428 6.65867 71.0628 7.136 71.0628 7.68C71.0628 8.51733 71.2521 9.18667 71.6308 9.688C72.0148 10.184 72.5775 10.432 73.3188 10.432ZM82.5263 12.24C81.4596 12.24 80.593 12 79.9263 11.52C79.2596 11.04 78.8543 10.3653 78.7103 9.496L80.6783 9.192C80.7796 9.61867 81.0036 9.95467 81.3503 10.2C81.697 10.4453 82.1343 10.568 82.6623 10.568C83.1263 10.568 83.4836 10.4773 83.7343 10.296C83.9903 10.1093 84.1183 9.856 84.1183 9.536C84.1183 9.33867 84.0703 9.18133 83.9743 9.064C83.8836 8.94133 83.681 8.824 83.3663 8.712C83.0516 8.6 82.569 8.45867 81.9183 8.288C81.193 8.096 80.617 7.89067 80.1903 7.672C79.7636 7.448 79.457 7.184 79.2703 6.88C79.0836 6.576 78.9903 6.208 78.9903 5.776C78.9903 5.23733 79.1316 4.768 79.4143 4.368C79.697 3.968 80.0916 3.66133 80.5983 3.448C81.105 3.22933 81.7023 3.12 82.3903 3.12C83.0623 3.12 83.657 3.224 84.1743 3.432C84.697 3.64 85.1183 3.936 85.4383 4.32C85.7583 4.704 85.9556 5.15467 86.0303 5.672L84.0623 6.024C84.0143 5.656 83.8463 5.36533 83.5583 5.152C83.2756 4.93867 82.897 4.81867 82.4223 4.792C81.969 4.76533 81.6036 4.83467 81.3263 5C81.049 5.16 80.9103 5.38667 80.9103 5.68C80.9103 5.84533 80.9663 5.98667 81.0783 6.104C81.1903 6.22133 81.4143 6.33867 81.7503 6.456C82.0916 6.57333 82.5983 6.71733 83.2703 6.888C83.9583 7.064 84.5076 7.26667 84.9183 7.496C85.3343 7.72 85.633 7.98933 85.8143 8.304C86.001 8.61867 86.0943 9 86.0943 9.448C86.0943 10.3173 85.777 11 85.1423 11.496C84.513 11.992 83.641 12.24 82.5263 12.24ZM91.5986 12.24C90.7079 12.24 89.9479 12.0427 89.3186 11.648C88.6892 11.248 88.2066 10.704 87.8706 10.016C87.5399 9.328 87.3719 8.54933 87.3666 7.68C87.3719 6.79467 87.5452 6.01067 87.8866 5.328C88.2332 4.64 88.7239 4.10133 89.3586 3.712C89.9932 3.31733 90.7479 3.12 91.6226 3.12C92.6039 3.12 93.4332 3.368 94.1106 3.864C94.7932 4.35467 95.2386 5.02667 95.4466 5.88L93.5266 6.4C93.3772 5.936 93.1292 5.576 92.7826 5.32C92.4359 5.05867 92.0412 4.928 91.5986 4.928C91.0972 4.928 90.6839 5.048 90.3586 5.288C90.0332 5.52267 89.7932 5.848 89.6386 6.264C89.4839 6.68 89.4066 7.152 89.4066 7.68C89.4066 8.50133 89.5906 9.16533 89.9586 9.672C90.3266 10.1787 90.8732 10.432 91.5986 10.432C92.1106 10.432 92.5132 10.3147 92.8066 10.08C93.1052 9.84533 93.3292 9.50667 93.4786 9.064L95.4466 9.504C95.1799 10.384 94.7132 11.0613 94.0466 11.536C93.3799 12.0053 92.5639 12.24 91.5986 12.24ZM99.3251 12.24C98.7011 12.24 98.1731 12.1227 97.7411 11.888C97.3091 11.648 96.9811 11.3307 96.7571 10.936C96.5384 10.5413 96.4291 10.1067 96.4291 9.632C96.4291 9.216 96.4984 8.84267 96.6371 8.512C96.7757 8.176 96.9891 7.888 97.2771 7.648C97.5651 7.40267 97.9384 7.20267 98.3971 7.048C98.7437 6.936 99.1491 6.83467 99.6131 6.744C100.082 6.65333 100.589 6.57067 101.133 6.496C101.682 6.416 102.256 6.33067 102.853 6.24L102.165 6.632C102.17 6.03467 102.037 5.59467 101.765 5.312C101.493 5.02933 101.034 4.888 100.389 4.888C99.9997 4.888 99.6237 4.97867 99.2611 5.16C98.8984 5.34133 98.6451 5.65333 98.5011 6.096L96.7411 5.544C96.9544 4.81333 97.3597 4.22667 97.9571 3.784C98.5597 3.34133 99.3704 3.12 100.389 3.12C101.157 3.12 101.832 3.24533 102.413 3.496C103 3.74667 103.434 4.15733 103.717 4.728C103.872 5.032 103.965 5.344 103.997 5.664C104.029 5.97867 104.045 6.32267 104.045 6.696V12H102.357V10.128L102.637 10.432C102.248 11.056 101.792 11.5147 101.269 11.808C100.752 12.096 100.104 12.24 99.3251 12.24ZM99.7091 10.704C100.146 10.704 100.52 10.6267 100.829 10.472C101.138 10.3173 101.384 10.128 101.565 9.904C101.752 9.68 101.877 9.46933 101.941 9.272C102.042 9.02667 102.098 8.74667 102.109 8.432C102.125 8.112 102.133 7.85333 102.133 7.656L102.725 7.832C102.144 7.92267 101.645 8.00267 101.229 8.072C100.813 8.14133 100.456 8.208 100.157 8.272C99.8584 8.33067 99.5944 8.39733 99.3651 8.472C99.1411 8.552 98.9517 8.64533 98.7971 8.752C98.6424 8.85867 98.5224 8.98133 98.4371 9.12C98.3571 9.25867 98.3171 9.42133 98.3171 9.608C98.3171 9.82133 98.3704 10.0107 98.4771 10.176C98.5837 10.336 98.7384 10.464 98.9411 10.56C99.1491 10.656 99.4051 10.704 99.7091 10.704ZM106.928 12V10.232H108.856V12H106.928ZM106.928 9.12V0.48H108.856V9.12H106.928Z" fill="#9710A1"/>
<path d="M0.394688 32V23.36H3.96469C4.04869 23.36 4.15669 23.364 4.28869 23.372C4.42069 23.376 4.54269 23.388 4.65469 23.408C5.15469 23.484 5.56669 23.65 5.89069 23.906C6.21869 24.162 6.46069 24.486 6.61669 24.878C6.77669 25.266 6.85669 25.698 6.85669 26.174C6.85669 26.878 6.67869 27.484 6.32269 27.992C5.96669 28.496 5.42069 28.808 4.68469 28.928L4.06669 28.982H1.84069V32H0.394688ZM5.35669 32L3.65269 28.484L5.12269 28.16L6.99469 32H5.35669ZM1.84069 27.632H3.90469C3.98469 27.632 4.07469 27.628 4.17469 27.62C4.27469 27.612 4.36669 27.596 4.45069 27.572C4.69069 27.512 4.87869 27.406 5.01469 27.254C5.15469 27.102 5.25269 26.93 5.30869 26.738C5.36869 26.546 5.39869 26.358 5.39869 26.174C5.39869 25.99 5.36869 25.802 5.30869 25.61C5.25269 25.414 5.15469 25.24 5.01469 25.088C4.87869 24.936 4.69069 24.83 4.45069 24.77C4.36669 24.746 4.27469 24.732 4.17469 24.728C4.07469 24.72 3.98469 24.716 3.90469 24.716H1.84069V27.632ZM11.2626 32.18C10.6066 32.18 10.0306 32.038 9.53456 31.754C9.03856 31.47 8.65056 31.076 8.37056 30.572C8.09456 30.068 7.95656 29.488 7.95656 28.832C7.95656 28.124 8.09256 27.51 8.36456 26.99C8.63656 26.466 9.01456 26.06 9.49856 25.772C9.98256 25.484 10.5426 25.34 11.1786 25.34C11.8506 25.34 12.4206 25.498 12.8886 25.814C13.3606 26.126 13.7106 26.568 13.9386 27.14C14.1666 27.712 14.2526 28.386 14.1966 29.162H12.7626V28.634C12.7586 27.93 12.6346 27.416 12.3906 27.092C12.1466 26.768 11.7626 26.606 11.2386 26.606C10.6466 26.606 10.2066 26.79 9.91856 27.158C9.63056 27.522 9.48656 28.056 9.48656 28.76C9.48656 29.416 9.63056 29.924 9.91856 30.284C10.2066 30.644 10.6266 30.824 11.1786 30.824C11.5346 30.824 11.8406 30.746 12.0966 30.59C12.3566 30.43 12.5566 30.2 12.6966 29.9L14.1246 30.332C13.8766 30.916 13.4926 31.37 12.9726 31.694C12.4566 32.018 11.8866 32.18 11.2626 32.18ZM9.03056 29.162V28.07H13.4886V29.162H9.03056ZM18.0373 32.18C17.2373 32.18 16.5873 32 16.0873 31.64C15.5873 31.28 15.2833 30.774 15.1753 30.122L16.6513 29.894C16.7273 30.214 16.8953 30.466 17.1553 30.65C17.4153 30.834 17.7433 30.926 18.1393 30.926C18.4873 30.926 18.7553 30.858 18.9433 30.722C19.1353 30.582 19.2313 30.392 19.2313 30.152C19.2313 30.004 19.1953 29.886 19.1233 29.798C19.0553 29.706 18.9033 29.618 18.6673 29.534C18.4313 29.45 18.0693 29.344 17.5813 29.216C17.0373 29.072 16.6053 28.918 16.2853 28.754C15.9653 28.586 15.7353 28.388 15.5953 28.16C15.4553 27.932 15.3853 27.656 15.3853 27.332C15.3853 26.928 15.4913 26.576 15.7033 26.276C15.9153 25.976 16.2113 25.746 16.5913 25.586C16.9713 25.422 17.4193 25.34 17.9353 25.34C18.4393 25.34 18.8853 25.418 19.2733 25.574C19.6653 25.73 19.9813 25.952 20.2213 26.24C20.4613 26.528 20.6093 26.866 20.6653 27.254L19.1893 27.518C19.1533 27.242 19.0273 27.024 18.8113 26.864C18.5993 26.704 18.3153 26.614 17.9593 26.594C17.6193 26.574 17.3453 26.626 17.1373 26.75C16.9293 26.87 16.8253 27.04 16.8253 27.26C16.8253 27.384 16.8673 27.49 16.9513 27.578C17.0353 27.666 17.2033 27.754 17.4553 27.842C17.7113 27.93 18.0913 28.038 18.5953 28.166C19.1113 28.298 19.5233 28.45 19.8313 28.622C20.1433 28.79 20.3673 28.992 20.5033 29.228C20.6433 29.464 20.7133 29.75 20.7133 30.086C20.7133 30.738 20.4753 31.25 19.9993 31.622C19.5273 31.994 18.8733 32.18 18.0373 32.18ZM25.1415 32.18C24.5095 32.18 23.9795 32.03 23.5515 31.73C23.1235 31.43 22.8015 31.022 22.5855 30.506C22.3695 29.986 22.2615 29.404 22.2615 28.76C22.2615 28.108 22.3695 27.524 22.5855 27.008C22.8015 26.492 23.1175 26.086 23.5335 25.79C23.9535 25.49 24.4715 25.34 25.0875 25.34C25.6995 25.34 26.2295 25.49 26.6775 25.79C27.1295 26.086 27.4795 26.492 27.7275 27.008C27.9755 27.52 28.0995 28.104 28.0995 28.76C28.0995 29.408 27.9775 29.99 27.7335 30.506C27.4895 31.022 27.1455 31.43 26.7015 31.73C26.2575 32.03 25.7375 32.18 25.1415 32.18ZM22.0155 34.88V25.52H23.2935V30.068H23.4735V34.88H22.0155ZM24.9195 30.884C25.2955 30.884 25.6055 30.79 25.8495 30.602C26.0935 30.414 26.2735 30.16 26.3895 29.84C26.5095 29.516 26.5695 29.156 26.5695 28.76C26.5695 28.368 26.5095 28.012 26.3895 27.692C26.2695 27.368 26.0835 27.112 25.8315 26.924C25.5795 26.732 25.2595 26.636 24.8715 26.636C24.5035 26.636 24.2035 26.726 23.9715 26.906C23.7395 27.082 23.5675 27.33 23.4555 27.65C23.3475 27.966 23.2935 28.336 23.2935 28.76C23.2935 29.18 23.3475 29.55 23.4555 29.87C23.5675 30.19 23.7415 30.44 23.9775 30.62C24.2175 30.796 24.5315 30.884 24.9195 30.884ZM32.284 32.18C31.636 32.18 31.07 32.034 30.586 31.742C30.102 31.45 29.726 31.048 29.458 30.536C29.194 30.02 29.062 29.428 29.062 28.76C29.062 28.08 29.198 27.484 29.47 26.972C29.742 26.46 30.12 26.06 30.604 25.772C31.088 25.484 31.648 25.34 32.284 25.34C32.936 25.34 33.504 25.486 33.988 25.778C34.472 26.07 34.848 26.474 35.116 26.99C35.384 27.502 35.518 28.092 35.518 28.76C35.518 29.432 35.382 30.026 35.11 30.542C34.842 31.054 34.466 31.456 33.982 31.748C33.498 32.036 32.932 32.18 32.284 32.18ZM32.284 30.824C32.86 30.824 33.288 30.632 33.568 30.248C33.848 29.864 33.988 29.368 33.988 28.76C33.988 28.132 33.846 27.632 33.562 27.26C33.278 26.884 32.852 26.696 32.284 26.696C31.896 26.696 31.576 26.784 31.324 26.96C31.076 27.132 30.892 27.374 30.772 27.686C30.652 27.994 30.592 28.352 30.592 28.76C30.592 29.388 30.734 29.89 31.018 30.266C31.306 30.638 31.728 30.824 32.284 30.824ZM41.322 32V28.88C41.322 28.676 41.308 28.45 41.28 28.202C41.252 27.954 41.186 27.716 41.082 27.488C40.982 27.256 40.83 27.066 40.626 26.918C40.426 26.77 40.154 26.696 39.81 26.696C39.626 26.696 39.444 26.726 39.264 26.786C39.084 26.846 38.92 26.95 38.772 27.098C38.628 27.242 38.512 27.442 38.424 27.698C38.336 27.95 38.292 28.274 38.292 28.67L37.434 28.304C37.434 27.752 37.54 27.252 37.752 26.804C37.968 26.356 38.284 26 38.7 25.736C39.116 25.468 39.628 25.334 40.236 25.334C40.716 25.334 41.112 25.414 41.424 25.574C41.736 25.734 41.984 25.938 42.168 26.186C42.352 26.434 42.488 26.698 42.576 26.978C42.664 27.258 42.72 27.524 42.744 27.776C42.772 28.024 42.786 28.226 42.786 28.382V32H41.322ZM36.828 32V25.52H38.118V27.53H38.292V32H36.828ZM46.8443 32.18C46.2483 32.18 45.7283 32.03 45.2843 31.73C44.8403 31.43 44.4963 31.022 44.2523 30.506C44.0083 29.99 43.8863 29.408 43.8863 28.76C43.8863 28.104 44.0083 27.52 44.2523 27.008C44.5003 26.492 44.8503 26.086 45.3023 25.79C45.7543 25.49 46.2863 25.34 46.8983 25.34C47.5143 25.34 48.0303 25.49 48.4463 25.79C48.8663 26.086 49.1843 26.492 49.4003 27.008C49.6163 27.524 49.7243 28.108 49.7243 28.76C49.7243 29.404 49.6163 29.986 49.4003 30.506C49.1843 31.022 48.8623 31.43 48.4343 31.73C48.0063 32.03 47.4763 32.18 46.8443 32.18ZM47.0663 30.884C47.4543 30.884 47.7663 30.796 48.0023 30.62C48.2423 30.44 48.4163 30.19 48.5243 29.87C48.6363 29.55 48.6923 29.18 48.6923 28.76C48.6923 28.336 48.6363 27.966 48.5243 27.65C48.4163 27.33 48.2463 27.082 48.0143 26.906C47.7823 26.726 47.4823 26.636 47.1143 26.636C46.7263 26.636 46.4063 26.732 46.1543 26.924C45.9023 27.112 45.7163 27.368 45.5963 27.692C45.4763 28.012 45.4163 28.368 45.4163 28.76C45.4163 29.156 45.4743 29.516 45.5903 29.84C45.7103 30.16 45.8923 30.414 46.1363 30.602C46.3803 30.79 46.6903 30.884 47.0663 30.884ZM48.6923 32V27.452H48.5123V23.36H49.9703V32H48.6923ZM53.4645 32.18C52.9965 32.18 52.6005 32.092 52.2765 31.916C51.9525 31.736 51.7065 31.498 51.5385 31.202C51.3745 30.906 51.2925 30.58 51.2925 30.224C51.2925 29.912 51.3445 29.632 51.4485 29.384C51.5525 29.132 51.7125 28.916 51.9285 28.736C52.1445 28.552 52.4245 28.402 52.7685 28.286C53.0285 28.202 53.3325 28.126 53.6805 28.058C54.0325 27.99 54.4125 27.928 54.8205 27.872C55.2325 27.812 55.6625 27.748 56.1105 27.68L55.5945 27.974C55.5985 27.526 55.4985 27.196 55.2945 26.984C55.0905 26.772 54.7465 26.666 54.2625 26.666C53.9705 26.666 53.6885 26.734 53.4165 26.87C53.1445 27.006 52.9545 27.24 52.8465 27.572L51.5265 27.158C51.6865 26.61 51.9905 26.17 52.4385 25.838C52.8905 25.506 53.4985 25.34 54.2625 25.34C54.8385 25.34 55.3445 25.434 55.7805 25.622C56.2205 25.81 56.5465 26.118 56.7585 26.546C56.8745 26.774 56.9445 27.008 56.9685 27.248C56.9925 27.484 57.0045 27.742 57.0045 28.022V32H55.7385V30.596L55.9485 30.824C55.6565 31.292 55.3145 31.636 54.9225 31.856C54.5345 32.072 54.0485 32.18 53.4645 32.18ZM53.7525 31.028C54.0805 31.028 54.3605 30.97 54.5925 30.854C54.8245 30.738 55.0085 30.596 55.1445 30.428C55.2845 30.26 55.3785 30.102 55.4265 29.954C55.5025 29.77 55.5445 29.56 55.5525 29.324C55.5645 29.084 55.5705 28.89 55.5705 28.742L56.0145 28.874C55.5785 28.942 55.2045 29.002 54.8925 29.054C54.5805 29.106 54.3125 29.156 54.0885 29.204C53.8645 29.248 53.6665 29.298 53.4945 29.354C53.3265 29.414 53.1845 29.484 53.0685 29.564C52.9525 29.644 52.8625 29.736 52.7985 29.84C52.7385 29.944 52.7085 30.066 52.7085 30.206C52.7085 30.366 52.7485 30.508 52.8285 30.632C52.9085 30.752 53.0245 30.848 53.1765 30.92C53.3325 30.992 53.5245 31.028 53.7525 31.028ZM63.3989 32.186C62.9189 32.186 62.5229 32.106 62.2109 31.946C61.8989 31.786 61.6509 31.582 61.4669 31.334C61.2829 31.086 61.1469 30.822 61.0589 30.542C60.9709 30.262 60.9129 29.998 60.8849 29.75C60.8609 29.498 60.8489 29.294 60.8489 29.138V25.52H62.3129V28.64C62.3129 28.84 62.3269 29.066 62.3549 29.318C62.3829 29.566 62.4469 29.806 62.5469 30.038C62.6509 30.266 62.8029 30.454 63.0029 30.602C63.2069 30.75 63.4809 30.824 63.8249 30.824C64.0089 30.824 64.1909 30.794 64.3709 30.734C64.5509 30.674 64.7129 30.572 64.8569 30.428C65.0049 30.28 65.1229 30.078 65.2109 29.822C65.2989 29.566 65.3429 29.242 65.3429 28.85L66.2009 29.216C66.2009 29.768 66.0929 30.268 65.8769 30.716C65.6649 31.164 65.3509 31.522 64.9349 31.79C64.5189 32.054 64.0069 32.186 63.3989 32.186ZM65.5169 32V29.99H65.3429V25.52H66.7949V32H65.5169ZM76.2626 32V28.064C76.2626 27.62 76.1526 27.274 75.9326 27.026C75.7126 26.774 75.4146 26.648 75.0386 26.648C74.8066 26.648 74.5986 26.702 74.4146 26.81C74.2306 26.914 74.0846 27.07 73.9766 27.278C73.8686 27.482 73.8146 27.726 73.8146 28.01L73.1726 27.632C73.1686 27.184 73.2686 26.79 73.4726 26.45C73.6806 26.106 73.9606 25.838 74.3126 25.646C74.6646 25.454 75.0566 25.358 75.4886 25.358C76.2046 25.358 76.7526 25.574 77.1326 26.006C77.5166 26.434 77.7086 26.998 77.7086 27.698V32H76.2626ZM68.4686 32V25.52H69.7466V27.53H69.9266V32H68.4686ZM72.3746 32V28.082C72.3746 27.63 72.2646 27.278 72.0446 27.026C71.8246 26.774 71.5246 26.648 71.1446 26.648C70.7766 26.648 70.4806 26.774 70.2566 27.026C70.0366 27.278 69.9266 27.606 69.9266 28.01L69.2786 27.578C69.2786 27.158 69.3826 26.78 69.5906 26.444C69.7986 26.108 70.0786 25.844 70.4306 25.652C70.7866 25.456 71.1846 25.358 71.6246 25.358C72.1086 25.358 72.5126 25.462 72.8366 25.67C73.1646 25.874 73.4086 26.154 73.5686 26.51C73.7326 26.862 73.8146 27.26 73.8146 27.704V32H72.3746ZM81.0856 32.18C80.6176 32.18 80.2216 32.092 79.8976 31.916C79.5736 31.736 79.3276 31.498 79.1596 31.202C78.9956 30.906 78.9136 30.58 78.9136 30.224C78.9136 29.912 78.9656 29.632 79.0696 29.384C79.1736 29.132 79.3336 28.916 79.5496 28.736C79.7656 28.552 80.0456 28.402 80.3896 28.286C80.6496 28.202 80.9536 28.126 81.3016 28.058C81.6536 27.99 82.0336 27.928 82.4416 27.872C82.8536 27.812 83.2836 27.748 83.7316 27.68L83.2156 27.974C83.2196 27.526 83.1196 27.196 82.9156 26.984C82.7116 26.772 82.3676 26.666 81.8836 26.666C81.5916 26.666 81.3096 26.734 81.0376 26.87C80.7656 27.006 80.5756 27.24 80.4676 27.572L79.1476 27.158C79.3076 26.61 79.6116 26.17 80.0596 25.838C80.5116 25.506 81.1196 25.34 81.8836 25.34C82.4596 25.34 82.9656 25.434 83.4016 25.622C83.8416 25.81 84.1676 26.118 84.3796 26.546C84.4956 26.774 84.5656 27.008 84.5896 27.248C84.6136 27.484 84.6256 27.742 84.6256 28.022V32H83.3596V30.596L83.5696 30.824C83.2776 31.292 82.9356 31.636 82.5436 31.856C82.1556 32.072 81.6696 32.18 81.0856 32.18ZM81.3736 31.028C81.7016 31.028 81.9816 30.97 82.2136 30.854C82.4456 30.738 82.6296 30.596 82.7656 30.428C82.9056 30.26 82.9996 30.102 83.0476 29.954C83.1236 29.77 83.1656 29.56 83.1736 29.324C83.1856 29.084 83.1916 28.89 83.1916 28.742L83.6356 28.874C83.1996 28.942 82.8256 29.002 82.5136 29.054C82.2016 29.106 81.9336 29.156 81.7096 29.204C81.4856 29.248 81.2876 29.298 81.1156 29.354C80.9476 29.414 80.8056 29.484 80.6896 29.564C80.5736 29.644 80.4836 29.736 80.4196 29.84C80.3596 29.944 80.3296 30.066 80.3296 30.206C80.3296 30.366 80.3696 30.508 80.4496 30.632C80.5296 30.752 80.6456 30.848 80.7976 30.92C80.9536 30.992 81.1456 31.028 81.3736 31.028ZM91.704 32.18C91.072 32.18 90.542 32.03 90.114 31.73C89.686 31.43 89.364 31.022 89.148 30.506C88.932 29.986 88.824 29.404 88.824 28.76C88.824 28.108 88.932 27.524 89.148 27.008C89.364 26.492 89.68 26.086 90.096 25.79C90.516 25.49 91.034 25.34 91.65 25.34C92.262 25.34 92.792 25.49 93.24 25.79C93.692 26.086 94.042 26.492 94.29 27.008C94.538 27.52 94.662 28.104 94.662 28.76C94.662 29.408 94.54 29.99 94.296 30.506C94.052 31.022 93.708 31.43 93.264 31.73C92.82 32.03 92.3 32.18 91.704 32.18ZM88.578 34.88V25.52H89.856V30.068H90.036V34.88H88.578ZM91.482 30.884C91.858 30.884 92.168 30.79 92.412 30.602C92.656 30.414 92.836 30.16 92.952 29.84C93.072 29.516 93.132 29.156 93.132 28.76C93.132 28.368 93.072 28.012 92.952 27.692C92.832 27.368 92.646 27.112 92.394 26.924C92.142 26.732 91.822 26.636 91.434 26.636C91.066 26.636 90.766 26.726 90.534 26.906C90.302 27.082 90.13 27.33 90.018 27.65C89.91 27.966 89.856 28.336 89.856 28.76C89.856 29.18 89.91 29.55 90.018 29.87C90.13 30.19 90.304 30.44 90.54 30.62C90.78 30.796 91.094 30.884 91.482 30.884ZM98.9305 32.18C98.2745 32.18 97.6985 32.038 97.2025 31.754C96.7065 31.47 96.3185 31.076 96.0385 30.572C95.7625 30.068 95.6245 29.488 95.6245 28.832C95.6245 28.124 95.7605 27.51 96.0325 26.99C96.3045 26.466 96.6825 26.06 97.1665 25.772C97.6505 25.484 98.2105 25.34 98.8465 25.34C99.5185 25.34 100.089 25.498 100.557 25.814C101.029 26.126 101.379 26.568 101.607 27.14C101.835 27.712 101.921 28.386 101.865 29.162H100.431V28.634C100.427 27.93 100.303 27.416 100.059 27.092C99.8145 26.768 99.4305 26.606 98.9065 26.606C98.3145 26.606 97.8745 26.79 97.5865 27.158C97.2985 27.522 97.1545 28.056 97.1545 28.76C97.1545 29.416 97.2985 29.924 97.5865 30.284C97.8745 30.644 98.2945 30.824 98.8465 30.824C99.2025 30.824 99.5085 30.746 99.7645 30.59C100.025 30.43 100.225 30.2 100.365 29.9L101.793 30.332C101.545 30.916 101.161 31.37 100.641 31.694C100.125 32.018 99.5545 32.18 98.9305 32.18ZM96.6985 29.162V28.07H101.157V29.162H96.6985ZM103.203 32V25.52H104.481V27.098L104.325 26.894C104.405 26.678 104.511 26.482 104.643 26.306C104.779 26.126 104.941 25.978 105.129 25.862C105.289 25.754 105.465 25.67 105.657 25.61C105.853 25.546 106.053 25.508 106.257 25.496C106.461 25.48 106.659 25.488 106.851 25.52V26.87C106.659 26.814 106.437 26.796 106.185 26.816C105.937 26.836 105.713 26.906 105.513 27.026C105.313 27.134 105.149 27.272 105.021 27.44C104.897 27.608 104.805 27.8 104.745 28.016C104.685 28.228 104.655 28.458 104.655 28.706V32H103.203ZM110.486 35.06C110.126 35.06 109.78 35.004 109.448 34.892C109.12 34.78 108.824 34.618 108.56 34.406C108.296 34.198 108.08 33.946 107.912 33.65L109.244 32.99C109.368 33.226 109.542 33.4 109.766 33.512C109.994 33.628 110.236 33.686 110.492 33.686C110.792 33.686 111.06 33.632 111.296 33.524C111.532 33.42 111.714 33.264 111.842 33.056C111.974 32.852 112.036 32.596 112.028 32.288V30.446H112.208V25.52H113.474V32.312C113.474 32.476 113.466 32.632 113.45 32.78C113.438 32.932 113.416 33.08 113.384 33.224C113.288 33.644 113.104 33.988 112.832 34.256C112.56 34.528 112.222 34.73 111.818 34.862C111.418 34.994 110.974 35.06 110.486 35.06ZM110.36 32.18C109.764 32.18 109.244 32.03 108.8 31.73C108.356 31.43 108.012 31.022 107.768 30.506C107.524 29.99 107.402 29.408 107.402 28.76C107.402 28.104 107.524 27.52 107.768 27.008C108.016 26.492 108.366 26.086 108.818 25.79C109.27 25.49 109.802 25.34 110.414 25.34C111.03 25.34 111.546 25.49 111.962 25.79C112.382 26.086 112.7 26.492 112.916 27.008C113.132 27.524 113.24 28.108 113.24 28.76C113.24 29.404 113.132 29.986 112.916 30.506C112.7 31.022 112.378 31.43 111.95 31.73C111.522 32.03 110.992 32.18 110.36 32.18ZM110.582 30.884C110.97 30.884 111.282 30.796 111.518 30.62C111.758 30.44 111.932 30.19 112.04 29.87C112.152 29.55 112.208 29.18 112.208 28.76C112.208 28.336 112.152 27.966 112.04 27.65C111.932 27.33 111.762 27.082 111.53 26.906C111.298 26.726 110.998 26.636 110.63 26.636C110.242 26.636 109.922 26.732 109.67 26.924C109.418 27.112 109.232 27.368 109.112 27.692C108.992 28.012 108.932 28.368 108.932 28.76C108.932 29.156 108.99 29.516 109.106 29.84C109.226 30.16 109.408 30.414 109.652 30.602C109.896 30.79 110.206 30.884 110.582 30.884ZM117.586 32.186C117.106 32.186 116.71 32.106 116.398 31.946C116.086 31.786 115.838 31.582 115.654 31.334C115.47 31.086 115.334 30.822 115.246 30.542C115.158 30.262 115.1 29.998 115.072 29.75C115.048 29.498 115.036 29.294 115.036 29.138V25.52H116.5V28.64C116.5 28.84 116.514 29.066 116.542 29.318C116.57 29.566 116.634 29.806 116.734 30.038C116.838 30.266 116.99 30.454 117.19 30.602C117.394 30.75 117.668 30.824 118.012 30.824C118.196 30.824 118.378 30.794 118.558 30.734C118.738 30.674 118.9 30.572 119.044 30.428C119.192 30.28 119.31 30.078 119.398 29.822C119.486 29.566 119.53 29.242 119.53 28.85L120.388 29.216C120.388 29.768 120.28 30.268 120.064 30.716C119.852 31.164 119.538 31.522 119.122 31.79C118.706 32.054 118.194 32.186 117.586 32.186ZM119.704 32V29.99H119.53V25.52H120.982V32H119.704ZM127.15 32V28.88C127.15 28.676 127.136 28.45 127.108 28.202C127.08 27.954 127.014 27.716 126.91 27.488C126.81 27.256 126.658 27.066 126.454 26.918C126.254 26.77 125.982 26.696 125.638 26.696C125.454 26.696 125.272 26.726 125.092 26.786C124.912 26.846 124.748 26.95 124.6 27.098C124.456 27.242 124.34 27.442 124.252 27.698C124.164 27.95 124.12 28.274 124.12 28.67L123.262 28.304C123.262 27.752 123.368 27.252 123.58 26.804C123.796 26.356 124.112 26 124.528 25.736C124.944 25.468 125.456 25.334 126.064 25.334C126.544 25.334 126.94 25.414 127.252 25.574C127.564 25.734 127.812 25.938 127.996 26.186C128.18 26.434 128.316 26.698 128.404 26.978C128.492 27.258 128.548 27.524 128.572 27.776C128.6 28.024 128.614 28.226 128.614 28.382V32H127.15ZM122.656 32V25.52H123.946V27.53H124.12V32H122.656ZM133.978 32C133.55 32.08 133.13 32.114 132.718 32.102C132.31 32.094 131.944 32.02 131.62 31.88C131.296 31.736 131.05 31.51 130.882 31.202C130.734 30.922 130.656 30.636 130.648 30.344C130.64 30.052 130.636 29.722 130.636 29.354V23.72H132.076V29.27C132.076 29.53 132.078 29.758 132.082 29.954C132.09 30.15 132.132 30.31 132.208 30.434C132.352 30.674 132.582 30.808 132.898 30.836C133.214 30.864 133.574 30.848 133.978 30.788V32ZM129.46 26.654V25.52H133.978V26.654H129.46ZM137.183 32.18C136.715 32.18 136.319 32.092 135.995 31.916C135.671 31.736 135.425 31.498 135.257 31.202C135.093 30.906 135.011 30.58 135.011 30.224C135.011 29.912 135.063 29.632 135.167 29.384C135.271 29.132 135.431 28.916 135.647 28.736C135.863 28.552 136.143 28.402 136.487 28.286C136.747 28.202 137.051 28.126 137.399 28.058C137.751 27.99 138.131 27.928 138.539 27.872C138.951 27.812 139.381 27.748 139.829 27.68L139.313 27.974C139.317 27.526 139.217 27.196 139.013 26.984C138.809 26.772 138.465 26.666 137.981 26.666C137.689 26.666 137.407 26.734 137.135 26.87C136.863 27.006 136.673 27.24 136.565 27.572L135.245 27.158C135.405 26.61 135.709 26.17 136.157 25.838C136.609 25.506 137.217 25.34 137.981 25.34C138.557 25.34 139.063 25.434 139.499 25.622C139.939 25.81 140.265 26.118 140.477 26.546C140.593 26.774 140.663 27.008 140.687 27.248C140.711 27.484 140.723 27.742 140.723 28.022V32H139.457V30.596L139.667 30.824C139.375 31.292 139.033 31.636 138.641 31.856C138.253 32.072 137.767 32.18 137.183 32.18ZM137.471 31.028C137.799 31.028 138.079 30.97 138.311 30.854C138.543 30.738 138.727 30.596 138.863 30.428C139.003 30.26 139.097 30.102 139.145 29.954C139.221 29.77 139.263 29.56 139.271 29.324C139.283 29.084 139.289 28.89 139.289 28.742L139.733 28.874C139.297 28.942 138.923 29.002 138.611 29.054C138.299 29.106 138.031 29.156 137.807 29.204C137.583 29.248 137.385 29.298 137.213 29.354C137.045 29.414 136.903 29.484 136.787 29.564C136.671 29.644 136.581 29.736 136.517 29.84C136.457 29.944 136.427 30.066 136.427 30.206C136.427 30.366 136.467 30.508 136.547 30.632C136.627 30.752 136.743 30.848 136.895 30.92C137.051 30.992 137.243 31.028 137.471 31.028ZM11.1454 52.18C10.4894 52.18 9.91338 52.038 9.41738 51.754C8.92138 51.47 8.53338 51.076 8.25338 50.572C7.97738 50.068 7.83938 49.488 7.83938 48.832C7.83938 48.124 7.97538 47.51 8.24738 46.99C8.51938 46.466 8.89738 46.06 9.38138 45.772C9.86538 45.484 10.4254 45.34 11.0614 45.34C11.7334 45.34 12.3034 45.498 12.7714 45.814C13.2434 46.126 13.5934 46.568 13.8214 47.14C14.0494 47.712 14.1354 48.386 14.0794 49.162H12.6454V48.634C12.6414 47.93 12.5174 47.416 12.2734 47.092C12.0294 46.768 11.6454 46.606 11.1214 46.606C10.5294 46.606 10.0894 46.79 9.80138 47.158C9.51338 47.522 9.36938 48.056 9.36938 48.76C9.36938 49.416 9.51338 49.924 9.80138 50.284C10.0894 50.644 10.5094 50.824 11.0614 50.824C11.4174 50.824 11.7234 50.746 11.9794 50.59C12.2394 50.43 12.4394 50.2 12.5794 49.9L14.0074 50.332C13.7594 50.916 13.3754 51.37 12.8554 51.694C12.3394 52.018 11.7694 52.18 11.1454 52.18ZM8.91338 49.162V48.07H13.3714V49.162H8.91338ZM17.8205 52V45.52H19.0985V47.098L18.9425 46.894C19.0225 46.678 19.1285 46.482 19.2605 46.306C19.3965 46.126 19.5585 45.978 19.7465 45.862C19.9065 45.754 20.0825 45.67 20.2745 45.61C20.4705 45.546 20.6705 45.508 20.8745 45.496C21.0785 45.48 21.2765 45.488 21.4685 45.52V46.87C21.2765 46.814 21.0545 46.796 20.8025 46.816C20.5545 46.836 20.3305 46.906 20.1305 47.026C19.9305 47.134 19.7665 47.272 19.6385 47.44C19.5145 47.608 19.4225 47.8 19.3625 48.016C19.3025 48.228 19.2725 48.458 19.2725 48.706V52H17.8205ZM25.4423 52.18C24.7863 52.18 24.2103 52.038 23.7143 51.754C23.2183 51.47 22.8303 51.076 22.5503 50.572C22.2743 50.068 22.1363 49.488 22.1363 48.832C22.1363 48.124 22.2723 47.51 22.5443 46.99C22.8163 46.466 23.1943 46.06 23.6783 45.772C24.1623 45.484 24.7223 45.34 25.3583 45.34C26.0303 45.34 26.6003 45.498 27.0683 45.814C27.5403 46.126 27.8903 46.568 28.1183 47.14C28.3463 47.712 28.4323 48.386 28.3763 49.162H26.9423V48.634C26.9383 47.93 26.8143 47.416 26.5703 47.092C26.3263 46.768 25.9423 46.606 25.4183 46.606C24.8263 46.606 24.3863 46.79 24.0983 47.158C23.8103 47.522 23.6663 48.056 23.6663 48.76C23.6663 49.416 23.8103 49.924 24.0983 50.284C24.3863 50.644 24.8063 50.824 25.3583 50.824C25.7143 50.824 26.0203 50.746 26.2763 50.59C26.5363 50.43 26.7363 50.2 26.8763 49.9L28.3043 50.332C28.0563 50.916 27.6723 51.37 27.1523 51.694C26.6363 52.018 26.0663 52.18 25.4423 52.18ZM23.2103 49.162V48.07H27.6683V49.162H23.2103ZM32.529 52.18C31.861 52.18 31.291 52.032 30.819 51.736C30.347 51.436 29.985 51.028 29.733 50.512C29.485 49.996 29.359 49.412 29.355 48.76C29.359 48.096 29.489 47.508 29.745 46.996C30.005 46.48 30.373 46.076 30.849 45.784C31.325 45.488 31.891 45.34 32.547 45.34C33.283 45.34 33.905 45.526 34.413 45.898C34.925 46.266 35.259 46.77 35.415 47.41L33.975 47.8C33.863 47.452 33.677 47.182 33.417 46.99C33.157 46.794 32.861 46.696 32.529 46.696C32.153 46.696 31.843 46.786 31.599 46.966C31.355 47.142 31.175 47.386 31.059 47.698C30.943 48.01 30.885 48.364 30.885 48.76C30.885 49.376 31.023 49.874 31.299 50.254C31.575 50.634 31.985 50.824 32.529 50.824C32.913 50.824 33.215 50.736 33.435 50.56C33.659 50.384 33.827 50.13 33.939 49.798L35.415 50.128C35.215 50.788 34.865 51.296 34.365 51.652C33.865 52.004 33.253 52.18 32.529 52.18ZM39.3876 52.18C38.7316 52.18 38.1556 52.038 37.6596 51.754C37.1636 51.47 36.7756 51.076 36.4956 50.572C36.2196 50.068 36.0816 49.488 36.0816 48.832C36.0816 48.124 36.2176 47.51 36.4896 46.99C36.7616 46.466 37.1396 46.06 37.6236 45.772C38.1076 45.484 38.6676 45.34 39.3036 45.34C39.9756 45.34 40.5456 45.498 41.0136 45.814C41.4856 46.126 41.8356 46.568 42.0636 47.14C42.2916 47.712 42.3776 48.386 42.3216 49.162H40.8876V48.634C40.8836 47.93 40.7596 47.416 40.5156 47.092C40.2716 46.768 39.8876 46.606 39.3636 46.606C38.7716 46.606 38.3316 46.79 38.0436 47.158C37.7556 47.522 37.6116 48.056 37.6116 48.76C37.6116 49.416 37.7556 49.924 38.0436 50.284C38.3316 50.644 38.7516 50.824 39.3036 50.824C39.6596 50.824 39.9656 50.746 40.2216 50.59C40.4816 50.43 40.6816 50.2 40.8216 49.9L42.2496 50.332C42.0016 50.916 41.6176 51.37 41.0976 51.694C40.5816 52.018 40.0116 52.18 39.3876 52.18ZM37.1556 49.162V48.07H41.6136V49.162H37.1556ZM46.7743 52.18C46.1423 52.18 45.6123 52.03 45.1843 51.73C44.7563 51.43 44.4343 51.022 44.2183 50.506C44.0023 49.986 43.8943 49.404 43.8943 48.76C43.8943 48.108 44.0023 47.524 44.2183 47.008C44.4343 46.492 44.7503 46.086 45.1663 45.79C45.5863 45.49 46.1043 45.34 46.7203 45.34C47.3323 45.34 47.8623 45.49 48.3103 45.79C48.7623 46.086 49.1123 46.492 49.3603 47.008C49.6083 47.52 49.7323 48.104 49.7323 48.76C49.7323 49.408 49.6103 49.99 49.3663 50.506C49.1223 51.022 48.7783 51.43 48.3343 51.73C47.8903 52.03 47.3703 52.18 46.7743 52.18ZM43.6483 52V43.36H45.1063V47.452H44.9263V52H43.6483ZM46.5523 50.884C46.9283 50.884 47.2383 50.79 47.4823 50.602C47.7263 50.414 47.9063 50.16 48.0223 49.84C48.1423 49.516 48.2023 49.156 48.2023 48.76C48.2023 48.368 48.1423 48.012 48.0223 47.692C47.9023 47.368 47.7163 47.112 47.4643 46.924C47.2123 46.732 46.8923 46.636 46.5043 46.636C46.1363 46.636 45.8363 46.726 45.6043 46.906C45.3723 47.082 45.2003 47.33 45.0883 47.65C44.9803 47.966 44.9263 48.336 44.9263 48.76C44.9263 49.18 44.9803 49.55 45.0883 49.87C45.2003 50.19 45.3743 50.44 45.6103 50.62C45.8503 50.796 46.1643 50.884 46.5523 50.884ZM52.8668 52.18C52.3988 52.18 52.0028 52.092 51.6788 51.916C51.3548 51.736 51.1088 51.498 50.9408 51.202C50.7768 50.906 50.6948 50.58 50.6948 50.224C50.6948 49.912 50.7468 49.632 50.8508 49.384C50.9548 49.132 51.1148 48.916 51.3308 48.736C51.5468 48.552 51.8268 48.402 52.1708 48.286C52.4308 48.202 52.7348 48.126 53.0828 48.058C53.4348 47.99 53.8148 47.928 54.2228 47.872C54.6348 47.812 55.0648 47.748 55.5128 47.68L54.9968 47.974C55.0008 47.526 54.9008 47.196 54.6968 46.984C54.4928 46.772 54.1488 46.666 53.6648 46.666C53.3728 46.666 53.0908 46.734 52.8188 46.87C52.5468 47.006 52.3568 47.24 52.2488 47.572L50.9288 47.158C51.0888 46.61 51.3928 46.17 51.8408 45.838C52.2928 45.506 52.9008 45.34 53.6648 45.34C54.2408 45.34 54.7468 45.434 55.1828 45.622C55.6228 45.81 55.9488 46.118 56.1608 46.546C56.2768 46.774 56.3468 47.008 56.3708 47.248C56.3948 47.484 56.4068 47.742 56.4068 48.022V52H55.1408V50.596L55.3508 50.824C55.0588 51.292 54.7168 51.636 54.3248 51.856C53.9368 52.072 53.4508 52.18 52.8668 52.18ZM53.1548 51.028C53.4828 51.028 53.7628 50.97 53.9948 50.854C54.2268 50.738 54.4108 50.596 54.5468 50.428C54.6868 50.26 54.7808 50.102 54.8288 49.954C54.9048 49.77 54.9468 49.56 54.9548 49.324C54.9668 49.084 54.9728 48.89 54.9728 48.742L55.4168 48.874C54.9808 48.942 54.6068 49.002 54.2948 49.054C53.9828 49.106 53.7148 49.156 53.4908 49.204C53.2668 49.248 53.0688 49.298 52.8968 49.354C52.7288 49.414 52.5868 49.484 52.4708 49.564C52.3548 49.644 52.2648 49.736 52.2008 49.84C52.1408 49.944 52.1108 50.066 52.1108 50.206C52.1108 50.366 52.1508 50.508 52.2308 50.632C52.3108 50.752 52.4268 50.848 52.5788 50.92C52.7348 50.992 52.9268 51.028 53.1548 51.028ZM62.8013 52.186C62.3213 52.186 61.9253 52.106 61.6133 51.946C61.3013 51.786 61.0533 51.582 60.8693 51.334C60.6853 51.086 60.5493 50.822 60.4613 50.542C60.3733 50.262 60.3153 49.998 60.2873 49.75C60.2633 49.498 60.2513 49.294 60.2513 49.138V45.52H61.7153V48.64C61.7153 48.84 61.7293 49.066 61.7573 49.318C61.7853 49.566 61.8493 49.806 61.9493 50.038C62.0533 50.266 62.2053 50.454 62.4053 50.602C62.6093 50.75 62.8833 50.824 63.2273 50.824C63.4113 50.824 63.5933 50.794 63.7733 50.734C63.9533 50.674 64.1153 50.572 64.2593 50.428C64.4073 50.28 64.5253 50.078 64.6133 49.822C64.7013 49.566 64.7453 49.242 64.7453 48.85L65.6033 49.216C65.6033 49.768 65.4953 50.268 65.2793 50.716C65.0673 51.164 64.7533 51.522 64.3373 51.79C63.9213 52.054 63.4093 52.186 62.8013 52.186ZM64.9193 52V49.99H64.7453V45.52H66.1973V52H64.9193ZM75.665 52V48.064C75.665 47.62 75.555 47.274 75.335 47.026C75.115 46.774 74.817 46.648 74.441 46.648C74.209 46.648 74.001 46.702 73.817 46.81C73.633 46.914 73.487 47.07 73.379 47.278C73.271 47.482 73.217 47.726 73.217 48.01L72.575 47.632C72.571 47.184 72.671 46.79 72.875 46.45C73.083 46.106 73.363 45.838 73.715 45.646C74.067 45.454 74.459 45.358 74.891 45.358C75.607 45.358 76.155 45.574 76.535 46.006C76.919 46.434 77.111 46.998 77.111 47.698V52H75.665ZM67.871 52V45.52H69.149V47.53H69.329V52H67.871ZM71.777 52V48.082C71.777 47.63 71.667 47.278 71.447 47.026C71.227 46.774 70.927 46.648 70.547 46.648C70.179 46.648 69.883 46.774 69.659 47.026C69.439 47.278 69.329 47.606 69.329 48.01L68.681 47.578C68.681 47.158 68.785 46.78 68.993 46.444C69.201 46.108 69.481 45.844 69.833 45.652C70.189 45.456 70.587 45.358 71.027 45.358C71.511 45.358 71.915 45.462 72.239 45.67C72.567 45.874 72.811 46.154 72.971 46.51C73.135 46.862 73.217 47.26 73.217 47.704V52H71.777ZM80.1183 54.88V53.524H80.4243C80.7763 53.524 81.0263 53.442 81.1743 53.278C81.3223 53.114 81.3963 52.872 81.3963 52.552V45.52H82.8363V53.2C82.8363 53.724 82.6823 54.134 82.3743 54.43C82.0703 54.73 81.6463 54.88 81.1023 54.88H80.1183ZM81.3963 44.536V43.21H82.8363V44.536H81.3963ZM87.3973 52.18C86.7493 52.18 86.1833 52.034 85.6993 51.742C85.2153 51.45 84.8393 51.048 84.5713 50.536C84.3073 50.02 84.1753 49.428 84.1753 48.76C84.1753 48.08 84.3113 47.484 84.5833 46.972C84.8553 46.46 85.2333 46.06 85.7173 45.772C86.2013 45.484 86.7613 45.34 87.3973 45.34C88.0493 45.34 88.6173 45.486 89.1013 45.778C89.5853 46.07 89.9613 46.474 90.2293 46.99C90.4973 47.502 90.6313 48.092 90.6313 48.76C90.6313 49.432 90.4953 50.026 90.2233 50.542C89.9553 51.054 89.5793 51.456 89.0953 51.748C88.6113 52.036 88.0453 52.18 87.3973 52.18ZM87.3973 50.824C87.9733 50.824 88.4013 50.632 88.6813 50.248C88.9613 49.864 89.1013 49.368 89.1013 48.76C89.1013 48.132 88.9593 47.632 88.6753 47.26C88.3913 46.884 87.9653 46.696 87.3973 46.696C87.0093 46.696 86.6893 46.784 86.4373 46.96C86.1893 47.132 86.0053 47.374 85.8853 47.686C85.7653 47.994 85.7053 48.352 85.7053 48.76C85.7053 49.388 85.8473 49.89 86.1313 50.266C86.4193 50.638 86.8413 50.824 87.3973 50.824ZM92.0733 44.536V43.21H93.5193V44.536H92.0733ZM92.0733 52V45.52H93.5193V52H92.0733ZM99.7986 52V48.88C99.7986 48.676 99.7846 48.45 99.7566 48.202C99.7286 47.954 99.6626 47.716 99.5586 47.488C99.4586 47.256 99.3066 47.066 99.1026 46.918C98.9026 46.77 98.6306 46.696 98.2866 46.696C98.1026 46.696 97.9206 46.726 97.7406 46.786C97.5606 46.846 97.3966 46.95 97.2486 47.098C97.1046 47.242 96.9886 47.442 96.9006 47.698C96.8126 47.95 96.7686 48.274 96.7686 48.67L95.9106 48.304C95.9106 47.752 96.0166 47.252 96.2286 46.804C96.4446 46.356 96.7606 46 97.1766 45.736C97.5926 45.468 98.1046 45.334 98.7126 45.334C99.1926 45.334 99.5886 45.414 99.9006 45.574C100.213 45.734 100.461 45.938 100.645 46.186C100.829 46.434 100.965 46.698 101.053 46.978C101.141 47.258 101.197 47.524 101.221 47.776C101.249 48.024 101.263 48.226 101.263 48.382V52H99.7986ZM95.3046 52V45.52H96.5946V47.53H96.7686V52H95.3046ZM107.31 52V48.88C107.31 48.676 107.296 48.45 107.268 48.202C107.24 47.954 107.174 47.716 107.07 47.488C106.97 47.256 106.818 47.066 106.614 46.918C106.414 46.77 106.142 46.696 105.798 46.696C105.614 46.696 105.432 46.726 105.252 46.786C105.072 46.846 104.908 46.95 104.76 47.098C104.616 47.242 104.5 47.442 104.412 47.698C104.324 47.95 104.28 48.274 104.28 48.67L103.422 48.304C103.422 47.752 103.528 47.252 103.74 46.804C103.956 46.356 104.272 46 104.688 45.736C105.104 45.468 105.616 45.334 106.224 45.334C106.704 45.334 107.1 45.414 107.412 45.574C107.724 45.734 107.972 45.938 108.156 46.186C108.34 46.434 108.476 46.698 108.564 46.978C108.652 47.258 108.708 47.524 108.732 47.776C108.76 48.024 108.774 48.226 108.774 48.382V52H107.31ZM102.816 52V43.36H104.106V47.908H104.28V52H102.816ZM112.152 52.18C111.684 52.18 111.288 52.092 110.964 51.916C110.64 51.736 110.394 51.498 110.226 51.202C110.062 50.906 109.98 50.58 109.98 50.224C109.98 49.912 110.032 49.632 110.136 49.384C110.24 49.132 110.4 48.916 110.616 48.736C110.832 48.552 111.112 48.402 111.456 48.286C111.716 48.202 112.02 48.126 112.368 48.058C112.72 47.99 113.1 47.928 113.508 47.872C113.92 47.812 114.35 47.748 114.798 47.68L114.282 47.974C114.286 47.526 114.186 47.196 113.982 46.984C113.778 46.772 113.434 46.666 112.95 46.666C112.658 46.666 112.376 46.734 112.104 46.87C111.832 47.006 111.642 47.24 111.534 47.572L110.214 47.158C110.374 46.61 110.678 46.17 111.126 45.838C111.578 45.506 112.186 45.34 112.95 45.34C113.526 45.34 114.032 45.434 114.468 45.622C114.908 45.81 115.234 46.118 115.446 46.546C115.562 46.774 115.632 47.008 115.656 47.248C115.68 47.484 115.692 47.742 115.692 48.022V52H114.426V50.596L114.636 50.824C114.344 51.292 114.002 51.636 113.61 51.856C113.222 52.072 112.736 52.18 112.152 52.18ZM112.44 51.028C112.768 51.028 113.048 50.97 113.28 50.854C113.512 50.738 113.696 50.596 113.832 50.428C113.972 50.26 114.066 50.102 114.114 49.954C114.19 49.77 114.232 49.56 114.24 49.324C114.252 49.084 114.258 48.89 114.258 48.742L114.702 48.874C114.266 48.942 113.892 49.002 113.58 49.054C113.268 49.106 113 49.156 112.776 49.204C112.552 49.248 112.354 49.298 112.182 49.354C112.014 49.414 111.872 49.484 111.756 49.564C111.64 49.644 111.55 49.736 111.486 49.84C111.426 49.944 111.396 50.066 111.396 50.206C111.396 50.366 111.436 50.508 111.516 50.632C111.596 50.752 111.712 50.848 111.864 50.92C112.02 50.992 112.212 51.028 112.44 51.028ZM122.254 52.18C121.658 52.18 121.138 52.03 120.694 51.73C120.25 51.43 119.906 51.022 119.662 50.506C119.418 49.99 119.296 49.408 119.296 48.76C119.296 48.104 119.418 47.52 119.662 47.008C119.91 46.492 120.26 46.086 120.712 45.79C121.164 45.49 121.696 45.34 122.308 45.34C122.924 45.34 123.44 45.49 123.856 45.79C124.276 46.086 124.594 46.492 124.81 47.008C125.026 47.524 125.134 48.108 125.134 48.76C125.134 49.404 125.026 49.986 124.81 50.506C124.594 51.022 124.272 51.43 123.844 51.73C123.416 52.03 122.886 52.18 122.254 52.18ZM122.476 50.884C122.864 50.884 123.176 50.796 123.412 50.62C123.652 50.44 123.826 50.19 123.934 49.87C124.046 49.55 124.102 49.18 124.102 48.76C124.102 48.336 124.046 47.966 123.934 47.65C123.826 47.33 123.656 47.082 123.424 46.906C123.192 46.726 122.892 46.636 122.524 46.636C122.136 46.636 121.816 46.732 121.564 46.924C121.312 47.112 121.126 47.368 121.006 47.692C120.886 48.012 120.826 48.368 120.826 48.76C120.826 49.156 120.884 49.516 121 49.84C121.12 50.16 121.302 50.414 121.546 50.602C121.79 50.79 122.1 50.884 122.476 50.884ZM124.102 52V47.452H123.922V43.36H125.38V52H124.102ZM129.925 52.18C129.277 52.18 128.711 52.034 128.227 51.742C127.743 51.45 127.367 51.048 127.099 50.536C126.835 50.02 126.703 49.428 126.703 48.76C126.703 48.08 126.839 47.484 127.111 46.972C127.383 46.46 127.761 46.06 128.245 45.772C128.729 45.484 129.289 45.34 129.925 45.34C130.577 45.34 131.145 45.486 131.629 45.778C132.113 46.07 132.489 46.474 132.757 46.99C133.025 47.502 133.159 48.092 133.159 48.76C133.159 49.432 133.023 50.026 132.751 50.542C132.483 51.054 132.107 51.456 131.623 51.748C131.139 52.036 130.573 52.18 129.925 52.18ZM129.925 50.824C130.501 50.824 130.929 50.632 131.209 50.248C131.489 49.864 131.629 49.368 131.629 48.76C131.629 48.132 131.487 47.632 131.203 47.26C130.919 46.884 130.493 46.696 129.925 46.696C129.537 46.696 129.217 46.784 128.965 46.96C128.717 47.132 128.533 47.374 128.413 47.686C128.293 47.994 128.233 48.352 128.233 48.76C128.233 49.388 128.375 49.89 128.659 50.266C128.947 50.638 129.369 50.824 129.925 50.824ZM57.402 72.18C56.934 72.18 56.538 72.092 56.214 71.916C55.89 71.736 55.644 71.498 55.476 71.202C55.312 70.906 55.23 70.58 55.23 70.224C55.23 69.912 55.282 69.632 55.386 69.384C55.49 69.132 55.65 68.916 55.866 68.736C56.082 68.552 56.362 68.402 56.706 68.286C56.966 68.202 57.27 68.126 57.618 68.058C57.97 67.99 58.35 67.928 58.758 67.872C59.17 67.812 59.6 67.748 60.048 67.68L59.532 67.974C59.536 67.526 59.436 67.196 59.232 66.984C59.028 66.772 58.684 66.666 58.2 66.666C57.908 66.666 57.626 66.734 57.354 66.87C57.082 67.006 56.892 67.24 56.784 67.572L55.464 67.158C55.624 66.61 55.928 66.17 56.376 65.838C56.828 65.506 57.436 65.34 58.2 65.34C58.776 65.34 59.282 65.434 59.718 65.622C60.158 65.81 60.484 66.118 60.696 66.546C60.812 66.774 60.882 67.008 60.906 67.248C60.93 67.484 60.942 67.742 60.942 68.022V72H59.676V70.596L59.886 70.824C59.594 71.292 59.252 71.636 58.86 71.856C58.472 72.072 57.986 72.18 57.402 72.18ZM57.69 71.028C58.018 71.028 58.298 70.97 58.53 70.854C58.762 70.738 58.946 70.596 59.082 70.428C59.222 70.26 59.316 70.102 59.364 69.954C59.44 69.77 59.482 69.56 59.49 69.324C59.502 69.084 59.508 68.89 59.508 68.742L59.952 68.874C59.516 68.942 59.142 69.002 58.83 69.054C58.518 69.106 58.25 69.156 58.026 69.204C57.802 69.248 57.604 69.298 57.432 69.354C57.264 69.414 57.122 69.484 57.006 69.564C56.89 69.644 56.8 69.736 56.736 69.84C56.676 69.944 56.646 70.066 56.646 70.206C56.646 70.366 56.686 70.508 56.766 70.632C56.846 70.752 56.962 70.848 57.114 70.92C57.27 70.992 57.462 71.028 57.69 71.028ZM64.9341 72.186C64.4541 72.186 64.0581 72.106 63.7461 71.946C63.4341 71.786 63.1861 71.582 63.0021 71.334C62.8181 71.086 62.6821 70.822 62.5941 70.542C62.5061 70.262 62.4481 69.998 62.4201 69.75C62.3961 69.498 62.3841 69.294 62.3841 69.138V65.52H63.8481V68.64C63.8481 68.84 63.8621 69.066 63.8901 69.318C63.9181 69.566 63.9821 69.806 64.0821 70.038C64.1861 70.266 64.3381 70.454 64.5381 70.602C64.7421 70.75 65.0161 70.824 65.3601 70.824C65.5441 70.824 65.7261 70.794 65.9061 70.734C66.0861 70.674 66.2481 70.572 66.3921 70.428C66.5401 70.28 66.6581 70.078 66.7461 69.822C66.8341 69.566 66.8781 69.242 66.8781 68.85L67.7361 69.216C67.7361 69.768 67.6281 70.268 67.4121 70.716C67.2001 71.164 66.8861 71.522 66.4701 71.79C66.0541 72.054 65.5421 72.186 64.9341 72.186ZM67.0521 72V69.99H66.8781V65.52H68.3301V72H67.0521ZM73.8138 72C73.3858 72.08 72.9658 72.114 72.5538 72.102C72.1458 72.094 71.7798 72.02 71.4558 71.88C71.1318 71.736 70.8858 71.51 70.7178 71.202C70.5698 70.922 70.4918 70.636 70.4838 70.344C70.4758 70.052 70.4718 69.722 70.4718 69.354V63.72H71.9118V69.27C71.9118 69.53 71.9138 69.758 71.9178 69.954C71.9258 70.15 71.9678 70.31 72.0438 70.434C72.1878 70.674 72.4178 70.808 72.7338 70.836C73.0498 70.864 73.4098 70.848 73.8138 70.788V72ZM69.2958 66.654V65.52H73.8138V66.654H69.2958ZM77.7411 72.18C77.0931 72.18 76.5271 72.034 76.0431 71.742C75.5591 71.45 75.1831 71.048 74.9151 70.536C74.6511 70.02 74.5191 69.428 74.5191 68.76C74.5191 68.08 74.6551 67.484 74.9271 66.972C75.1991 66.46 75.5771 66.06 76.0611 65.772C76.5451 65.484 77.1051 65.34 77.7411 65.34C78.3931 65.34 78.9611 65.486 79.4451 65.778C79.9291 66.07 80.3051 66.474 80.5731 66.99C80.8411 67.502 80.9751 68.092 80.9751 68.76C80.9751 69.432 80.8391 70.026 80.5671 70.542C80.2991 71.054 79.9231 71.456 79.4391 71.748C78.9551 72.036 78.3891 72.18 77.7411 72.18ZM77.7411 70.824C78.3171 70.824 78.7451 70.632 79.0251 70.248C79.3051 69.864 79.4451 69.368 79.4451 68.76C79.4451 68.132 79.3031 67.632 79.0191 67.26C78.7351 66.884 78.3091 66.696 77.7411 66.696C77.3531 66.696 77.0331 66.784 76.7811 66.96C76.5331 67.132 76.3491 67.374 76.2291 67.686C76.1091 67.994 76.0491 68.352 76.0491 68.76C76.0491 69.388 76.1911 69.89 76.4751 70.266C76.7631 70.638 77.1851 70.824 77.7411 70.824ZM82.297 72V65.52H83.575V67.098L83.419 66.894C83.499 66.678 83.605 66.482 83.737 66.306C83.873 66.126 84.035 65.978 84.223 65.862C84.383 65.754 84.559 65.67 84.751 65.61C84.947 65.546 85.147 65.508 85.351 65.496C85.555 65.48 85.753 65.488 85.945 65.52V66.87C85.753 66.814 85.531 66.796 85.279 66.816C85.031 66.836 84.807 66.906 84.607 67.026C84.407 67.134 84.243 67.272 84.115 67.44C83.991 67.608 83.899 67.8 83.839 68.016C83.779 68.228 83.749 68.458 83.749 68.706V72H82.297Z" fill="#240046"/>
</svg>
