<svg width="100" height="100" viewBox="0 0 100 100" fill="none" xmlns="http://www.w3.org/2000/svg">
<ellipse cx="49.987" cy="49.9645" rx="49.987" ry="49.9643" fill="#F9DAFB"/>
<path d="M67.3274 3C67.3274 3 73.714 5.23674 77.4031 7.5C81.5387 10.0372 83.7294 11.8392 86.999 15.5C91.7499 20.8193 93.6414 24.7059 96.1152 31.5C98.553 38.1953 99.7972 42.3416 99.9862 49.5C100.136 55.1907 98.0343 64 98.0343 64H67.3274V3Z" fill="#D65A05"/>
<path d="M73.3567 5.5C73.3567 5.5 77.3528 7.07068 80.1267 9.00002C83.2363 11.1629 85.4053 12.8793 87.8638 16C91.436 20.5345 93.3612 23.8429 95.6009 29.5C97.9764 35.5 99.8441 42.8978 99.9862 49C100.099 53.8511 99.4837 57 99.4837 57H73.3567V5.5Z" fill="#00D591"/>
<path d="M29.9925 75.4462C25.1272 80.3096 25.2409 85.2925 25.4743 92.8106C25.4862 93.1913 25.7195 93.5365 26.0668 93.6927C44.7926 102.116 55.4887 102.055 73.926 93.6866C74.2638 93.5333 74.4942 93.2014 74.5123 92.8309C74.8453 86.0082 74.3671 79.8148 70.482 75.4462C66.8401 71.3513 61.9552 69.7424 61.1112 69.4875C61.0261 69.4618 60.9394 69.4505 60.8506 69.4505H39.1132C39.0315 69.4505 38.9518 69.46 38.8735 69.4834C38.1813 69.69 34.4917 70.9488 29.9925 75.4462Z" fill="#6E10A1"/>
<path d="M41.989 98.1335V76.9459C41.989 76.3936 42.4367 75.9459 42.989 75.9459H56.9849C57.5371 75.9459 57.9849 76.3936 57.9849 76.9459V98.1301C57.9849 98.5975 57.6595 99.0038 57.2026 99.102C51.7362 100.277 48.3428 100.321 42.7674 99.1041C42.3123 99.0048 41.989 98.5994 41.989 98.1335Z" fill="white"/>
<path d="M39.4825 69.0676L43.218 66.1635C43.3935 66.0271 43.6095 65.953 43.8318 65.953H55.6705C55.8756 65.953 56.0757 66.0161 56.2438 66.1336L60.4205 69.056C60.76 69.2936 60.9179 69.716 60.8173 70.118L58.3187 80.1079C58.154 80.7666 57.3947 81.0731 56.8188 80.7133L50.5012 76.7667C50.1853 76.5693 49.7857 76.5639 49.4646 76.7527L42.6908 80.7355C42.1008 81.0824 41.3446 80.7475 41.205 80.0775L39.1173 70.0612C39.0394 69.6874 39.1811 69.302 39.4825 69.0676Z" fill="#D8D8D8"/>
<path d="M43.968 72.5765L43.5474 65.01C43.5156 64.4368 43.9718 63.9545 44.5459 63.9545H55.4854C56.0377 63.9545 56.4854 64.4022 56.4854 64.9545V72.532C56.4854 72.7983 56.3812 73.0519 56.1848 73.2316C55.2592 74.0787 52.3707 76.5269 49.9871 76.4455C47.7349 76.3687 45.0838 74.0046 44.2519 73.2075C44.0786 73.0415 43.9813 72.8162 43.968 72.5765Z" fill="#EAA27F"/>
<path d="M47.4402 77.9002L49.4507 76.7519C49.7795 76.5641 50.1861 76.5781 50.5012 76.7881L52.1925 77.9151C52.6369 78.2112 52.7702 78.8041 52.4954 79.2619L49.9871 83.4405C49.9871 83.4405 54.4859 98.9294 54.4859 99.4291C54.4859 99.9287 45.4883 99.9287 45.4883 99.4291C45.4883 98.9294 49.9871 83.4405 49.9871 83.4405L47.117 79.3422C46.7794 78.8601 46.9291 78.1921 47.4402 77.9002Z" fill="#F22C57"/>
<ellipse cx="74.481" cy="48.4655" rx="6.49831" ry="6.49535" fill="#F6BA97"/>
<ellipse cx="74.481" cy="48.4655" rx="2.49935" ry="2.49821" fill="#EAA27F"/>
<ellipse cx="25.4937" cy="48.4655" rx="6.49831" ry="6.49535" fill="#F6BA97"/>
<ellipse cx="25.4937" cy="48.4655" rx="2.49935" ry="2.49821" fill="#EAA27F"/>
<path d="M73.9809 42.9694C73.9809 57.3186 63.2386 68.9509 49.9872 68.9509C36.7358 68.9509 25.9934 57.3186 25.9934 42.9694C25.9934 28.6203 36.7358 17.4877 49.9872 17.4877C63.2386 17.4877 73.9809 28.6203 73.9809 42.9694Z" fill="#F6BA97"/>
<path d="M46.9875 45.9673H52.4861" stroke="#9710A1" stroke-width="2" stroke-linecap="square"/>
<path d="M65.9827 44.4691L68.482 43.4691" stroke="#9710A1" stroke-width="2" stroke-linecap="square"/>
<path d="M43.9883 30.978C48.6418 32.9942 51.3158 32.9944 55.9852 30.978" stroke="#EAA27F" stroke-width="2" stroke-linecap="round"/>
<path d="M46.4878 51.4634H53.486" stroke="#EAA27F" stroke-width="2" stroke-linecap="round"/>
<path d="M43.9883 57.9587C48.6682 59.672 51.3066 59.7579 55.9852 57.9587" stroke="#EAA27F" stroke-width="2" stroke-linecap="round"/>
<path d="M61.9835 38.9723H52.9858C53.6377 36.625 54.4855 34.9751 57.9845 34.9752C61.4836 34.9752 61.9835 38.9723 61.9835 38.9723Z" fill="white"/>
<path d="M46.9877 38.9723H37.99C38.6418 36.625 39.4896 34.9751 42.9887 34.9752C46.4878 34.9752 46.9877 38.9723 46.9877 38.9723Z" fill="white"/>
<path d="M46.9873 46.4669C46.9873 50.0534 44.0785 52.9616 40.4893 52.9616C36.9001 52.9616 33.9912 50.0534 33.9912 46.4669C33.9912 42.8805 36.9001 39.9723 40.4893 39.9723C44.0785 39.9723 46.9873 42.8805 46.9873 46.4669Z" fill="#C1DCE5" stroke="#9710A1" stroke-width="2"/>
<ellipse cx="42.7885" cy="45.7675" rx="2.79927" ry="2.798" fill="black"/>
<ellipse cx="43.4884" cy="45.4677" rx="1.49961" ry="1.49893" fill="white"/>
<path d="M65.9822 46.4669C65.9822 50.0534 63.0733 52.9616 59.4841 52.9616C55.8949 52.9616 52.9861 50.0534 52.9861 46.4669C52.9861 42.8805 55.8949 39.9723 59.4841 39.9723C63.0733 39.9723 65.9822 42.8805 65.9822 46.4669Z" fill="#C1DCE5" stroke="#9710A1" stroke-width="2"/>
<path d="M31.9915 43.9688L33.4911 44.4688" stroke="#9710A1" stroke-width="2" stroke-linecap="square"/>
<path d="M54.2834 64.6143C53.6956 63.6669 51.9068 61.0563 49.9867 60.9566C47.9579 60.8513 45.9254 63.5568 45.235 64.5743C45.0734 64.8125 45.0368 65.1123 45.1281 65.3853C46.0479 68.1354 47.1565 69.8246 49.2719 72.1702C49.6562 72.5963 50.3232 72.6011 50.708 72.1755C52.6436 70.035 53.5842 68.35 54.3858 65.338C54.4513 65.092 54.4176 64.8307 54.2834 64.6143Z" fill="white"/>
<ellipse cx="57.7846" cy="45.7675" rx="2.79927" ry="2.798" fill="black"/>
<ellipse cx="58.4845" cy="45.4677" rx="1.49961" ry="1.49893" fill="white"/>
<ellipse cx="32.9911" cy="17.4876" rx="5.99844" ry="5.49607" fill="white"/>
<ellipse cx="37.9899" cy="21.9845" rx="5.99844" ry="5.99571" fill="white"/>
<ellipse cx="37.9899" cy="25.9816" rx="5.99844" ry="5.99571" fill="white"/>
<ellipse cx="30.9916" cy="32.9766" rx="5.99844" ry="5.99571" fill="white"/>
<ellipse cx="28.9921" cy="38.9723" rx="5.99844" ry="5.99571" fill="white"/>
<ellipse cx="25.4929" cy="30.4784" rx="9.49753" ry="10.4925" fill="white"/>
<ellipse cx="61.9835" cy="22.4841" rx="5.99844" ry="6.49535" fill="white"/>
<ellipse cx="62.9833" cy="25.482" rx="5.99844" ry="6.49535" fill="white"/>
<ellipse cx="71.4812" cy="38.4726" rx="6.49831" ry="6.49535" fill="white"/>
<ellipse cx="73.4807" cy="30.4784" rx="10.4973" ry="10.4925" fill="white"/>
<ellipse cx="66.4827" cy="19.4862" rx="6.49831" ry="7.49464" fill="white"/>
<path d="M12.4968 82.9409L13.9964 1.49912C13.9964 1.49912 14.6681 0.0194363 15.496 0.00018949C16.4718 -0.0224931 16.9957 1.99876 16.9957 1.99876L17.4955 87.4377L12.4968 82.9409Z" fill="#D65A05"/>
<path d="M12.8549 61.9559H17.4371L17.8953 88.4369L12.3967 82.9409L12.8549 61.9559Z" fill="#1C54F5"/>
<path d="M10.4969 75.7528C10.497 77.1876 10.4972 80.0695 10.4968 80.4427C10.4963 80.9422 15.6214 86.0646 15.9949 86.438L15.9954 86.4384C16.1973 86.6402 16.6258 86.6217 16.9732 86.5632C17.3247 86.5041 17.6481 86.3414 17.9392 86.1357C19.8991 84.7508 20.6638 83.4685 20.9941 80.4427V75.7024C20.9941 75.203 20.9068 74.7046 20.7007 74.2497C19.6014 71.8227 18.0323 70.3304 15.4955 70.4499C13.1184 70.5618 11.8849 71.9273 10.8226 74.2085C10.5978 74.6913 10.4969 75.2203 10.4969 75.7528Z" fill="#F6BA97"/>
</svg>
