<svg width="100" height="100" viewBox="0 0 100 100" fill="none" xmlns="http://www.w3.org/2000/svg">
<ellipse cx="50" cy="52" rx="50" ry="48" fill="#F9DAFB"/>
<path d="M60.965 51H17.8432C17.7539 51 17.6648 51.0118 17.5788 51.0361C16.521 51.3351 15.9133 51.6373 15.2335 52.7755C15.1466 52.9211 15.1045 53.089 15.1045 53.2586V87.7576C15.1045 87.9169 15.1421 88.0748 15.2177 88.215C16.101 89.8528 16.9559 90.4598 19.3713 90.0741C19.6399 90.0312 19.9207 90.0914 20.1434 90.2477C32.9696 99.2547 42.2081 101.736 63.743 98.1423C64.2233 98.0621 64.5837 97.644 64.5837 97.157V74.4043C64.5837 73.4532 65.7862 73.0392 66.3717 73.7887L73.6584 83.1156C73.8479 83.3582 74.1386 83.5 74.4464 83.5H78.0986C78.1164 83.5 78.1314 83.4997 78.1492 83.4985C78.5159 83.474 82.9949 83.1159 84.3029 80.1739C84.3533 80.0607 84.3753 79.9364 84.3753 79.8125V49C84.3753 48.4477 83.9276 48 83.3753 48H75.4795C74.9272 48 74.4795 48.4477 74.4795 49V65.0498C74.4795 66.0057 73.2669 66.4168 72.6856 65.6579L61.7589 51.3919C61.5696 51.1449 61.2762 51 60.965 51Z" fill="#0D2775"/>
<path d="M79.5858 4.8036C79.3619 4.39687 78.7923 3.5 78.125 3.5C77.4603 3.5 76.8926 4.38987 76.6668 4.79881C76.5945 4.9298 76.5633 5.07767 76.5649 5.22729L77.0812 53.7993C77.0826 53.9318 77.1096 54.0622 77.1691 54.1806C77.3834 54.6066 77.9737 55.6291 78.6458 55.5C79.2386 55.3862 79.5619 54.4408 79.6572 54.1121C79.6788 54.0376 79.6875 53.9608 79.6875 53.8832V5.22172C79.6875 5.07568 79.6563 4.93153 79.5858 4.8036Z" fill="#994334"/>
<path d="M77.6038 37.5C75.6799 37.5 73.4506 39.4736 72.6769 40.2193C72.4929 40.3966 72.3955 40.6424 72.3955 40.8979V49.1566C72.3955 49.3791 72.4682 49.5938 72.6124 49.7634C73.3049 50.5777 75.5384 53 77.6038 53C79.6693 53 81.9028 50.5777 82.5953 49.7634C82.7395 49.5938 82.8122 49.3791 82.8122 49.1566V40.8979C82.8122 40.6424 82.7147 40.3966 82.5308 40.2193C81.7571 39.4736 79.5277 37.5 77.6038 37.5Z" fill="#F4B978"/>
<path d="M53.6875 48H30.6875C30.1352 48 29.6875 48.4477 29.6875 49V60.1107C29.6875 60.9136 30.5859 61.3891 31.2498 60.9376L41.6252 53.8824C41.9645 53.6516 42.4104 53.6516 42.7498 53.8824L53.1252 60.9376C53.7891 61.3891 54.6875 60.9136 54.6875 60.1107V49C54.6875 48.4477 54.2398 48 53.6875 48Z" fill="white"/>
<path d="M46.958 45H36.8955C35.7909 45 34.8955 45.8954 34.8955 47V52.0034C34.8955 52.631 35.1901 53.2222 35.6911 53.6001L40.9371 57.5571C41.6714 58.1109 42.6887 58.0926 43.4025 57.5128L48.219 53.6003C48.6865 53.2205 48.958 52.6503 48.958 52.0479V47C48.958 45.8954 48.0626 45 46.958 45Z" fill="#FFC987" stroke="#FFC987" stroke-linecap="round"/>
<path d="M47.959 59.5H21.8757C21.6938 59.5 21.5464 59.6474 21.5464 59.8293V94C21.5464 94.5523 21.9941 95 22.5464 95H47.959C48.5113 95 48.959 94.5523 48.959 94V60.5C48.959 59.9477 48.5113 59.5 47.959 59.5Z" fill="#6E10A1"/>
<path d="M39.6247 80.5H19.7913C19.5037 80.5 19.2705 80.7332 19.2705 81.0208V88.5231C19.2705 89.0663 19.7041 89.5102 20.2471 89.5229L39.6013 89.976C40.1626 89.9892 40.6247 89.5378 40.6247 88.9763V81.5C40.6247 80.9477 40.177 80.5 39.6247 80.5Z" fill="#0D2775"/>
<path d="M38.0205 90V80C38.0205 79.7239 38.2444 79.5 38.5205 79.5H40.1831C40.4644 79.5 40.7327 79.3815 40.9221 79.1736L43.973 75.8264C44.1625 75.6185 44.4308 75.5 44.7121 75.5H45.9897C46.6775 75.5 47.16 76.1783 46.9344 76.828L46.2941 78.672C46.0685 79.3217 46.551 80 47.2388 80H49.5205C50.0728 80 50.5205 80.4477 50.5205 81V90C50.5205 90.5523 50.0728 91 49.5205 91H39.0205C38.4682 91 38.0205 90.5523 38.0205 90Z" fill="#F4B978"/>
<path d="M36.5 56H33.8125C33.2602 56 32.8125 56.4477 32.8125 57V58.5C32.8125 59.0523 33.2602 59.5 33.8125 59.5H36.5C37.0523 59.5 37.5 59.0523 37.5 58.5V57C37.5 56.4477 37.0523 56 36.5 56Z" fill="#75FFD0"/>
<path d="M41.1875 58.5H29.125C28.5727 58.5 28.125 58.9477 28.125 59.5V61C28.125 61.5523 28.5727 62 29.125 62H41.1875C41.7398 62 42.1875 61.5523 42.1875 61V59.5C42.1875 58.9477 41.7398 58.5 41.1875 58.5Z" fill="#00D591"/>
<path d="M43.6498 0H25.6586C25.5674 0 25.4753 0.0126857 25.3876 0.0379289C22.2531 0.940766 21.0538 2.18067 19.8559 5.33009C19.8136 5.44146 19.792 5.56102 19.792 5.68017V41.3224C19.792 41.4399 19.8131 41.5583 19.8546 41.6682C21.234 45.3201 22.8981 46.1322 26.5628 46.5H58.2108C58.2924 46.5 58.3745 46.4897 58.4537 46.4703C61.1315 45.8122 62.8326 45.7049 63.5284 41.5819C63.5374 41.5287 63.542 41.4729 63.542 41.4188V7.6349C63.542 7.54537 63.5299 7.45525 63.5055 7.36911C62.7984 4.87488 61.8363 3.78995 58.4414 3.02403C58.3708 3.0081 58.2972 3 58.2248 3H48.584C48.1801 3 47.8226 2.75263 47.6359 2.39452C46.8044 0.800144 45.7437 0.410465 43.8495 0.0202905C43.7841 0.00680569 43.7167 0 43.6498 0Z" fill="#10002B"/>
<path d="M25.0009 36.5C24.3986 33.0273 24.4496 17.1178 24.4735 12.9839C24.4766 12.4349 24.9227 12 25.4717 12H58.4023C58.9442 12 59.387 12.4229 59.4001 12.9646C59.4966 16.9555 59.8271 32.1686 59.3759 36.5C58.8551 41.5 50.2505 49.1179 41.6676 49C33.2477 48.8843 25.6947 40.5 25.0009 36.5Z" fill="#FFE0B3"/>
<path d="M50.098 13.5H60.9788C61.5311 13.5 61.9788 13.0523 61.9788 12.5V11.0127C61.9788 10.4555 61.5234 10.0058 60.9662 10.0128L23.3829 10.4875C22.8356 10.4944 22.3955 10.9401 22.3955 11.4874V26.5C22.3955 27.0523 22.8432 27.5 23.3955 27.5H30.5293C30.661 27.5 30.7947 27.4727 30.9162 27.422C42.6242 22.5404 46.3617 19.4787 49.1975 14.0517C49.3732 13.7155 49.7186 13.5 50.098 13.5Z" fill="#10002B"/>
<path d="M47.917 21.5H54.167" stroke="#240046" stroke-width="3" stroke-linecap="round"/>
<path d="M41.1455 28.5V35C41.1455 35.5523 41.5932 36 42.1455 36H44.7913" stroke="#FF9F60" stroke-width="3" stroke-linecap="round"/>
<path d="M35.417 40.5C40.8798 43.6266 43.7591 43.7952 48.4378 40.5" stroke="#FF9F60" stroke-width="3" stroke-linecap="round"/>
<rect x="22.875" y="23" width="17.7917" height="11" rx="3" stroke="#F22C57" stroke-width="2"/>
<rect x="43.708" y="23" width="17.7917" height="11" rx="3" stroke="#F22C57" stroke-width="2"/>
<path d="M40.1045 27H44.2712" stroke="#F22C57" stroke-linecap="square"/>
<path d="M33.333 28V29.5" stroke="#1C54F5" stroke-width="5" stroke-linecap="round"/>
<path d="M51.042 28V29.5" stroke="#1C54F5" stroke-width="5" stroke-linecap="round"/>
</svg>
