<svg width="80" height="87" viewBox="0 0 80 87" fill="none" xmlns="http://www.w3.org/2000/svg">
<ellipse cx="40" cy="47.3382" rx="40" ry="39.6618" fill="#F9DAFB"/>
<rect x="5.87094" y="2.50684" width="58.6672" height="70.1917" rx="5" fill="#1C54F5"/>
<path d="M57.1211 6.83685H13.0614C11.4046 6.83685 10.0614 8.18 10.0614 9.83685V52.0968C10.0614 52.8854 10.3719 53.6422 10.9257 54.2036L24.1303 67.5893C24.694 68.1608 25.4632 68.4825 26.266 68.4825H57.1211C58.7779 68.4825 60.1211 67.1394 60.1211 65.4825V9.83685C60.1211 8.18 58.7779 6.83685 57.1211 6.83685Z" fill="white"/>
<path d="M25.0113 53.4414H9.9481L25.0113 68.4825V53.4414Z" fill="#F22C57"/>
<path d="M23.7655 0H46.4169V8.67371C46.4169 11.4351 44.1784 13.6737 41.4169 13.6737H28.7655C26.0041 13.6737 23.7655 11.4351 23.7655 8.67371V0Z" fill="#F22C57"/>
<rect x="19.2353" y="18.2316" width="4.53029" height="4.5579" rx="2.26514" fill="#240046"/>
<rect x="28.2958" y="18.2316" width="22.6514" height="4.5579" rx="2.27895" fill="#240046"/>
<rect x="28.2958" y="27.3474" width="18.1211" height="4.5579" rx="2.27895" fill="#240046"/>
<rect x="28.2958" y="36.4633" width="9.06057" height="4.5579" rx="2.27895" fill="#240046"/>
<rect x="19.2353" y="27.3474" width="4.53029" height="4.5579" rx="2.26514" fill="#240046"/>
<rect x="19.2353" y="36.4633" width="4.53029" height="4.5579" rx="2.26514" fill="#240046"/>
<rect x="19.2353" y="45.5791" width="4.53029" height="4.5579" rx="2.26514" fill="#240046"/>
<ellipse cx="57.7427" cy="52.4158" rx="20.3863" ry="20.5106" fill="#01EAA0"/>
<path d="M49.897 57.9772L63.4756 46.5139C64.4829 45.6636 65.9839 45.7949 66.8283 46.8073C67.6726 47.8196 67.5405 49.3297 66.5332 50.1801L52.9546 61.6433L49.897 57.9772Z" fill="white"/>
<path d="M48.7232 53.6019C49.6858 52.7028 51.1904 52.7587 52.0837 53.7268L56.1845 58.1711L52.6984 61.4272L48.5975 56.9829C47.7043 56.0148 47.7605 54.5011 48.7232 53.6019Z" fill="white"/>
</svg>
