<svg width="427" height="95" viewBox="0 0 427 95" fill="none" xmlns="http://www.w3.org/2000/svg">
<path d="M0 0H427V35C427 68.1371 400.137 95 367 95H60C26.8629 95 0 68.1371 0 35V0Z" fill="#F7ECFD"/>
<path d="M254.24 60V36.96H263.76C263.984 36.96 264.272 36.9707 264.624 36.992C264.976 37.0027 265.301 37.0347 265.6 37.088C266.933 37.2907 268.032 37.7333 268.896 38.416C269.771 39.0987 270.416 39.9627 270.832 41.008C271.259 42.0427 271.472 43.1947 271.472 44.464C271.472 45.7227 271.259 46.8747 270.832 47.92C270.405 48.9547 269.755 49.8133 268.88 50.496C268.016 51.1787 266.923 51.6213 265.6 51.824C265.301 51.8667 264.971 51.8987 264.608 51.92C264.256 51.9413 263.973 51.952 263.76 51.952H258.096V60H254.24ZM258.096 48.352H263.6C263.813 48.352 264.053 48.3413 264.32 48.32C264.587 48.2987 264.832 48.256 265.056 48.192C265.696 48.032 266.197 47.7493 266.56 47.344C266.933 46.9387 267.195 46.48 267.344 45.968C267.504 45.456 267.584 44.9547 267.584 44.464C267.584 43.9733 267.504 43.472 267.344 42.96C267.195 42.4373 266.933 41.9733 266.56 41.568C266.197 41.1627 265.696 40.88 265.056 40.72C264.832 40.656 264.587 40.6187 264.32 40.608C264.053 40.5867 263.813 40.576 263.6 40.576H258.096V48.352ZM274.678 60V36.96H289.558V40.576H278.534V46.256H287.638V49.872H278.534V56.384H289.558V60H274.678ZM293.396 60V36.96H302.916C303.14 36.96 303.428 36.9707 303.78 36.992C304.132 37.0027 304.458 37.0347 304.756 37.088C306.09 37.2907 307.188 37.7333 308.052 38.416C308.927 39.0987 309.572 39.9627 309.988 41.008C310.415 42.0427 310.628 43.1947 310.628 44.464C310.628 46.3413 310.154 47.9573 309.204 49.312C308.255 50.656 306.799 51.488 304.836 51.808L303.188 51.952H297.252V60H293.396ZM306.628 60L302.084 50.624L306.004 49.76L310.996 60H306.628ZM297.252 48.352H302.756C302.97 48.352 303.21 48.3413 303.476 48.32C303.743 48.2987 303.988 48.256 304.212 48.192C304.852 48.032 305.354 47.7493 305.716 47.344C306.09 46.9387 306.351 46.48 306.5 45.968C306.66 45.456 306.74 44.9547 306.74 44.464C306.74 43.9733 306.66 43.472 306.5 42.96C306.351 42.4373 306.09 41.9733 305.716 41.568C305.354 41.1627 304.852 40.88 304.212 40.72C303.988 40.656 303.743 40.6187 303.476 40.608C303.21 40.5867 302.97 40.576 302.756 40.576H297.252V48.352ZM314.521 60V36.96H328.393V40.816H318.377V46.56H326.473V50.4H318.377V60H314.521ZM331.591 60V36.96H335.447V60H331.591ZM340.56 60V36.96H344.416V56.384H354.592V60H340.56Z" fill="#10002B"/>
</svg>
